<?xml version="1.0" standalone="no"?>
<!DOCTYPE svg PUBLIC "-//W3C//DTD SVG 1.1//EN" "http://www.w3.org/Graphics/SVG/1.1/DTD/svg11.dtd" >
<svg xmlns="http://www.w3.org/2000/svg" xmlns:xlink="http://www.w3.org/1999/xlink" version="1.1">
<metadata>
Created by FontForge 20170731 at Mon Sep 21 00:59:08 2020
 By Aleksey,,,
</metadata>
<defs>
<font id="AgelastRegular" horiz-adv-x="1433" >
  <font-face 
    font-family="Agelast"
    font-weight="400"
    font-stretch="normal"
    units-per-em="2048"
    panose-1="0 0 0 0 0 0 0 0 0 0"
    ascent="1638"
    descent="-410"
    x-height="1433"
    cap-height="1433"
    bbox="101.5 -173 1846.12 1434"
    underline-thickness="102"
    underline-position="-307"
    unicode-range="U+000A-00AD"
  />
<missing-glyph horiz-adv-x="1079" 
d="M102 1434h875v-1434h-875v1434zM160 1393l379 -633l381 633h-760zM514 717l-369 614v-1231zM541 674l-379 -631h758zM565 717l371 -621v1239z" />
    <glyph glyph-name=".notdef" horiz-adv-x="1079" 
d="M102 1434h875v-1434h-875v1434zM160 1393l379 -633l381 633h-760zM514 717l-369 614v-1231zM541 674l-379 -631h758zM565 717l371 -621v1239z" />
    <glyph glyph-name=".null" horiz-adv-x="0" 
 />
    <glyph glyph-name=".null" horiz-adv-x="0" 
 />
    <glyph glyph-name="nonmarkingreturn" horiz-adv-x="682" 
 />
    <glyph glyph-name="controlLF" unicode="&#xa;" horiz-adv-x="0" 
 />
    <glyph glyph-name="controlCR" unicode="&#xd;" horiz-adv-x="0" 
 />
    <glyph glyph-name="space" unicode=" " horiz-adv-x="712" 
 />
    <glyph glyph-name="A" unicode="A" 
d="M744 1424l1 -1l584 -1402q3 -7 -2 -14t-13 -7h-28q-11 0 -14 9l-162 390h-787l-162 -390q-3 -9 -15 -9h-28q-8 0 -13 7q-4 6 -1 14l584 1402v1v1l1 1l1 1l1 1l2 2h1l1 1l1 1h2h2l2 1h28l2 -1h3h1l1 -1l1 -1h2l2 -2l1 -1v-1l1 -1v-1zM1086 456l-370 887l-369 -887h739z
" />
    <glyph glyph-name="A" unicode="&#xc5;" 
d="M744 1424l1 -1l584 -1402q3 -7 -2 -14t-13 -7h-28q-11 0 -14 9l-162 390h-787l-162 -390q-3 -9 -15 -9h-28q-8 0 -13 7q-4 6 -1 14l584 1402v1v1l1 1l1 1l1 1l2 2h1l1 1l1 1h2h2l2 1h28l2 -1h3h1l1 -1l1 -1h2l2 -2l1 -1v-1l1 -1v-1zM1086 456l-370 887l-369 -887h739z
" />
    <glyph glyph-name="A" unicode="&#xc4;" 
d="M744 1424l1 -1l584 -1402q3 -7 -2 -14t-13 -7h-28q-11 0 -14 9l-162 390h-787l-162 -390q-3 -9 -15 -9h-28q-8 0 -13 7q-4 6 -1 14l584 1402v1v1l1 1l1 1l1 1l2 2h1l1 1l1 1h2h2l2 1h28l2 -1h3h1l1 -1l1 -1h2l2 -2l1 -1v-1l1 -1v-1zM1086 456l-370 887l-369 -887h739z
" />
    <glyph glyph-name="A" unicode="&#xc3;" 
d="M744 1424l1 -1l584 -1402q3 -7 -2 -14t-13 -7h-28q-11 0 -14 9l-162 390h-787l-162 -390q-3 -9 -15 -9h-28q-8 0 -13 7q-4 6 -1 14l584 1402v1v1l1 1l1 1l1 1l2 2h1l1 1l1 1h2h2l2 1h28l2 -1h3h1l1 -1l1 -1h2l2 -2l1 -1v-1l1 -1v-1zM1086 456l-370 887l-369 -887h739z
" />
    <glyph glyph-name="A" unicode="&#xc2;" 
d="M744 1424l1 -1l584 -1402q3 -7 -2 -14t-13 -7h-28q-11 0 -14 9l-162 390h-787l-162 -390q-3 -9 -15 -9h-28q-8 0 -13 7q-4 6 -1 14l584 1402v1v1l1 1l1 1l1 1l2 2h1l1 1l1 1h2h2l2 1h28l2 -1h3h1l1 -1l1 -1h2l2 -2l1 -1v-1l1 -1v-1zM1086 456l-370 887l-369 -887h739z
" />
    <glyph glyph-name="A" unicode="&#xc1;" 
d="M744 1424l1 -1l584 -1402q3 -7 -2 -14t-13 -7h-28q-11 0 -14 9l-162 390h-787l-162 -390q-3 -9 -15 -9h-28q-8 0 -13 7q-4 6 -1 14l584 1402v1v1l1 1l1 1l1 1l2 2h1l1 1l1 1h2h2l2 1h28l2 -1h3h1l1 -1l1 -1h2l2 -2l1 -1v-1l1 -1v-1zM1086 456l-370 887l-369 -887h739z
" />
    <glyph glyph-name="A" unicode="&#xc0;" 
d="M744 1424l1 -1l584 -1402q3 -7 -2 -14t-13 -7h-28q-11 0 -14 9l-162 390h-787l-162 -390q-3 -9 -15 -9h-28q-8 0 -13 7q-4 6 -1 14l584 1402v1v1l1 1l1 1l1 1l2 2h1l1 1l1 1h2h2l2 1h28l2 -1h3h1l1 -1l1 -1h2l2 -2l1 -1v-1l1 -1v-1zM1086 456l-370 887l-369 -887h739z
" />
    <glyph glyph-name="B" unicode="B" 
d="M118 0q-16 0 -16 15v1402q0 16 16 16h839q154 0 263.5 -109.5t109.5 -263.5q0 -115 -63 -208t-166 -136q103 -43 166 -136t63 -208q0 -154 -109.5 -263t-263.5 -109h-839zM957 57q131 0 223.5 92.5t92.5 222.5t-92.5 223t-223.5 93h-797v-631h797zM160 745h797
q131 0 223.5 92.5t92.5 222.5t-92.5 223t-223.5 93h-797v-631z" />
    <glyph glyph-name="C" unicode="C" 
d="M806 1375q-128 -2 -245.5 -52t-208.5 -141q-126 -126 -171 -296t0 -340t171 -296q91 -91 208.5 -141t245.5 -52t247 43t213 132l18 18q11 11 22 0l19 -18q5 -5 5 -11t-5 -11l-19 -19q-100 -92 -225.5 -141.5t-261.5 -49.5h-13q-140 2 -267.5 56.5t-226.5 153.5
q-137 137 -186 321.5t0 369.5t186 322q99 99 226.5 153.5t267.5 56.5q139 2 268.5 -47t231.5 -144q3 -3 6.5 -6t7 -7t5.5 -6q5 -5 5 -11t-5 -11l-19 -18q-11 -11 -22 0l-6 6t-6.5 7t-5.5 5q-93 87 -212 131.5t-248 42.5z" />
    <glyph glyph-name="C" unicode="&#xc7;" 
d="M806 1375q-128 -2 -245.5 -52t-208.5 -141q-126 -126 -171 -296t0 -340t171 -296q91 -91 208.5 -141t245.5 -52t247 43t213 132l18 18q11 11 22 0l19 -18q5 -5 5 -11t-5 -11l-19 -19q-100 -92 -225.5 -141.5t-261.5 -49.5h-13q-140 2 -267.5 56.5t-226.5 153.5
q-137 137 -186 321.5t0 369.5t186 322q99 99 226.5 153.5t267.5 56.5q139 2 268.5 -47t231.5 -144q3 -3 6.5 -6t7 -7t5.5 -6q5 -5 5 -11t-5 -11l-19 -18q-11 -11 -22 0l-6 6t-6.5 7t-5.5 5q-93 87 -212 131.5t-248 42.5z" />
    <glyph glyph-name="D" unicode="D" 
d="M614 1433q145 0 278 -57t228.5 -153t152.5 -228.5t57 -278.5q0 -194 -96 -359t-261 -261t-359 -96h-496q-16 0 -16 15v1402q0 16 16 16h496zM160 1376v-1319h454q179 0 330.5 88.5t240 240t88.5 330.5q0 134 -52.5 256t-140.5 210.5t-210 141t-256 52.5h-454z" />
    <glyph glyph-name="E" unicode="E" 
d="M1314 1376h-1154v-631h747q15 0 15 -15v-27q0 -15 -15 -15h-747v-631h1154q16 0 16 -15v-27q0 -15 -16 -15h-1196q-16 0 -16 15v1402q0 16 16 16h1196q16 0 16 -16v-26q0 -15 -16 -15z" />
    <glyph glyph-name="E" unicode="&#xcb;" 
d="M1314 1376h-1154v-631h747q15 0 15 -15v-27q0 -15 -15 -15h-747v-631h1154q16 0 16 -15v-27q0 -15 -16 -15h-1196q-16 0 -16 15v1402q0 16 16 16h1196q16 0 16 -16v-26q0 -15 -16 -15z" />
    <glyph glyph-name="E" unicode="&#xca;" 
d="M1314 1376h-1154v-631h747q15 0 15 -15v-27q0 -15 -15 -15h-747v-631h1154q16 0 16 -15v-27q0 -15 -16 -15h-1196q-16 0 -16 15v1402q0 16 16 16h1196q16 0 16 -16v-26q0 -15 -16 -15z" />
    <glyph glyph-name="E" unicode="&#xc9;" 
d="M1314 1376h-1154v-631h747q15 0 15 -15v-27q0 -15 -15 -15h-747v-631h1154q16 0 16 -15v-27q0 -15 -16 -15h-1196q-16 0 -16 15v1402q0 16 16 16h1196q16 0 16 -16v-26q0 -15 -16 -15z" />
    <glyph glyph-name="E" unicode="&#xc8;" 
d="M1314 1376h-1154v-631h747q15 0 15 -15v-27q0 -15 -15 -15h-747v-631h1154q16 0 16 -15v-27q0 -15 -16 -15h-1196q-16 0 -16 15v1402q0 16 16 16h1196q16 0 16 -16v-26q0 -15 -16 -15z" />
    <glyph glyph-name="F" unicode="F" 
d="M118 1433h1196q16 0 16 -16v-26q0 -15 -16 -15h-1154v-631h747q15 0 15 -15v-27q0 -15 -15 -15h-747v-673q0 -15 -16 -15h-26q-16 0 -16 15v1402q0 16 16 16z" />
    <glyph glyph-name="G" unicode="G" 
d="M819 0q-141 0 -272.5 53.5t-234.5 156.5q-137 137 -186 321.5t0 369.5t186 322q99 99 226.5 153.5t267.5 56.5q139 2 268.5 -47t231.5 -144q3 -3 6.5 -6t7 -7t5.5 -6q5 -5 5 -11t-5 -11l-19 -18q-11 -11 -22 0l-6 6t-6.5 7t-5.5 5q-93 87 -212 131.5t-248 42.5
q-128 -2 -245.5 -52t-208.5 -141q-126 -126 -171 -296t0 -340t171 -296q91 -91 208.5 -141t245.5 -52t247 43t213 132l6 6v492q0 15 16 15h26q16 0 16 -15v-509q0 -1 -0.5 -1t-0.5 -1v-1v-2l-1 -1v-1l-1 -2l-2 -2l-19 -19q-5 -5 -8 -7q-100 -91 -224 -137.5t-255 -46.5z" />
    <glyph glyph-name="H" unicode="H" 
d="M118 0q-16 0 -16 15v1402q0 16 16 16h26q16 0 16 -16v-672h1113v672q0 16 15 16h26q16 0 16 -16v-1402q0 -15 -16 -15h-26q-15 0 -15 15v673h-1113v-673q0 -15 -16 -15h-26z" />
    <glyph glyph-name="I" unicode="I" horiz-adv-x="264" 
d="M118 0q-16 0 -16 15v1402q0 16 16 16h26q16 0 16 -16v-1402q0 -15 -16 -15h-26z" />
    <glyph glyph-name="I" unicode="&#xcf;" horiz-adv-x="264" 
d="M118 0q-16 0 -16 15v1402q0 16 16 16h26q16 0 16 -16v-1402q0 -15 -16 -15h-26z" />
    <glyph glyph-name="I" unicode="&#xce;" horiz-adv-x="264" 
d="M118 0q-16 0 -16 15v1402q0 16 16 16h26q16 0 16 -16v-1402q0 -15 -16 -15h-26z" />
    <glyph glyph-name="I" unicode="&#xcd;" horiz-adv-x="264" 
d="M118 0q-16 0 -16 15v1402q0 16 16 16h26q16 0 16 -16v-1402q0 -15 -16 -15h-26z" />
    <glyph glyph-name="I" unicode="&#xcc;" horiz-adv-x="264" 
d="M118 0q-16 0 -16 15v1402q0 16 16 16h26q16 0 16 -16v-1402q0 -15 -16 -15h-26z" />
    <glyph glyph-name="J" unicode="J" 
d="M126 191l-19 19q-5 5 -5 11t5 11l19 18q11 11 22 0l7 -7l3.5 -3.5t4 -4.5t3.5 -3q94 -87 213 -132t247 -43t245.5 52t208.5 141q93 94 143 214t50 252v660h-492q-16 0 -16 15v26q0 16 16 16h533q16 0 16 -16v-701q0 -143 -54.5 -274t-155.5 -232q-103 -103 -234.5 -156.5
t-272.5 -53.5q-131 0 -254.5 46.5t-224.5 137.5q-5 5 -8 7z" />
    <glyph glyph-name="K" unicode="K" 
d="M103 13v1h-1v1v1402q0 16 16 16h26q16 0 16 -16v-1327l527 636l17 21l564 680q4 6 12 6h34q9 0 14 -9q5 -8 -2 -17l-573 -691l573 -691q7 -8 2 -16q-5 -9 -14 -9h-34q-8 0 -12 6l-552 666l-552 -666q-4 -6 -12 -6h-34h-2l-2 1h-1q-2 0 -3 1h-1q-1 0 -1 1t-1 2l-1 1l-2 2
v1q-1 1 -1 4z" />
    <glyph glyph-name="L" unicode="L" 
d="M118 0q-16 0 -16 15v1402q0 16 16 16h26q16 0 16 -16v-1360h1154q16 0 16 -15v-27q0 -15 -16 -15h-1196z" />
    <glyph glyph-name="M" unicode="M" horiz-adv-x="1638" 
d="M118 0q-16 0 -16 15v1402q0 1 0.5 1t0.5 1v1q0 3 1 4v0l1 1q1 1 1 2v1l2 1q1 1 2 1q2 2 3 2h1h2l2 1h26h8q8 0 12 -6l655 -789l655 789q4 6 12 6h7h27l2 -1h2h1q2 0 3 -1v-1l1 -1q1 -1 2 -1l1 -1q1 -1 1 -2l1 -1v-2l1 -2v-1v-2v-1402q0 -15 -15 -15h-27q-15 0 -15 15
v1328l-528 -636l-17 -21l-102 -124q-5 -6 -12 -6t-12 6l-17 21h-1l-102 124l-527 636v-1328q0 -15 -16 -15h-26z" />
    <glyph glyph-name="N" unicode="N" 
d="M118 0q-16 0 -16 15v1402q0 1 0.5 1t0.5 1v1q0 3 1 4v0l1 1q1 1 1 2l1 1l2 2l1 1q1 1 3 1h1h2l2 1h34q8 0 12 -6l581 -701l528 -636v1327q0 16 15 16h26q16 0 16 -16v-1402v-1v-1q0 -3 -1 -4h-1v-1l-2 -2v-1l-3 -3h-1q-1 -1 -3 -1h-1l-2 -1h-2h-26h-8q-8 0 -12 6
l-564 680l-17 21l-527 636v-1328q0 -15 -16 -15h-26z" />
    <glyph glyph-name="N" unicode="&#xd1;" 
d="M118 0q-16 0 -16 15v1402q0 1 0.5 1t0.5 1v1q0 3 1 4v0l1 1q1 1 1 2l1 1l2 2l1 1q1 1 3 1h1h2l2 1h34q8 0 12 -6l581 -701l528 -636v1327q0 16 15 16h26q16 0 16 -16v-1402v-1v-1q0 -3 -1 -4h-1v-1l-2 -2v-1l-3 -3h-1q-1 -1 -3 -1h-1l-2 -1h-2h-26h-8q-8 0 -12 6
l-564 680l-17 21l-527 636v-1328q0 -15 -16 -15h-26z" />
    <glyph glyph-name="O" unicode="O" horiz-adv-x="1638" 
d="M819 0q-146 0 -278.5 57t-228.5 152.5t-153 228.5t-57 278t57 278t153 229t229 153t278 57t278 -57t228.5 -153t152.5 -228.5t57 -278.5q0 -194 -96 -359t-261 -261t-359 -96zM819 1376q-134 0 -256 -52.5t-210 -141t-140.5 -210.5t-52.5 -256q0 -179 88.5 -330.5
t240 -240t330.5 -88.5t330.5 88.5t240 240t88.5 330.5q0 134 -52.5 256t-140.5 210.5t-210 141t-256 52.5z" />
    <glyph glyph-name="O" unicode="&#xd8;" horiz-adv-x="1638" 
d="M819 0q-146 0 -278.5 57t-228.5 152.5t-153 228.5t-57 278t57 278t153 229t229 153t278 57t278 -57t228.5 -153t152.5 -228.5t57 -278.5q0 -194 -96 -359t-261 -261t-359 -96zM819 1376q-134 0 -256 -52.5t-210 -141t-140.5 -210.5t-52.5 -256q0 -179 88.5 -330.5
t240 -240t330.5 -88.5t330.5 88.5t240 240t88.5 330.5q0 134 -52.5 256t-140.5 210.5t-210 141t-256 52.5z" />
    <glyph glyph-name="O" unicode="&#xd6;" horiz-adv-x="1638" 
d="M819 0q-146 0 -278.5 57t-228.5 152.5t-153 228.5t-57 278t57 278t153 229t229 153t278 57t278 -57t228.5 -153t152.5 -228.5t57 -278.5q0 -194 -96 -359t-261 -261t-359 -96zM819 1376q-134 0 -256 -52.5t-210 -141t-140.5 -210.5t-52.5 -256q0 -179 88.5 -330.5
t240 -240t330.5 -88.5t330.5 88.5t240 240t88.5 330.5q0 134 -52.5 256t-140.5 210.5t-210 141t-256 52.5z" />
    <glyph glyph-name="O" unicode="&#xd5;" horiz-adv-x="1638" 
d="M819 0q-146 0 -278.5 57t-228.5 152.5t-153 228.5t-57 278t57 278t153 229t229 153t278 57t278 -57t228.5 -153t152.5 -228.5t57 -278.5q0 -194 -96 -359t-261 -261t-359 -96zM819 1376q-134 0 -256 -52.5t-210 -141t-140.5 -210.5t-52.5 -256q0 -179 88.5 -330.5
t240 -240t330.5 -88.5t330.5 88.5t240 240t88.5 330.5q0 134 -52.5 256t-140.5 210.5t-210 141t-256 52.5z" />
    <glyph glyph-name="O" unicode="&#xd4;" horiz-adv-x="1638" 
d="M819 0q-146 0 -278.5 57t-228.5 152.5t-153 228.5t-57 278t57 278t153 229t229 153t278 57t278 -57t228.5 -153t152.5 -228.5t57 -278.5q0 -194 -96 -359t-261 -261t-359 -96zM819 1376q-134 0 -256 -52.5t-210 -141t-140.5 -210.5t-52.5 -256q0 -179 88.5 -330.5
t240 -240t330.5 -88.5t330.5 88.5t240 240t88.5 330.5q0 134 -52.5 256t-140.5 210.5t-210 141t-256 52.5z" />
    <glyph glyph-name="O" unicode="&#xd3;" horiz-adv-x="1638" 
d="M819 0q-146 0 -278.5 57t-228.5 152.5t-153 228.5t-57 278t57 278t153 229t229 153t278 57t278 -57t228.5 -153t152.5 -228.5t57 -278.5q0 -194 -96 -359t-261 -261t-359 -96zM819 1376q-134 0 -256 -52.5t-210 -141t-140.5 -210.5t-52.5 -256q0 -179 88.5 -330.5
t240 -240t330.5 -88.5t330.5 88.5t240 240t88.5 330.5q0 134 -52.5 256t-140.5 210.5t-210 141t-256 52.5z" />
    <glyph glyph-name="O" unicode="&#xd2;" horiz-adv-x="1638" 
d="M819 0q-146 0 -278.5 57t-228.5 152.5t-153 228.5t-57 278t57 278t153 229t229 153t278 57t278 -57t228.5 -153t152.5 -228.5t57 -278.5q0 -194 -96 -359t-261 -261t-359 -96zM819 1376q-134 0 -256 -52.5t-210 -141t-140.5 -210.5t-52.5 -256q0 -179 88.5 -330.5
t240 -240t330.5 -88.5t330.5 88.5t240 240t88.5 330.5q0 134 -52.5 256t-140.5 210.5t-210 141t-256 52.5z" />
    <glyph glyph-name="P" unicode="P" 
d="M118 0q-16 0 -16 15v1402q0 16 16 16h695q140 0 259 -69.5t188.5 -188.5t69.5 -259t-69.5 -259t-188.5 -188.5t-259 -69.5h-653v-384q0 -15 -16 -15h-26zM813 456q125 0 231 61.5t167.5 167.5t61.5 231t-61.5 231t-167.5 167.5t-231 61.5h-653v-920h653z" />
    <glyph glyph-name="Q" unicode="Q" horiz-adv-x="1638" 
d="M497 77q-179 90 -287 261.5t-108 377.5q0 145 57 278t153 229t229 153t278 57t278 -57t228.5 -153t152.5 -228.5t57 -278.5q0 -194 -96 -359t-261 -261t-359 -96h-3q14 -10 26 -23q93 -93 223 -93t223 93q4 4 11 4t11 -4l18 -19q11 -11 0 -22q-109 -109 -263 -109
q-155 0 -264 109q-60 60 -142 82l-12 3q-31 7 -69 7q-131 0 -223 -92q-5 -5 -11 -5q-5 0 -10 5l-19 19q-11 11 0 22q77 77 182 100zM819 1376q-134 0 -256 -52.5t-210 -141t-140.5 -210.5t-52.5 -256q0 -232 144 -411t365 -230q79 -18 150 -18q179 0 330.5 88.5t240 240
t88.5 330.5q0 134 -52.5 256t-140.5 210.5t-210 141t-256 52.5z" />
    <glyph glyph-name="R" unicode="R" 
d="M118 0q-16 0 -16 15v1402q0 1 0.5 1t0.5 1v1q0 3 1 4v0l1 1q1 1 1 2l1 1l2 2l1 1q1 1 3 1h1h2l2 1h695q140 0 259 -69.5t188.5 -188.5t69.5 -259q0 -164 -93 -297t-246 -189l335 -405q7 -8 2 -16q-5 -9 -14 -9h-34q-8 0 -12 6l-337 406q-56 -13 -118 -13h-653v-384
q0 -15 -16 -15h-26zM813 1376h-653v-920h653q50 0 102 11q8 2 13 3q2 0 7 2t7 2q146 43 238.5 166.5t92.5 275.5q0 125 -61.5 231t-167.5 167.5t-231 61.5z" />
    <glyph glyph-name="S" unicode="S" 
d="M957 57q131 0 223.5 92.5t92.5 222.5t-92.5 223t-223.5 93h-482q-154 0 -263.5 109t-109.5 263t109.5 263.5t263.5 109.5h482q154 0 263.5 -109.5t109.5 -263.5q0 -15 -16 -15h-26q-15 0 -15 15q0 130 -92.5 223t-223.5 93h-482q-130 0 -222.5 -92.5t-92.5 -223.5
q0 -130 92 -222.5t223 -92.5h482q154 0 263.5 -109.5t109.5 -263.5t-109.5 -263t-263.5 -109h-482q-154 0 -263.5 109t-109.5 263q0 16 16 16h26q16 0 16 -16q0 -130 92 -222.5t223 -92.5h482z" />
    <glyph glyph-name="T" unicode="T" 
d="M118 1376q-16 0 -16 15v26q0 16 16 16h1196q16 0 16 -16v-26q0 -15 -16 -15h-569v-1361q0 -15 -16 -15h-26q-15 0 -15 15v1361h-570z" />
    <glyph glyph-name="U" unicode="U" 
d="M716 0q-166 0 -307.5 82.5t-224 224t-82.5 307.5v803q0 16 16 16h26q16 0 16 -16v-803q0 -151 74.5 -279.5t202.5 -203t279 -74.5q113 0 216 44t178 119t119 178t44 216v803q0 7 4 11q5 5 11 5h26q16 0 16 -16v-803q0 -166 -82.5 -307.5t-224 -224t-307.5 -82.5z" />
    <glyph glyph-name="U" unicode="&#xdc;" 
d="M716 0q-166 0 -307.5 82.5t-224 224t-82.5 307.5v803q0 16 16 16h26q16 0 16 -16v-803q0 -151 74.5 -279.5t202.5 -203t279 -74.5q113 0 216 44t178 119t119 178t44 216v803q0 7 4 11q5 5 11 5h26q16 0 16 -16v-803q0 -166 -82.5 -307.5t-224 -224t-307.5 -82.5z" />
    <glyph glyph-name="U" unicode="&#xdb;" 
d="M716 0q-166 0 -307.5 82.5t-224 224t-82.5 307.5v803q0 16 16 16h26q16 0 16 -16v-803q0 -151 74.5 -279.5t202.5 -203t279 -74.5q113 0 216 44t178 119t119 178t44 216v803q0 7 4 11q5 5 11 5h26q16 0 16 -16v-803q0 -166 -82.5 -307.5t-224 -224t-307.5 -82.5z" />
    <glyph glyph-name="U" unicode="&#xda;" 
d="M716 0q-166 0 -307.5 82.5t-224 224t-82.5 307.5v803q0 16 16 16h26q16 0 16 -16v-803q0 -151 74.5 -279.5t202.5 -203t279 -74.5q113 0 216 44t178 119t119 178t44 216v803q0 7 4 11q5 5 11 5h26q16 0 16 -16v-803q0 -166 -82.5 -307.5t-224 -224t-307.5 -82.5z" />
    <glyph glyph-name="U" unicode="&#xd9;" 
d="M716 0q-166 0 -307.5 82.5t-224 224t-82.5 307.5v803q0 16 16 16h26q16 0 16 -16v-803q0 -151 74.5 -279.5t202.5 -203t279 -74.5q113 0 216 44t178 119t119 178t44 216v803q0 7 4 11q5 5 11 5h26q16 0 16 -16v-803q0 -166 -82.5 -307.5t-224 -224t-307.5 -82.5z" />
    <glyph glyph-name="V" unicode="V" 
d="M688 9l-584 1402q-4 9 1 15q5 7 13 7h28q12 0 15 -10l555 -1333l556 1333q3 10 14 10h28q8 0 13 -7t2 -15l-584 -1402h-1q0 -1 -0.5 -1t-0.5 -1v-1l-1 -1l-2 -2l-2 -1h-1l-1 -1h-1q-1 0 -3 -0.5l-2 -0.5h-28h-2l-2 1h-2l-1 1h-1l-1 1l-2 2l-1 1l-1 1q0 1 -0.5 1t-0.5 1z
" />
    <glyph glyph-name="W" unicode="W" horiz-adv-x="1949" 
d="M688 9l-584 1402q-4 9 1 15q5 7 13 7h28q12 0 15 -10l555 -1333l227 544l-324 777q-3 8 2 15t13 7h28q11 0 14 -10l298 -714l298 714q3 10 14 10h28q8 0 13 -7t2 -15l-324 -777l227 -544l555 1333q3 10 15 10h28q8 0 13 -7t2 -15l-585 -1402q0 -1 -0.5 -1t-0.5 -1l-1 -1
l-1 -1l-2 -2l-1 -1h-1l-1 -1h-2l-2 -1h-2h-28h-2q-2 1 -3 1h-1l-1 1h-1l-2 1l-2 2l-1 1v1q0 1 -0.5 1t-0.5 1h-1l-229 551l-229 -551h-1q0 -1 -0.5 -1t-0.5 -1v-1l-1 -1l-2 -2l-2 -1h-1l-1 -1h-1q-1 0 -3 -0.5l-2 -0.5h-28h-2l-2 1h-2l-1 1h-1l-1 1l-2 2l-1 1l-1 1
q0 1 -0.5 1t-0.5 1z" />
    <glyph glyph-name="X" unicode="X" 
d="M104 9q-5 8 2 16l573 691l-573 691q-7 9 -2 17q5 9 14 9h34q8 0 12 -6l552 -666l552 666q4 6 12 6h34q9 0 14 -9q5 -8 -2 -17l-573 -691l573 -691q7 -8 2 -16q-5 -9 -14 -9h-34q-8 0 -12 6l-552 666l-552 -666q-4 -6 -12 -6h-34q-9 0 -14 9z" />
    <glyph glyph-name="Y" unicode="Y" 
d="M688 473l-583 936q-5 9 -1 16q5 8 14 8h31q9 0 13 -7l554 -891l554 891q4 7 13 7h31q9 0 14 -8t0 -16l-583 -936v-458q0 -15 -16 -15h-26q-15 0 -15 15v458z" />
    <glyph glyph-name="Y" unicode="&#x178;" 
d="M688 473l-583 936q-5 9 -1 16q5 8 14 8h31q9 0 13 -7l554 -891l554 891q4 7 13 7h31q9 0 14 -8t0 -16l-583 -936v-458q0 -15 -16 -15h-26q-15 0 -15 15v458z" />
    <glyph glyph-name="Y" unicode="&#xdd;" 
d="M688 473l-583 936q-5 9 -1 16q5 8 14 8h31q9 0 13 -7l554 -891l554 891q4 7 13 7h31q9 0 14 -8t0 -16l-583 -936v-458q0 -15 -16 -15h-26q-15 0 -15 15v458z" />
    <glyph glyph-name="Z" unicode="Z" 
d="M118 1376q-16 0 -16 15v26q0 16 16 16h1170h26q9 0 14 -9q5 -8 -2 -17l-1119 -1350h1107q16 0 16 -15v-27q0 -15 -16 -15h-1162h-34q-9 0 -14 9q-5 8 2 16l1120 1351h-1108z" />
    <glyph glyph-name="a" unicode="a" 
d="M744 1424l1 -1l584 -1402q3 -7 -2 -14t-13 -7h-28q-11 0 -14 9l-162 390h-787l-162 -390q-3 -9 -15 -9h-28q-8 0 -13 7q-4 6 -1 14l584 1402v1v1l1 1l1 1l1 1l2 2h1l1 1l1 1h2h2l2 1h28l2 -1h3h1l1 -1l1 -1h2l2 -2l1 -1v-1l1 -1v-1zM1086 456l-370 887l-369 -887h739z
" />
    <glyph glyph-name="a" unicode="&#xe5;" 
d="M744 1424l1 -1l584 -1402q3 -7 -2 -14t-13 -7h-28q-11 0 -14 9l-162 390h-787l-162 -390q-3 -9 -15 -9h-28q-8 0 -13 7q-4 6 -1 14l584 1402v1v1l1 1l1 1l1 1l2 2h1l1 1l1 1h2h2l2 1h28l2 -1h3h1l1 -1l1 -1h2l2 -2l1 -1v-1l1 -1v-1zM1086 456l-370 887l-369 -887h739z
" />
    <glyph glyph-name="a" unicode="&#xe4;" 
d="M744 1424l1 -1l584 -1402q3 -7 -2 -14t-13 -7h-28q-11 0 -14 9l-162 390h-787l-162 -390q-3 -9 -15 -9h-28q-8 0 -13 7q-4 6 -1 14l584 1402v1v1l1 1l1 1l1 1l2 2h1l1 1l1 1h2h2l2 1h28l2 -1h3h1l1 -1l1 -1h2l2 -2l1 -1v-1l1 -1v-1zM1086 456l-370 887l-369 -887h739z
" />
    <glyph glyph-name="a" unicode="&#xe3;" 
d="M744 1424l1 -1l584 -1402q3 -7 -2 -14t-13 -7h-28q-11 0 -14 9l-162 390h-787l-162 -390q-3 -9 -15 -9h-28q-8 0 -13 7q-4 6 -1 14l584 1402v1v1l1 1l1 1l1 1l2 2h1l1 1l1 1h2h2l2 1h28l2 -1h3h1l1 -1l1 -1h2l2 -2l1 -1v-1l1 -1v-1zM1086 456l-370 887l-369 -887h739z
" />
    <glyph glyph-name="a" unicode="&#xe2;" 
d="M744 1424l1 -1l584 -1402q3 -7 -2 -14t-13 -7h-28q-11 0 -14 9l-162 390h-787l-162 -390q-3 -9 -15 -9h-28q-8 0 -13 7q-4 6 -1 14l584 1402v1v1l1 1l1 1l1 1l2 2h1l1 1l1 1h2h2l2 1h28l2 -1h3h1l1 -1l1 -1h2l2 -2l1 -1v-1l1 -1v-1zM1086 456l-370 887l-369 -887h739z
" />
    <glyph glyph-name="a" unicode="&#xe1;" 
d="M744 1424l1 -1l584 -1402q3 -7 -2 -14t-13 -7h-28q-11 0 -14 9l-162 390h-787l-162 -390q-3 -9 -15 -9h-28q-8 0 -13 7q-4 6 -1 14l584 1402v1v1l1 1l1 1l1 1l2 2h1l1 1l1 1h2h2l2 1h28l2 -1h3h1l1 -1l1 -1h2l2 -2l1 -1v-1l1 -1v-1zM1086 456l-370 887l-369 -887h739z
" />
    <glyph glyph-name="a" unicode="&#xe0;" 
d="M744 1424l1 -1l584 -1402q3 -7 -2 -14t-13 -7h-28q-11 0 -14 9l-162 390h-787l-162 -390q-3 -9 -15 -9h-28q-8 0 -13 7q-4 6 -1 14l584 1402v1v1l1 1l1 1l1 1l2 2h1l1 1l1 1h2h2l2 1h28l2 -1h3h1l1 -1l1 -1h2l2 -2l1 -1v-1l1 -1v-1zM1086 456l-370 887l-369 -887h739z
" />
    <glyph glyph-name="b" unicode="b" 
d="M118 0q-16 0 -16 15v1402q0 16 16 16h839q154 0 263.5 -109.5t109.5 -263.5q0 -115 -63 -208t-166 -136q103 -43 166 -136t63 -208q0 -154 -109.5 -263t-263.5 -109h-839zM957 57q131 0 223.5 92.5t92.5 222.5t-92.5 223t-223.5 93h-797v-631h797zM160 745h797
q131 0 223.5 92.5t92.5 222.5t-92.5 223t-223.5 93h-797v-631z" />
    <glyph glyph-name="c" unicode="c" 
d="M806 1375q-128 -2 -245.5 -52t-208.5 -141q-126 -126 -171 -296t0 -340t171 -296q91 -91 208.5 -141t245.5 -52t247 43t213 132l18 18q11 11 22 0l19 -18q5 -5 5 -11t-5 -11l-19 -19q-100 -92 -225.5 -141.5t-261.5 -49.5h-13q-140 2 -267.5 56.5t-226.5 153.5
q-137 137 -186 321.5t0 369.5t186 322q99 99 226.5 153.5t267.5 56.5q139 2 268.5 -47t231.5 -144q3 -3 6.5 -6t7 -7t5.5 -6q5 -5 5 -11t-5 -11l-19 -18q-11 -11 -22 0l-6 6t-6.5 7t-5.5 5q-93 87 -212 131.5t-248 42.5z" />
    <glyph glyph-name="c" unicode="&#xe7;" 
d="M806 1375q-128 -2 -245.5 -52t-208.5 -141q-126 -126 -171 -296t0 -340t171 -296q91 -91 208.5 -141t245.5 -52t247 43t213 132l18 18q11 11 22 0l19 -18q5 -5 5 -11t-5 -11l-19 -19q-100 -92 -225.5 -141.5t-261.5 -49.5h-13q-140 2 -267.5 56.5t-226.5 153.5
q-137 137 -186 321.5t0 369.5t186 322q99 99 226.5 153.5t267.5 56.5q139 2 268.5 -47t231.5 -144q3 -3 6.5 -6t7 -7t5.5 -6q5 -5 5 -11t-5 -11l-19 -18q-11 -11 -22 0l-6 6t-6.5 7t-5.5 5q-93 87 -212 131.5t-248 42.5z" />
    <glyph glyph-name="d" unicode="d" 
d="M614 1433q145 0 278 -57t228.5 -153t152.5 -228.5t57 -278.5q0 -194 -96 -359t-261 -261t-359 -96h-496q-16 0 -16 15v1402q0 16 16 16h496zM160 1376v-1319h454q179 0 330.5 88.5t240 240t88.5 330.5q0 134 -52.5 256t-140.5 210.5t-210 141t-256 52.5h-454z" />
    <glyph glyph-name="e" unicode="e" 
d="M1314 1376h-1154v-631h747q15 0 15 -15v-27q0 -15 -15 -15h-747v-631h1154q16 0 16 -15v-27q0 -15 -16 -15h-1196q-16 0 -16 15v1402q0 16 16 16h1196q16 0 16 -16v-26q0 -15 -16 -15z" />
    <glyph glyph-name="e" unicode="&#xeb;" 
d="M1314 1376h-1154v-631h747q15 0 15 -15v-27q0 -15 -15 -15h-747v-631h1154q16 0 16 -15v-27q0 -15 -16 -15h-1196q-16 0 -16 15v1402q0 16 16 16h1196q16 0 16 -16v-26q0 -15 -16 -15z" />
    <glyph glyph-name="e" unicode="&#xea;" 
d="M1314 1376h-1154v-631h747q15 0 15 -15v-27q0 -15 -15 -15h-747v-631h1154q16 0 16 -15v-27q0 -15 -16 -15h-1196q-16 0 -16 15v1402q0 16 16 16h1196q16 0 16 -16v-26q0 -15 -16 -15z" />
    <glyph glyph-name="e" unicode="&#xe9;" 
d="M1314 1376h-1154v-631h747q15 0 15 -15v-27q0 -15 -15 -15h-747v-631h1154q16 0 16 -15v-27q0 -15 -16 -15h-1196q-16 0 -16 15v1402q0 16 16 16h1196q16 0 16 -16v-26q0 -15 -16 -15z" />
    <glyph glyph-name="e" unicode="&#xe8;" 
d="M1314 1376h-1154v-631h747q15 0 15 -15v-27q0 -15 -15 -15h-747v-631h1154q16 0 16 -15v-27q0 -15 -16 -15h-1196q-16 0 -16 15v1402q0 16 16 16h1196q16 0 16 -16v-26q0 -15 -16 -15z" />
    <glyph glyph-name="f" unicode="f" 
d="M118 1433h1196q16 0 16 -16v-26q0 -15 -16 -15h-1154v-631h747q15 0 15 -15v-27q0 -15 -15 -15h-747v-673q0 -15 -16 -15h-26q-16 0 -16 15v1402q0 16 16 16z" />
    <glyph glyph-name="g" unicode="g" 
d="M819 0q-141 0 -272.5 53.5t-234.5 156.5q-137 137 -186 321.5t0 369.5t186 322q99 99 226.5 153.5t267.5 56.5q139 2 268.5 -47t231.5 -144q3 -3 6.5 -6t7 -7t5.5 -6q5 -5 5 -11t-5 -11l-19 -18q-11 -11 -22 0l-6 6t-6.5 7t-5.5 5q-93 87 -212 131.5t-248 42.5
q-128 -2 -245.5 -52t-208.5 -141q-126 -126 -171 -296t0 -340t171 -296q91 -91 208.5 -141t245.5 -52t247 43t213 132l6 6v492q0 15 16 15h26q16 0 16 -15v-509q0 -1 -0.5 -1t-0.5 -1v-1v-2l-1 -1v-1l-1 -2l-2 -2l-19 -19q-5 -5 -8 -7q-100 -91 -224 -137.5t-255 -46.5z" />
    <glyph glyph-name="h" unicode="h" 
d="M118 0q-16 0 -16 15v1402q0 16 16 16h26q16 0 16 -16v-672h1113v672q0 16 15 16h26q16 0 16 -16v-1402q0 -15 -16 -15h-26q-15 0 -15 15v673h-1113v-673q0 -15 -16 -15h-26z" />
    <glyph glyph-name="i" unicode="i" horiz-adv-x="264" 
d="M118 0q-16 0 -16 15v1402q0 16 16 16h26q16 0 16 -16v-1402q0 -15 -16 -15h-26z" />
    <glyph glyph-name="i" unicode="&#xef;" horiz-adv-x="264" 
d="M118 0q-16 0 -16 15v1402q0 16 16 16h26q16 0 16 -16v-1402q0 -15 -16 -15h-26z" />
    <glyph glyph-name="i" unicode="&#xee;" horiz-adv-x="264" 
d="M118 0q-16 0 -16 15v1402q0 16 16 16h26q16 0 16 -16v-1402q0 -15 -16 -15h-26z" />
    <glyph glyph-name="i" unicode="&#xed;" horiz-adv-x="264" 
d="M118 0q-16 0 -16 15v1402q0 16 16 16h26q16 0 16 -16v-1402q0 -15 -16 -15h-26z" />
    <glyph glyph-name="i" unicode="&#xec;" horiz-adv-x="264" 
d="M118 0q-16 0 -16 15v1402q0 16 16 16h26q16 0 16 -16v-1402q0 -15 -16 -15h-26z" />
    <glyph glyph-name="j" unicode="j" 
d="M126 191l-19 19q-5 5 -5 11t5 11l19 18q11 11 22 0l7 -7l3.5 -3.5t4 -4.5t3.5 -3q94 -87 213 -132t247 -43t245.5 52t208.5 141q93 94 143 214t50 252v660h-492q-16 0 -16 15v26q0 16 16 16h533q16 0 16 -16v-701q0 -143 -54.5 -274t-155.5 -232q-103 -103 -234.5 -156.5
t-272.5 -53.5q-131 0 -254.5 46.5t-224.5 137.5q-5 5 -8 7z" />
    <glyph glyph-name="k" unicode="k" 
d="M103 13v1h-1v1v1402q0 16 16 16h26q16 0 16 -16v-1327l527 636l17 21l564 680q4 6 12 6h34q9 0 14 -9q5 -8 -2 -17l-573 -691l573 -691q7 -8 2 -16q-5 -9 -14 -9h-34q-8 0 -12 6l-552 666l-552 -666q-4 -6 -12 -6h-34h-2l-2 1h-1q-2 0 -3 1h-1q-1 0 -1 1t-1 2l-1 1l-2 2
v1q-1 1 -1 4z" />
    <glyph glyph-name="l" unicode="l" 
d="M118 0q-16 0 -16 15v1402q0 16 16 16h26q16 0 16 -16v-1360h1154q16 0 16 -15v-27q0 -15 -16 -15h-1196z" />
    <glyph glyph-name="m" unicode="m" horiz-adv-x="1638" 
d="M118 0q-16 0 -16 15v1402q0 1 0.5 1t0.5 1v1q0 3 1 4v0l1 1q1 1 1 2v1l2 1q1 1 2 1q2 2 3 2h1h2l2 1h26h8q8 0 12 -6l655 -789l655 789q4 6 12 6h7h27l2 -1h2h1q2 0 3 -1v-1l1 -1q1 -1 2 -1l1 -1q1 -1 1 -2l1 -1v-2l1 -2v-1v-2v-1402q0 -15 -15 -15h-27q-15 0 -15 15
v1328l-528 -636l-17 -21l-102 -124q-5 -6 -12 -6t-12 6l-17 21h-1l-102 124l-527 636v-1328q0 -15 -16 -15h-26z" />
    <glyph glyph-name="n" unicode="n" 
d="M118 0q-16 0 -16 15v1402q0 1 0.5 1t0.5 1v1q0 3 1 4v0l1 1q1 1 1 2l1 1l2 2l1 1q1 1 3 1h1h2l2 1h34q8 0 12 -6l581 -701l528 -636v1327q0 16 15 16h26q16 0 16 -16v-1402v-1v-1q0 -3 -1 -4h-1v-1l-2 -2v-1l-3 -3h-1q-1 -1 -3 -1h-1l-2 -1h-2h-26h-8q-8 0 -12 6
l-564 680l-17 21l-527 636v-1328q0 -15 -16 -15h-26z" />
    <glyph glyph-name="n" unicode="&#xf1;" 
d="M118 0q-16 0 -16 15v1402q0 1 0.5 1t0.5 1v1q0 3 1 4v0l1 1q1 1 1 2l1 1l2 2l1 1q1 1 3 1h1h2l2 1h34q8 0 12 -6l581 -701l528 -636v1327q0 16 15 16h26q16 0 16 -16v-1402v-1v-1q0 -3 -1 -4h-1v-1l-2 -2v-1l-3 -3h-1q-1 -1 -3 -1h-1l-2 -1h-2h-26h-8q-8 0 -12 6
l-564 680l-17 21l-527 636v-1328q0 -15 -16 -15h-26z" />
    <glyph glyph-name="o" unicode="o" horiz-adv-x="1638" 
d="M819 0q-146 0 -278.5 57t-228.5 152.5t-153 228.5t-57 278t57 278t153 229t229 153t278 57t278 -57t228.5 -153t152.5 -228.5t57 -278.5q0 -194 -96 -359t-261 -261t-359 -96zM819 1376q-134 0 -256 -52.5t-210 -141t-140.5 -210.5t-52.5 -256q0 -179 88.5 -330.5
t240 -240t330.5 -88.5t330.5 88.5t240 240t88.5 330.5q0 134 -52.5 256t-140.5 210.5t-210 141t-256 52.5z" />
    <glyph glyph-name="o" unicode="&#xf8;" horiz-adv-x="1638" 
d="M819 0q-146 0 -278.5 57t-228.5 152.5t-153 228.5t-57 278t57 278t153 229t229 153t278 57t278 -57t228.5 -153t152.5 -228.5t57 -278.5q0 -194 -96 -359t-261 -261t-359 -96zM819 1376q-134 0 -256 -52.5t-210 -141t-140.5 -210.5t-52.5 -256q0 -179 88.5 -330.5
t240 -240t330.5 -88.5t330.5 88.5t240 240t88.5 330.5q0 134 -52.5 256t-140.5 210.5t-210 141t-256 52.5z" />
    <glyph glyph-name="o" unicode="&#xf6;" horiz-adv-x="1638" 
d="M819 0q-146 0 -278.5 57t-228.5 152.5t-153 228.5t-57 278t57 278t153 229t229 153t278 57t278 -57t228.5 -153t152.5 -228.5t57 -278.5q0 -194 -96 -359t-261 -261t-359 -96zM819 1376q-134 0 -256 -52.5t-210 -141t-140.5 -210.5t-52.5 -256q0 -179 88.5 -330.5
t240 -240t330.5 -88.5t330.5 88.5t240 240t88.5 330.5q0 134 -52.5 256t-140.5 210.5t-210 141t-256 52.5z" />
    <glyph glyph-name="o" unicode="&#xf5;" horiz-adv-x="1638" 
d="M819 0q-146 0 -278.5 57t-228.5 152.5t-153 228.5t-57 278t57 278t153 229t229 153t278 57t278 -57t228.5 -153t152.5 -228.5t57 -278.5q0 -194 -96 -359t-261 -261t-359 -96zM819 1376q-134 0 -256 -52.5t-210 -141t-140.5 -210.5t-52.5 -256q0 -179 88.5 -330.5
t240 -240t330.5 -88.5t330.5 88.5t240 240t88.5 330.5q0 134 -52.5 256t-140.5 210.5t-210 141t-256 52.5z" />
    <glyph glyph-name="o" unicode="&#xf4;" horiz-adv-x="1638" 
d="M819 0q-146 0 -278.5 57t-228.5 152.5t-153 228.5t-57 278t57 278t153 229t229 153t278 57t278 -57t228.5 -153t152.5 -228.5t57 -278.5q0 -194 -96 -359t-261 -261t-359 -96zM819 1376q-134 0 -256 -52.5t-210 -141t-140.5 -210.5t-52.5 -256q0 -179 88.5 -330.5
t240 -240t330.5 -88.5t330.5 88.5t240 240t88.5 330.5q0 134 -52.5 256t-140.5 210.5t-210 141t-256 52.5z" />
    <glyph glyph-name="o" unicode="&#xf3;" horiz-adv-x="1638" 
d="M819 0q-146 0 -278.5 57t-228.5 152.5t-153 228.5t-57 278t57 278t153 229t229 153t278 57t278 -57t228.5 -153t152.5 -228.5t57 -278.5q0 -194 -96 -359t-261 -261t-359 -96zM819 1376q-134 0 -256 -52.5t-210 -141t-140.5 -210.5t-52.5 -256q0 -179 88.5 -330.5
t240 -240t330.5 -88.5t330.5 88.5t240 240t88.5 330.5q0 134 -52.5 256t-140.5 210.5t-210 141t-256 52.5z" />
    <glyph glyph-name="o" unicode="&#xf2;" horiz-adv-x="1638" 
d="M819 0q-146 0 -278.5 57t-228.5 152.5t-153 228.5t-57 278t57 278t153 229t229 153t278 57t278 -57t228.5 -153t152.5 -228.5t57 -278.5q0 -194 -96 -359t-261 -261t-359 -96zM819 1376q-134 0 -256 -52.5t-210 -141t-140.5 -210.5t-52.5 -256q0 -179 88.5 -330.5
t240 -240t330.5 -88.5t330.5 88.5t240 240t88.5 330.5q0 134 -52.5 256t-140.5 210.5t-210 141t-256 52.5z" />
    <glyph glyph-name="p" unicode="p" 
d="M118 0q-16 0 -16 15v1402q0 16 16 16h695q140 0 259 -69.5t188.5 -188.5t69.5 -259t-69.5 -259t-188.5 -188.5t-259 -69.5h-653v-384q0 -15 -16 -15h-26zM813 456q125 0 231 61.5t167.5 167.5t61.5 231t-61.5 231t-167.5 167.5t-231 61.5h-653v-920h653z" />
    <glyph glyph-name="q" unicode="q" horiz-adv-x="1638" 
d="M497 77q-179 90 -287 261.5t-108 377.5q0 145 57 278t153 229t229 153t278 57t278 -57t228.5 -153t152.5 -228.5t57 -278.5q0 -194 -96 -359t-261 -261t-359 -96h-3q14 -10 26 -23q93 -93 223 -93t223 93q4 4 11 4t11 -4l18 -19q11 -11 0 -22q-109 -109 -263 -109
q-155 0 -264 109q-60 60 -142 82l-12 3q-31 7 -69 7q-131 0 -223 -92q-5 -5 -11 -5q-5 0 -10 5l-19 19q-11 11 0 22q77 77 182 100zM819 1376q-134 0 -256 -52.5t-210 -141t-140.5 -210.5t-52.5 -256q0 -232 144 -411t365 -230q79 -18 150 -18q179 0 330.5 88.5t240 240
t88.5 330.5q0 134 -52.5 256t-140.5 210.5t-210 141t-256 52.5z" />
    <glyph glyph-name="r" unicode="r" 
d="M118 0q-16 0 -16 15v1402q0 1 0.5 1t0.5 1v1q0 3 1 4v0l1 1q1 1 1 2l1 1l2 2l1 1q1 1 3 1h1h2l2 1h695q140 0 259 -69.5t188.5 -188.5t69.5 -259q0 -164 -93 -297t-246 -189l335 -405q7 -8 2 -16q-5 -9 -14 -9h-34q-8 0 -12 6l-337 406q-56 -13 -118 -13h-653v-384
q0 -15 -16 -15h-26zM813 1376h-653v-920h653q50 0 102 11q8 2 13 3q2 0 7 2t7 2q146 43 238.5 166.5t92.5 275.5q0 125 -61.5 231t-167.5 167.5t-231 61.5z" />
    <glyph glyph-name="s" unicode="s" 
d="M957 57q131 0 223.5 92.5t92.5 222.5t-92.5 223t-223.5 93h-482q-154 0 -263.5 109t-109.5 263t109.5 263.5t263.5 109.5h482q154 0 263.5 -109.5t109.5 -263.5q0 -15 -16 -15h-26q-15 0 -15 15q0 130 -92.5 223t-223.5 93h-482q-130 0 -222.5 -92.5t-92.5 -223.5
q0 -130 92 -222.5t223 -92.5h482q154 0 263.5 -109.5t109.5 -263.5t-109.5 -263t-263.5 -109h-482q-154 0 -263.5 109t-109.5 263q0 16 16 16h26q16 0 16 -16q0 -130 92 -222.5t223 -92.5h482z" />
    <glyph glyph-name="t" unicode="t" 
d="M118 1376q-16 0 -16 15v26q0 16 16 16h1196q16 0 16 -16v-26q0 -15 -16 -15h-569v-1361q0 -15 -16 -15h-26q-15 0 -15 15v1361h-570z" />
    <glyph glyph-name="u" unicode="u" 
d="M716 0q-166 0 -307.5 82.5t-224 224t-82.5 307.5v803q0 16 16 16h26q16 0 16 -16v-803q0 -151 74.5 -279.5t202.5 -203t279 -74.5q113 0 216 44t178 119t119 178t44 216v803q0 7 4 11q5 5 11 5h26q16 0 16 -16v-803q0 -166 -82.5 -307.5t-224 -224t-307.5 -82.5z" />
    <glyph glyph-name="u" unicode="&#xfc;" 
d="M716 0q-166 0 -307.5 82.5t-224 224t-82.5 307.5v803q0 16 16 16h26q16 0 16 -16v-803q0 -151 74.5 -279.5t202.5 -203t279 -74.5q113 0 216 44t178 119t119 178t44 216v803q0 7 4 11q5 5 11 5h26q16 0 16 -16v-803q0 -166 -82.5 -307.5t-224 -224t-307.5 -82.5z" />
    <glyph glyph-name="u" unicode="&#xfb;" 
d="M716 0q-166 0 -307.5 82.5t-224 224t-82.5 307.5v803q0 16 16 16h26q16 0 16 -16v-803q0 -151 74.5 -279.5t202.5 -203t279 -74.5q113 0 216 44t178 119t119 178t44 216v803q0 7 4 11q5 5 11 5h26q16 0 16 -16v-803q0 -166 -82.5 -307.5t-224 -224t-307.5 -82.5z" />
    <glyph glyph-name="u" unicode="&#xfa;" 
d="M716 0q-166 0 -307.5 82.5t-224 224t-82.5 307.5v803q0 16 16 16h26q16 0 16 -16v-803q0 -151 74.5 -279.5t202.5 -203t279 -74.5q113 0 216 44t178 119t119 178t44 216v803q0 7 4 11q5 5 11 5h26q16 0 16 -16v-803q0 -166 -82.5 -307.5t-224 -224t-307.5 -82.5z" />
    <glyph glyph-name="u" unicode="&#xf9;" 
d="M716 0q-166 0 -307.5 82.5t-224 224t-82.5 307.5v803q0 16 16 16h26q16 0 16 -16v-803q0 -151 74.5 -279.5t202.5 -203t279 -74.5q113 0 216 44t178 119t119 178t44 216v803q0 7 4 11q5 5 11 5h26q16 0 16 -16v-803q0 -166 -82.5 -307.5t-224 -224t-307.5 -82.5z" />
    <glyph glyph-name="v" unicode="v" 
d="M688 9l-584 1402q-4 9 1 15q5 7 13 7h28q12 0 15 -10l555 -1333l556 1333q3 10 14 10h28q8 0 13 -7t2 -15l-584 -1402h-1q0 -1 -0.5 -1t-0.5 -1v-1l-1 -1l-2 -2l-2 -1h-1l-1 -1h-1q-1 0 -3 -0.5l-2 -0.5h-28h-2l-2 1h-2l-1 1h-1l-1 1l-2 2l-1 1l-1 1q0 1 -0.5 1t-0.5 1z
" />
    <glyph glyph-name="w" unicode="w" horiz-adv-x="1949" 
d="M688 9l-584 1402q-4 9 1 15q5 7 13 7h28q12 0 15 -10l555 -1333l227 544l-324 777q-3 8 2 15t13 7h28q11 0 14 -10l298 -714l298 714q3 10 14 10h28q8 0 13 -7t2 -15l-324 -777l227 -544l555 1333q3 10 15 10h28q8 0 13 -7t2 -15l-585 -1402q0 -1 -0.5 -1t-0.5 -1l-1 -1
l-1 -1l-2 -2l-1 -1h-1l-1 -1h-2l-2 -1h-2h-28h-2q-2 1 -3 1h-1l-1 1h-1l-2 1l-2 2l-1 1v1q0 1 -0.5 1t-0.5 1h-1l-229 551l-229 -551h-1q0 -1 -0.5 -1t-0.5 -1v-1l-1 -1l-2 -2l-2 -1h-1l-1 -1h-1q-1 0 -3 -0.5l-2 -0.5h-28h-2l-2 1h-2l-1 1h-1l-1 1l-2 2l-1 1l-1 1
q0 1 -0.5 1t-0.5 1z" />
    <glyph glyph-name="x" unicode="x" 
d="M104 9q-5 8 2 16l573 691l-573 691q-7 9 -2 17q5 9 14 9h34q8 0 12 -6l552 -666l552 666q4 6 12 6h34q9 0 14 -9q5 -8 -2 -17l-573 -691l573 -691q7 -8 2 -16q-5 -9 -14 -9h-34q-8 0 -12 6l-552 666l-552 -666q-4 -6 -12 -6h-34q-9 0 -14 9z" />
    <glyph glyph-name="y" unicode="y" 
d="M688 473l-583 936q-5 9 -1 16q5 8 14 8h31q9 0 13 -7l554 -891l554 891q4 7 13 7h31q9 0 14 -8t0 -16l-583 -936v-458q0 -15 -16 -15h-26q-15 0 -15 15v458z" />
    <glyph glyph-name="y" unicode="&#xff;" 
d="M688 473l-583 936q-5 9 -1 16q5 8 14 8h31q9 0 13 -7l554 -891l554 891q4 7 13 7h31q9 0 14 -8t0 -16l-583 -936v-458q0 -15 -16 -15h-26q-15 0 -15 15v458z" />
    <glyph glyph-name="y" unicode="&#xfd;" 
d="M688 473l-583 936q-5 9 -1 16q5 8 14 8h31q9 0 13 -7l554 -891l554 891q4 7 13 7h31q9 0 14 -8t0 -16l-583 -936v-458q0 -15 -16 -15h-26q-15 0 -15 15v458z" />
    <glyph glyph-name="z" unicode="z" 
d="M118 1376q-16 0 -16 15v26q0 16 16 16h1170h26q9 0 14 -9q5 -8 -2 -17l-1119 -1350h1107q16 0 16 -15v-27q0 -15 -16 -15h-1162h-34q-9 0 -14 9q-5 8 2 16l1120 1351h-1108z" />
    <glyph glyph-name="nonbreakingspace" unicode="&#xa0;" horiz-adv-x="712" 
 />
    <glyph glyph-name="softhyphen" unicode="&#xad;" horiz-adv-x="0" 
 />
    </font>
</defs>
</svg>
