<?xml version="1.0" standalone="no"?>
<!DOCTYPE svg PUBLIC "-//W3C//DTD SVG 1.1//EN" "http://www.w3.org/Graphics/SVG/1.1/DTD/svg11.dtd" >
<svg xmlns="http://www.w3.org/2000/svg" xmlns:xlink="http://www.w3.org/1999/xlink" version="1.1">
<metadata>
Created by FontForge 20170731 at Fri Jul 18 20:30:42 2008
 By Aleksey,,,
2003 B.O.Nelson_BrainEaters.com_FREEware,                                        NOT Public Domain
</metadata>
<defs>
<font id="Corrupter" horiz-adv-x="720" >
  <font-face 
    font-family="Corrupter"
    font-weight="400"
    font-stretch="normal"
    units-per-em="1000"
    panose-1="0 0 4 0 0 0 0 0 0 0"
    ascent="800"
    descent="-200"
    x-height="520"
    cap-height="728"
    bbox="-23.3333 -206 1758 1013"
    underline-thickness="20"
    underline-position="-163"
    unicode-range="U+0020-F000"
  />
<missing-glyph horiz-adv-x="500" 
d="M63 0v800h375v-800h-375zM125 63h250v675h-250v-675z" />
    <glyph glyph-name=".notdef" horiz-adv-x="500" 
d="M63 0v800h375v-800h-375zM125 63h250v675h-250v-675z" />
    <glyph glyph-name=".null" horiz-adv-x="0" 
 />
    <glyph glyph-name="nonmarkingreturn" 
 />
    <glyph glyph-name="space" unicode=" " 
 />
    <glyph glyph-name="exclam" unicode="!" 
d="M429 716l-17 -351q-4 -80 -27 -80q-19 0 -46 9q-31 11 -31 23l-16 347q-4 89 20 89h49q21 0 42 -10q27 -11 26 -27zM429 29q0 -13 -20.5 -21t-38.5 -8h-21q-18 0 -37 7q-22 9 -22 22v26q0 20 7 44q8 31 21 31h42h41q13 -1 21 -31q7 -24 7 -44v-26z" />
    <glyph glyph-name="quotedbl" unicode="&#x22;" horiz-adv-x="469" 
d="M397 466h-83v143v32q-9 23 -30 86h145q1 -35 -14 -121q-16 -98 -18 -140zM150 466h-82q0 17 -3 75q-4 62 -4 97q0 54 7 89h152l-49 -89z" />
    <glyph glyph-name="numbersign" unicode="#" 
d="M524 729q22 0 13 -85l-12 -102h38q23 0 23 -59q0 -11 -26 -13.5t-27 -10.5l-29 -124l34 -19l70 -13q7 -1 7 -8q0 -5 -5 -20.5t-5 -22.5q0 -18 -24 -67q-25 -52 -37 -52h-83l-15 -50q-10 -33 -42 -33q-8 0 -8 20q0 12 6 57q5 36 1 41l-36 48h-82l-24 -133
q-2 -11 -24.5 -22t-40.5 -11q-22 0 -12 83l12 100h-39q-6 0 -11 18q-5 22 -6.5 24t-1.5 63q0 11 24 11q30 -1 34 2l18 11l10 97h-57q-23 0 -23 59q0 11 31 15q36 3 41 9l20 25l18 129q1 11 23 22t40 11q8 0 8 -24q0 -15 -4.5 -53.5t-4.5 -49.5q0 -9 2 -11l36 -49h82l23 154
q2 11 24.5 22t40.5 11zM429 459h-118l-20 -143h118z" />
    <glyph glyph-name="dollar" unicode="$" 
d="M400 728v-49q54 -5 73 -8q43 -8 68 -25q43 -28 43 -112v-17h-103q0 -3 3 41q2 21 -5.5 26.5t-33.5 3.5q-43 -3 -45 -3v-173q49 -16 97 -32q56 -20 79.5 -36.5t26.5 -48.5q0 2 0 -68q0 -10 1 -32t1 -32q0 -57 -29 -80t-70 -29q-22 -3 -76 -3v-51h-140v51h-19q-44 0 -60 2
q-30 5 -56 23q-39 26 -39 148v19h103q0 -8 -2 -24t-2 -23q0 -15 8.5 -20.5t21.5 -4.5q26 4 31 4h14v164q-22 6 -69 23q-36 16 -66 37q-39 26 -39 118q0 14 -2.5 39.5t-2.5 35.5q0 40 33 57q57 30 176 30v49h80zM420 310v-135q10 0 22.5 -3t17.5 -3q8 0 18 6.5t10 15.5
q0 2 -1.5 11.5t-1.5 17.5v35q-1 16 -11.5 24t-21.5 16t-32 15zM320 433v152q-97 0 -114 -8q-8 -4 -8 -16q0 -6 3 -22t3 -25q0 -44 18 -54q28 -6 98 -27z" />
    <glyph glyph-name="percent" unicode="%" 
d="M432 110q0 -30 6 -43q9 -18 36 -18q28 0 36 18q6 11 6 43q0 33 -5 45q-9 19 -37 19t-37 -19q-5 -12 -5 -45zM585 110q0 -50 -31 -84.5t-80 -34.5t-79.5 34.5t-30.5 84.5q0 53 29 87.5t81 34.5q51 0 81 -35t30 -87zM528 728h49v-58l-386 -670h-54v54zM202 619q0 -30 6 -43
q9 -18 36 -18q28 0 36 18q6 11 6 43q0 33 -5 45q-9 19 -37 19t-37 -19q-5 -12 -5 -45zM355 619q0 -50 -31 -84.5t-80 -34.5q-50 0 -80.5 34t-30.5 85q0 52 30 87t81 35t81 -35t30 -87z" />
    <glyph glyph-name="ampersand" unicode="&#x26;" 
d="M673 0q0 -6 -38 -6q-27 0 -75 3t-49 3q-10 0 -25 16l-32 35q-27 -18 -42 -26q-28 -16 -44 -18q-23 -12 -56 -9q-12 -2 -59 2t-55 8q-45 4 -82 51q-30 36 -23 107q-4 14 -1 46q2 33 9 43q4 43 55 76q3 4 36 19q29 13 25 21q-1 1 -45 67q-38 57 -39 69q-5 8 -5 21
q1 20 1 24l-7 31q-6 28 -6 39q0 8 3 9q-6 40 45 66q44 22 103 22q16 0 31 -2q6 3 22 3q24 0 54.5 -6.5t39.5 -14.5q66 -10 89 -80q2 -8 2 -16q0 -25 -19 -61q-24 -46 -28 -59l-14 -46q-4 -10 -15 -23q-15 -16 -18 -21l-27 -40l109 -131q6 10 14 26q4 11 17 41q1 0 3 6t3 6
q14 0 42 -6q33 -7 34 -14q1 -3 1 -14q0 -33 -21 -78q-8 -27 -22 -47l21 -25q88 -106 88 -117zM350 620q-11 10 -73 10q-43 0 -44 -8q-16 0 -16 -19q0 -9 4.5 -31t5.5 -31q-1 -19 2 -32q3 -9 44 -47q46 -43 48 -45q5 4 69 104q3 5 6 27t0 25q2 17 2 24q0 16 -8.5 19t-39.5 4z
M381 163l-99 122l-32 -24q-21 -16 -21 -28q0 -6 -3 -20.5t-3 -20.5q0 -9 5 -12q0 -21 20 -30t57 -7q4 -2 29 -1q24 2 30 3q6 8 17 18z" />
    <glyph glyph-name="quotesingle" unicode="'" horiz-adv-x="316" 
d="M40 727h248l-53 -112l-14 -232h-119l-17 252z" />
    <glyph glyph-name="parenleft" unicode="(" horiz-adv-x="308" 
d="M289 25q0 -10 -25.5 -18.5t-36.5 -6.5q-27 4 -53 37q-18 13 -57 61.5t-46 69.5q-60 77 -53 174q-1 4 -1 14q0 35 11 122l61 143q36 46 89 104q26 31 50 35q6 1 29 -2t26 -6.5t5.5 -26.5t0.5 -26q-3 -7 -17 -17.5t-19 -16.5q-21 -21 -111 -159l-22 -88q10 -45 30 -114
q5 -19 10.5 -38t20.5 -35q4 -8 34 -25q37 -20 52 -34q27 -25 26 -59q3 -4 0 -43q-4 -50 -4 -45z" />
    <glyph glyph-name="parenright" unicode=")" horiz-adv-x="322" 
d="M299 342q1 -13 1 -25q0 -80 -54 -149q-7 -21 -46 -69.5t-57 -61.5q-25 -33 -52 -37q-12 -2 -37.5 6.5t-25.5 18.5q0 1 -1.5 29.5t-1.5 45.5q0 25 2 28q0 21 57 79q71 74 76.5 81t29.5 25q10 6 8 29q2 3 2 16q0 34 -15 119l-27 69q-44 54 -102 124q-12 8 -28 29
q-3 10 5.5 35.5t17.5 25.5q12 0 36 -6t30 -12q20 -6 100 -106l69 -150q15 -93 15 -130q0 -10 -2 -14z" />
    <glyph glyph-name="asterisk" unicode="*" horiz-adv-x="533" 
d="M26 544q0 12 17.5 44.5t27.5 32.5q12 0 40 -18l114 -73l-2 133q-1 18 4 36q7 23 19 23q19 0 45 -6q31 -8 31 -19l-5 -136l25 -8l26 23q5 4 24.5 13t25.5 9l24 2t36 1q18 -1 18 -7q0 -13 -11 -27l-64 -82l74 -75q23 -24 23 -35q0 -10 -50 -30.5t-63 -20.5q-12 0 -15 2
l-24 13l26 -103q3 -11 -26.5 -32.5t-44.5 -21.5q-12 0 -25 19t-17 33l-32 122l-81 -91q-37 -42 -45 -42q-11 0 -38 22.5t-27 33.5q0 9 18 24l18 24l106 107l-140 83q-32 19 -32 27z" />
    <glyph glyph-name="plus" unicode="+" horiz-adv-x="570" 
d="M547 341q0 -12 -25 -19q-19 -6 -35 -6h-138v-180q0 -11 -17.5 -18t-33.5 -7t-32 7q-19 7 -19 18v180h-138q-15 0 -35 6q-25 7 -25 19q0 17 8 46.5t17 29.5h173v135q0 17 6 35q7 23 19 23q19 0 45 -7q32 -8 32 -18v-168h173q9 0 17 -29.5t8 -46.5z" />
    <glyph glyph-name="comma" unicode="," horiz-adv-x="312" 
d="M262 155q5 0 11 -10q9 -13 11 -15q6 -5 8 -22q3 -16 0 -23l-102 -222q-6 -14 -25 -36q-22 -24 -34 -24q-20 0 -50 7q-36 8 -33 18l41 172l-44 50q-9 10 -9 53q0 13 15.5 32.5t25.5 19.5h185z" />
    <glyph glyph-name="hyphen" unicode="-" 
d="M574 338q0 -15 -133 -25q-127 -11 -148 -5l-117 27q-30 7 -30 43q0 42 30 42h368q14 0 23 -33q7 -26 7 -49z" />
    <glyph glyph-name="hyphen" unicode="&#x2010;" 
d="M574 338q0 -15 -133 -25q-127 -11 -148 -5l-117 27q-30 7 -30 43q0 42 30 42h368q14 0 23 -33q7 -26 7 -49z" />
    <glyph glyph-name="period" unicode="." 
d="M457 96q0 -5 -13 -12q-16 -8 -18 -10q-7 -10 -57 -10v0h-75q-7 0 -26 26q-5 8 -5 37v44q0 29 5 37q19 26 26 26h132q6 0 14 -15q6 -11 12 -23q5 -7 5 -45v-55z" />
    <glyph glyph-name="slash" unicode="/" 
d="M585 736q0 -12 -14 -38l-335 -680q-9 -18 -48 -18q-12 0 -32 7.5t-20 16.5q0 8 20 50l316 638q23 48 36 48q14 0 43 -7q34 -8 34 -17z" />
    <glyph glyph-name="zero" unicode="0" 
d="M115 527q-3 89 31 163q31 71 114 71q13 0 27 -1q11 5 42 5q50 0 116 -12t82 -24q24 -3 47 -39q37 -80 31 -163q4 -19 4 -99q0 -124 -9 -224q-11 -126 -31 -136q-3 -35 -46.5 -56t-88.5 -17q-10 -5 -48 -5q-53 0 -113 8q-64 9 -72 20q-28 2 -48 26.5t-21 55.5
q-22 26 -22 262q0 138 5 165zM433 319q2 55 1 88q-2 48 -8 84l-12 92q-12 64 -37 64q-9 0 -23.5 1t-20.5 1q-27 0 -32 -26q-1 -6 -12 -50q-8 -34 -8 -50q0 -305 16 -326q3 -5 7 -44q3 -34 13 -34q6 0 29 -8.5t31 -8.5q7 0 10 4q11 15 28 62t17 65.5t1 85.5z" />
    <glyph glyph-name="one" unicode="1" 
d="M530 25q-1 -12 -32.5 -19.5t-44.5 -5.5l-213 38q-7 2 -8 3q-1 0 0 4q1 7 1 13q0 17 9 59q11 47 19 50l73 36l-4 412l-134 -52q-29 -11 -45 -11q-12 0 -12 8q0 72 3 78t53.5 45.5t56.5 39.5h179l1 -193q2 0 5 -1q-4 -3 -7 -6q-6 -6 -6 -13q0 -4 2 -9l15 -192
q-3 -20 -9 -40l4 -47l48 -26v48q0 8 4 8l7.5 -2t13.5 -2q12 0 20 -18q5 -14 5 -28z" />
    <glyph glyph-name="two" unicode="2" 
d="M123 10v181q0 193 158 221q5 7 92.5 17t94.5 17t15 79q6 58 6 83q0 16 -101 35q-60 9 -120 19q-8 1 -24 5q-32 3 -115 -38q0 21 -1 42q2 43 4 46q47 44 104 44q9 0 17 -1q9 3 30 3q54 0 136 -15.5t97 -29.5q15 -3 29 -18l22 -30t22 -43q0 -6 -2 -15q4 -11 4 -32
q0 -46 -15.5 -108.5t-31.5 -78.5q-3 -18 -7 -19q-14 -4 -24 -12.5t-87 -19t-86 -18.5q-27 -6 -70 -41q-46 -37 -46 -59v-117l240 -10q9 0 17 -17t8 -31q0 -15 -8 -32t-17 -17z" />
    <glyph glyph-name="three" unicode="3" 
d="M553.5 53q-6.5 -20 -29.5 -32q-70 -37 -116 -37q-24 0 -47 9q-10 -2 -21 -2q-67 0 -98 49q-2 3 -2 11q0 18 10 42t17 23q4 10 19 10q17 0 64 -16.5t59 -16.5q34 0 66 40.5t32 80.5q0 56 -35 96t-80 42l-257 9q-37 1 -37 25q0 16 8 39.5t17 24.5l269 31q10 2 24.5 20
t20.5 38l34 117h-298q-15 0 -32 6q-22 7 -22 19q0 17 8 44.5t17 27.5h392q18 0 35 -31.5t17 -56.5q0 -8 -2 -13l-58 -154q-6 -15 -24 -43.5t-29 -38.5q21 -7 41 -14q28 -13 37 -35q3 -10 6 -21q1 -3 15 -14q44 -34 44 -131q0 -45 -11.5 -81.5t-29 -41.5t-24 -25z" />
    <glyph glyph-name="four" unicode="4" 
d="M601 232q0 -12 -30 -19q-23 -6 -40 -6v-182q0 -11 -31 -18q-26 -7 -45 -7q-24 0 -25 48l-4 117l-288 20l7 311v9q3 13 61 128q61 120 71 120q17 0 48.5 -8.5t29.5 -16.5l-110 -424h132l53 145l6 54q7 46 19 46q17 0 46.5 -8.5t29.5 -16.5v-220q56 0 63 -6.5t7 -65.5z" />
    <glyph glyph-name="five" unicode="5" 
d="M279 95q25 -8 54 -8q58 0 104.5 29.5t46.5 64.5q0 48 -34.5 119t-56.5 69l-209 -4l11 388h356q8 0 16.5 -27.5t8.5 -44.5q0 -12 -31 -19q-23 -6 -40 -6h-173l-48 -70l12 -120q133 0 157 -10q38 -2 68 -27q37 -29 41 -64q8 -13 16.5 -68t8.5 -90q0 -14 -1 -21q1 -9 1 -17
q0 -36 -24 -74q-36 -57 -84 -64q-27 -21 -130 -29q-59 -3 -117 -7q9 27 19 54q17 41 28 46z" />
    <glyph glyph-name="six" unicode="6" 
d="M606 146q2 -10 2 -19q0 -44 -42 -55q-14 -26 -102.5 -57t-149.5 -31q-33 0 -44 11q-19 -4 -36 -4q-53 0 -87 40t-34 99q0 11 2 21q-14 13 -14 81q0 97 22 232t43 159q1 10 51 70t62 60h58q13 0 38.5 -8.5t21.5 -16.5q-31 -53 -122 -132l-24 -194q8 3 70 7.5t106 4.5
q32 0 37 -3q72 3 86 -49q21 -12 41 -75t20 -109q0 -22 -5 -32zM216 243q0 -36 21 -71q23 -39 54 -39h32q27 -1 46 -1q135 0 135 34q0 39 -20 90q-23 58 -51 58q-45 0 -124 -20q-93 -24 -93 -51z" />
    <glyph glyph-name="seven" unicode="7" 
d="M606 602q0 -40 -2 -48q-4 -21 -21 -39q-2 -7 -47.5 -50t-49.5 -49q-15 -16 -25 -44q-33 -57 -83 -235q-6 -28 -22 -78q-2 0 -4.5 -29.5t-4.5 -29.5q-11 0 -19 38q-11 48 -12 49l-29 57l-16 60q-4 12 -4 22q0 23 21 53q5 24 54 88q62 81 64 84q14 20 28 39t22 42l18 49
q13 15 20 75h-263q0 -8 -21.5 -16.5t-34.5 -8.5t-34.5 8.5t-21.5 16.5v43q0 13 7 31q8 23 18 23h462v-151z" />
    <glyph glyph-name="eight" unicode="8" 
d="M637 145q-105 -151 -190 -151q-7 0 -13 1q-13 -8 -49 -8q-55 0 -123.5 16t-79.5 34q-28 4 -49.5 28.5t-21.5 55.5q0 13 4 26q-5 7 -5 19q0 29 41 107t40 100q2 5 2 11t-4 20q-2 11 -1 16q6 21 21 27q-10 9 -23.5 71.5t-13.5 103.5q0 27 7 32q-7 50 37 80q40 27 96 26
q7 6 68 3q60 -2 68 -8q34 -2 41 -30q10 -8 26 -90q16 -88 19 -93q17 -5 42 -30l15 -53l-31 -106l-31 -33l58 -20zM281 625q0 -27 19 -96q21 -75 37 -81q29 11 59 21q44 18 44 36q0 29 -19 90q-21 68 -37 68q-30 0 -60 -8q-43 -10 -43 -30zM469 217q0 111 -35 131l-74 -32
q-46 -23 -46 -47q0 -18 -12.5 -41.5t-12.5 -26.5q0 -7 13 -7q6 0 38 -2t52 -2q77 0 77 27z" />
    <glyph glyph-name="nine" unicode="9" 
d="M460 760q9 1 18 1q54 0 92.5 -37.5t38.5 -90.5q0 -13 -3 -27q14 -15 14 -64q0 -103 -49.5 -280t-86.5 -215q-4 -14 -18 -33.5t-22 -19.5q-5 0 -6 6l-18 69q-8 31 -8 30q0 9 6 18t21 40q4 8 30 34l-1 -1v161l-6 1q-7 -3 -68.5 -8t-103.5 -5q-34 0 -37 4q-61 -3 -103 40
t-36 102q-7 7 -7 42q0 40 7.5 91.5t15.5 60.5q1 14 12 27t25 15q13 14 98 31t145 17q40 0 50 -9zM505 512q0 41 -20 91q-22 60 -50 60q-52 0 -127 -20q-93 -23 -93 -54q0 -34 25.5 -69t55.5 -35q6 0 40 -1.5t56 -1.5q113 0 113 30z" />
    <glyph glyph-name="colon" unicode=":" horiz-adv-x="302" 
d="M256 30q0 -5 -14.5 -12.5t-16.5 -10.5q-7 -9 -58 -9h-74q-7 0 -26 26q-6 8 -6 37v44q0 29 6 36q19 27 26 27h131q7 0 15 -15q5 -11 11 -23q6 -7 6 -45v-55zM261 461q0 -5 -14 -12.5t-16 -9.5q-7 -10 -56 -10h-73q-7 0 -26 26q-5 8 -5 36v44q0 28 5 36q19 26 26 26h128
q6 0 14 -15l12 -22q5 -7 5 -45v-54z" />
    <glyph glyph-name="semicolon" unicode=";" horiz-adv-x="309" 
d="M261 461q0 -5 -14 -12.5t-16 -9.5q-7 -10 -56 -10h-73q-7 0 -26 26q-5 8 -5 36v44q0 28 5 36q19 26 26 26h128q6 0 14 -15l12 -22q5 -7 5 -45v-54zM262 155q5 0 11 -10q9 -13 11 -15q6 -5 8 -22q3 -16 0 -23l-102 -222q-6 -14 -25 -36q-22 -24 -34 -24q-20 0 -50 7
q-36 8 -33 18l41 172l-44 50q-9 10 -9 53q0 13 15.5 32.5t25.5 19.5h185z" />
    <glyph glyph-name="less" unicode="&#x3c;" horiz-adv-x="562" 
d="M551 -3q0 -12 -58 -12q-18 0 -39 17l-390 328q-13 9 -26 17q-18 14 -18 23q-1 27 18 38l444 254q32 19 42 19q9 0 19 -37q7 -31 8 -48q0 -14 -40 -37l-317 -183l340 -196q13 -8 17 -183z" />
    <glyph glyph-name="equal" unicode="=" 
d="M605 461q0 -12 -26 -19q-19 -6 -34 -6h-370q-15 0 -34 6q-25 7 -25 19q0 16 8 42t17 26h439q8 0 16.5 -26t8.5 -42zM605 194q0 -12 -26 -19q-19 -6 -34 -6h-370q-15 0 -34 6q-25 7 -25 19q0 21 7 66q9 52 18 52h439q8 0 17 -52q8 -45 8 -66z" />
    <glyph glyph-name="greater" unicode="&#x3e;" horiz-adv-x="562" 
d="M43 681q11 0 42 -19l444 -254q19 -11 19 -38q-1 -10 -20 -24l-28 -18l-416 -290q-26 -18 -41 -18q-9 0 -19 62q-8 53 -7 73q0 13 37 35l320 186l-318 183q-40 23 -39 37q0 17 8 48q9 37 18 37z" />
    <glyph glyph-name="question" unicode="?" horiz-adv-x="492" 
d="M465 545q2 -40 -15 -68q-9 -15 -48 -54q-2 -5 -77 -75q-71 -67 -71 -76v-39q0 -11 -31 -19q-26 -6 -45 -6q-2 0 -5.5 6t-4.5 6q-19 26 -10 58q-1 4 5.5 27t9.5 29q5 16 32 45q2 2 84 80q74 70 74 84q0 33 -5.5 43.5t-27.5 26t-34 15.5q-22 0 -42 -19q-31 -29 -32 -29
l-56 -84l-97 -39q-14 -6 -21 -6q-10 0 -17.5 11t-7.5 23q0 3 -2 32q-2 26 -1 41q0 22 5 28q1 32 58 96.5t92 76.5q6 7 56.5 24t61.5 17q13 0 43 -17t41 -27q15 -8 36.5 -27t24.5 -31q16 -15 22 -98q10 -43 5 -55zM264 25q0 -9 -43 -18q-36 -7 -53 -7q-9 0 -17 22t-8 35
t8 35.5t17 22.5l52 -2q32 0 38 -6.5t6 -81.5z" />
    <glyph glyph-name="at" unicode="@" 
d="M600 154q-5 -14 -7 -34q-5 -36 -23 -64q-39 -61 -110 -61q-55 0 -84 34q-4 5 -10 13q-2 -3 -5 -6q-37 -41 -94 -41q-71 0 -113.5 37.5t-38.5 100.5l9 146q4 62 29 104q32 55 91 55q12 0 25 -2q2 2 9 2q32 0 46 -12q-3 -32 -2 -91q1 -3 13 -2l16 1q63 -10 61 -33l-12 -124
q-4 -45 59 -45q36 0 48.5 13.5t13.5 54.5q4 203 -13 291q-2 38 -5 53q-4 27 -15 46q-36 59 -108 52q-6 3 -23 3q-60 0 -76 -14q-49 -6 -65 -56q-12 -34 -28 -34q-13 0 -36 5q-26 6 -28 13v9q0 65 55 113q63 55 153 47q11 4 46 0q32 -3 44 -8q32 0 65 -1q31 -4 48 -38.5
l34 -69t23 -73.5q0 -4 3 -35q0 -5 9 -12q32 -23 32 -152q0 -118 -16.5 -147.5t-19.5 -37.5zM331 179l-4 75q0 25 -9 56q-11 40 -28 40q-37 0 -40 -5q-39 -5 -38 -68l1 -72q0 -73 54 -73q67 0 64 47z" />
    <glyph glyph-name="A" unicode="A" horiz-adv-x="544" 
d="M508 107q3 -7 -29.5 -16t-46.5 -9t-37 63l-13 38h-205l-50 -183q-2 -8 -21 -16.5t-32 -8.5t-32.5 8.5t-17.5 16.5l188 668q17 60 35 60q17 0 51 -8q38 -9 41 -17l64 -232q11 5 22 5q27 0 36 -34q64 -184 69 -260q-3 -42 -31 -57q4 -17 7 -22q1 -3 2 0v4zM356 280l-75 282
h-2l-76 -282h153z" />
    <glyph glyph-name="B" unicode="B" 
d="M537 372q73 -49 73 -163q0 -92 -57 -149q-60 -60 -163 -60h-143v122l-121 26l-6 580h249q107 0 168 -53q66 -56 66 -164q0 -90 -66 -139zM374 652l-156 -3l3 -242l156 3q50 1 95.5 42t45.5 91q0 52 -45 83q-41 27 -99 26zM378 318h-141l2 -173h143q68 0 81 5q31 11 31 59
q0 59 -28 84t-88 25z" />
    <glyph glyph-name="C" unicode="C" 
d="M498 73q0 -69 -25 -78q-38 2 -67 4q-68 6 -77 13q-80 9 -115 98q-12 10 -37 78q-23 61 -27 84q-15 39 -15 90q0 68 18 108q5 30 32 96q31 73 48 83q40 88 123 88q16 0 32 -4q8 4 25 4q36 0 83.5 -14.5t55.5 -29.5q38 -9 38 -66q0 -12 -35 -21q-31 -8 -42 -4q-9 -4 -56 15
q-50 20 -63 20q-4 0 -6 -1q-11 2 -20 2q-32 0 -49 -38q-14 -8 -42 -76q-24 -62 -29 -88q-12 -29 -12 -72q0 -37 12 -66q5 -29 27 -89q26 -69 41 -77q17 -43 53 -43q9 0 21 4q2 -2 6 -2q8 0 27 12.5t27 12.5q4 0 8 -3q8 3 24 -12t16 -28z" />
    <glyph glyph-name="D" unicode="D" 
d="M596 356q0 -78 -24 -114q-6 -30 -46 -94q-41 -68 -64 -77q-46 -71 -176 -71h-122q-9 0 -17 21q-8 18 -8 34q0 13 8.5 30.5t16.5 23.5l24 18v504l-18 14q-11 7 -21 25.5t-10 32.5q0 25 40 25h105q125 0 175 -79q23 -10 65 -77q39 -64 45 -94q27 -40 27 -122zM494 356
q0 52 -19 83q-6 27 -40 86q-37 64 -56 72q-28 44 -58 44q-14 0 -25 -10l-6 -5l4 -458h19q44 0 76 32q24 10 54 38q34 31 38 53q13 13 13 65z" />
    <glyph glyph-name="E" unicode="E" 
d="M496 25q0 -12 -24 -19q-18 -6 -33 -6h-299v728h425q9 0 17 -27.5t8 -44.5q0 -12 -22 -19q-17 -6 -32 -6h-294v-211h205q9 0 17 -27.5t8 -44.5q0 -12 -31 -19q-23 -6 -41 -6h-158v-226h229q9 0 17 -27.5t8 -44.5z" />
    <glyph glyph-name="F" unicode="F" 
d="M590 656q0 -12 -20 -19q-15 -6 -29 -6l-274 1l3 -173l221 4q9 0 17 -30q8 -26 8 -42q0 -12 -20 -20q-16 -5 -30 -5h-200l-16 -290q-1 -17 -11 -44q-12 -32 -24 -32q-16 0 -33 7t-17 18v703h400q8 0 16.5 -27.5t8.5 -44.5z" />
    <glyph glyph-name="G" unicode="G" 
d="M595 95q0 -43 -45 -73t-101 -30q-16 0 -31 3q-11 -5 -32 -5q-35 0 -82.5 14t-60.5 26q-45 9 -90 83q-37 59 -33 139q-3 10 -3 44q0 130 13 162q4 73 49 119q6 16 50 62t59 51q44 45 96 45q13 0 27 -2q7 2 22 2q31 0 70 -9.5t47 -20.5q45 -9 45 -66v-5q0 -5 -28.5 -10.5
t-29.5 -7.5q-14 23 -59 20q-11 3 -51 0q-39 -3 -47 -7q-28 -2 -40 -9.5t-27 -30.5q-11 -7 -41 -57t-32 -65q-21 -34 -21 -78q0 -15 3 -30q-4 -19 -4 -46q0 -88 26 -105q11 -67 94 -62q7 -4 38 -4q76 0 83 12q12 1 24.5 16.5t12.5 30.5q0 5 -2 10l-26 51h-73q-13 0 -27 5
q-18 8 -18 20q0 16 8 42q8 30 17 30h220v-264z" />
    <glyph glyph-name="H" unicode="H" 
d="M585 116q0 -11 -17 -18t-34 -7q-16 0 -32 7q-19 7 -18 18l6 206h-260v-297q0 -11 -17.5 -18t-33.5 -7t-33 7t-17 18v678q0 11 31 19q26 6 45 6q12 0 19 -22q6 -17 6 -34v-253h260v253q0 17 6 34q7 22 19 22q19 0 45 -7q32 -7 32 -18z" />
    <glyph glyph-name="I" unicode="I" 
d="M570 25q0 -12 -20 -19q-16 -6 -30 -6h-320q-15 0 -30 6q-20 7 -20 19q0 17 8 44.5t17 27.5h134v534h-21q-14 0 -27 6q-16 7 -16 19q0 17 8 44.5t17 27.5h170q9 0 17 -27.5t8 -44.5q0 -12 -14.5 -18.5t-27.5 -6.5h-12v-534h134q9 0 17 -27.5t8 -44.5z" />
    <glyph glyph-name="J" unicode="J" 
d="M531 179q0 -65 -20 -102q-44 -87 -150 -82q-6 -2 -28 -1q-21 1 -26 4q-81 4 -123 68q-25 39 -25 95v101q0 11 31 19q26 6 45 6q25 0 25 -37v-84q0 -75 54 -75q8 0 17 2q3 -4 13 -4q34 0 41 13q44 7 44 78v356q0 17 6 34q7 21 19 21q19 0 45 -7q32 -8 32 -18v-387z" />
    <glyph glyph-name="K" unicode="K" 
d="M636 26q0 -9 -69 -18q-58 -8 -80 -8q-8 0 -48 36l-192 178v-190q0 -11 -30 -18q-24 -6 -43 -6q-16 0 -32 6q-19 8 -19 19v642q0 17 6 36q7 25 19 25q19 0 45 -6q32 -8 32 -19v-253l235 232q25 24 35 24q17 0 51 -7q40 -9 40 -19t-27 -36l-280 -272l327 -306
q30 -29 30 -40z" />
    <glyph glyph-name="L" unicode="L" horiz-adv-x="599" 
d="M484 27q0 -12 -57 -21q-47 -7 -66 -6l-241 12l19 691q0 11 32 18q25 7 45 7q11 0 28 -262l16 -274l13 -87l186 -44q25 -6 25 -34z" />
    <glyph glyph-name="M" unicode="M" 
d="M596 110q0 -10 -31 -18q-26 -7 -45 -7q-12 0 -20 24q-6 19 -5 36l7 458h-2l-77 -178l-2 -18q-3 -20 -14 -48q-14 -37 -26 -37q-16 0 -39 9q-26 10 -27 21l-4 22l-90 229h-2v-578q0 -11 -17.5 -18t-33.5 -7t-32 7q-19 7 -19 18v703h142l101 -218h1l100 218h142z" />
    <glyph glyph-name="N" unicode="N" 
d="M499 672q0 16 6 34q7 22 19 22q19 0 43 -6q29 -8 29 -19l-3 -691l-119 -12l-251 557v0h-2l-9 -373q-2 -58 -25 -58q-19 0 -43 6q-30 8 -29 19l9 577h126l248 -453z" />
    <glyph glyph-name="O" unicode="O" 
d="M360 733q92 0 127 -68q20 -11 57 -89q35 -72 40 -103q20 -38 20 -110q0 -73 -24 -119q-6 -31 -37 -97q-35 -73 -54 -83q-35 -69 -129 -69t-129 69q-19 10 -54 83q-31 66 -37 97q-23 46 -23 119q0 72 19 110q5 31 40 103q37 78 57 89q35 68 127 68zM502 361q0 53 -14 81
q-5 29 -36 94q-34 70 -52 80q-10 20 -40 20t-40 -20q-18 -10 -52 -80q-31 -65 -36 -94q-14 -28 -14 -80t-1 -36q1 -20 11 -31q4 -24 37 -58q29 -31 53 -43q18 -20 40 -20q21 0 39 20q25 12 56 43q35 34 39 58q10 11 11 31q-1 -21 -1 35z" />
    <glyph glyph-name="P" unicode="P" 
d="M611 473q1 -11 1 -21q0 -65 -55 -117q-52 -48 -152 -48h-169v-262q0 -11 -17.5 -18t-33.5 -7t-33 7t-17 18v610l98 23l32 69l150 1q67 0 111 -28q64 -43 71 -103q6 -8 11.5 -41t5.5 -59q0 -17 -3 -24zM510 472q7 3 7 22q0 23 -10.5 56t-18.5 37q-8 44 -80 44h-172v-204
h171q15 0 38 -2t31 -2q35 0 35 30q0 8 -1 19z" />
    <glyph glyph-name="Q" unicode="Q" 
d="M624 25q0 -12 -30 -20q-26 -6 -52 -6q-9 0 -13 1l-74 21l-31 63q-17 -14 -44 -30q-34 -20 -49 -19q-21 -11 -44 -11q-27 0 -67 17q-50 21 -81 79t-28 126q-4 19 -1 101q3 86 10 102q4 84 61 130q7 17 73.5 70t86.5 60q29 24 69 24q89 0 137 -75q42 -64 40 -156
q5 -7 5 -56q0 -107 -9 -129q-1 -71 -50 -123q-18 -17 -37 -38l31 -54l46 -22q12 -5 31.5 -24.5t19.5 -30.5zM213 381q-3 -9 -3 -28q0 -45 11 -96q14 -57 32 -70q5 -23 33 -23q40 0 46 19l9 31l-33 61q-22 38 -22 42q0 9 20 16.5t32 7.5q15 0 35.5 -11t27.5 -21l41 -58
q7 8 14 20q32 47 32 80q0 13 -2 27q2 9 2 30q0 53 -11 117q-13 72 -31 85q-4 26 -33 26q-17 0 -26 -10q-23 -9 -83 -73t-67 -88q-27 -29 -27 -63q0 -11 3 -21z" />
    <glyph glyph-name="R" unicode="R" 
d="M611 24q0 -10 -37 -17q-31 -7 -47 -7q-12 0 -30 28l-208 324h-52l-6 -207q-1 -11 -18 -18t-33 -7t-32 6q-19 8 -19 19l6 583h267q80 0 133 -44q58 -48 55 -127q4 -4 3 -28t-5 -28q-2 -52 -36 -87.5t-82 -41.5q-4 -4 -35 -7q-19 -2 -37 -3l189 -292q24 -37 24 -46z
M237 631l5 -140h149q15 0 40 -3.5t33 -3.5q26 0 26 24q0 7 -1 16q6 2 6 15q0 15 -7 34.5t-13 22.5q-7 35 -89 35h-149z" />
    <glyph glyph-name="S" unicode="S" 
d="M471 127q18 4 18 19q0 14 -10 25q-9 22 -76.5 94t-91 83t-84 74.5t-67.5 85.5q-22 25 -22 74q0 80 66 123q44 29 88 29q9 0 18 -1q5 1 16 1q32 0 87.5 -8t68.5 -16q40 -5 72.5 -42.5t32.5 -82.5q0 -35 -26 -35q-17 0 -44 6q-32 8 -31 17q0 29 -15.5 46.5t-41.5 17.5
q-7 0 -15 -1q-5 4 -21 4q-31 0 -78.5 -12t-57.5 -23q-18 -3 -18 -19q0 -18 16 -32.5t31 -27.5l202 -234q33 -32 67 -64q36 -36 36 -81q0 -66 -44 -109.5t-105 -43.5q-11 0 -22 1q-9 -7 -43 -7q-36 0 -66 7q-33 9 -29 20q-10 2 -10 10q0 10 15 34q19 28 21 34l84 12
q68 11 79 22z" />
    <glyph glyph-name="T" unicode="T" 
d="M489 631h-78v-606q0 -11 -32 -18q-26 -7 -45 -7q-12 0 -19 21q-6 17 -6 34v541l-48 35l-17 -18q-3 -3 -5 -3t-7 6.5t-14 6.5h-19q-5 2 -4 12l10 85l396 8l-5 -90z" />
    <glyph glyph-name="U" unicode="U" 
d="M598 199q0 -94 -45 -145q-53 -60 -128 -60q-11 0 -22 1q-10 -3 -31 -3q-33 0 -74 7t-51 14q-56 6 -98 72q-28 44 -27 114l6 378q1 54 25 54q20 0 46 -6q31 -8 31 -19l-2 -334q0 -113 70 -113q11 0 24 3q7 -8 28 -8q30 0 69.5 13.5t44.5 25.5q38 8 37 79l-4 403
q-1 16 5 32q8 21 20 21q19 0 45 -6q31 -8 31 -19v-504z" />
    <glyph glyph-name="V" unicode="V" 
d="M611 624q3 -6 -9 -41l-171 -522q-20 -61 -36 -61q-18 0 -53 6q-41 8 -43 16l-181 559q-13 39 -9 43l26 28q7 7 20 6q35 -2 26 -2q17 0 35 -61l22 -79l122 -372l74 191l50 271q4 23 20 67q19 55 31 55q31 0 42 -25z" />
    <glyph glyph-name="W" unicode="W" 
d="M230 632l-14 -247q0 -21 8 -72q9 -60 10.5 -77t15.5 -49.5t16 -47.5h2l17 38l24 240q1 16 10 32q10 21 22 21q15 0 38.5 -9.5t24.5 -19.5l29 -261l19 -41h23q7 19 16 45q13 115 13 459v60q0 11 32 19q25 6 45 6q12 0 18.5 -18.5t6.5 -34.5q5 -12 5 -105q0 -270 -14 -334
q-1 -9 -9 -39l-30 -102q-28 -95 -44 -95h-93q-12 0 -35 63q-21 54 -25 77h-2q-2 -13 -19.5 -43.5t-26.5 -40.5l-51 -56q-4 -4 -11 -4q-17 0 -49 22l-44 31q-7 4 -16 151q-8 131 -7 155l4 227q1 23 -4 34.5l-5 11.5q0 5 8 18z" />
    <glyph glyph-name="X" unicode="X" 
d="M606 24q0 -9 -38 -17q-32 -7 -47 -7q-14 0 -43 53l-118 220l-132 -248q-5 -9 -26 -17t-35 -8q-12 0 -31 7q-22 8 -22 17q0 7 15 35l175 310l-123 205q-15 25 -15 34q0 8 37 16q32 7 47 7q14 0 43 -51l67 -113l118 210q29 51 43 51q15 0 47 -7q38 -8 38 -16t-15 -35
l-171 -301l171 -310q15 -27 15 -35z" />
    <glyph glyph-name="Y" unicode="Y" 
d="M606 652l-195 -308v-319q0 -11 -17.5 -18t-33.5 -7t-33 7t-17 18v319l-93 162l-65 86q-1 2 -1 4q0 12 20.5 31t32.5 19q27 0 46 -28l35 -52l75 -120l114 174l11 56q3 15 15 33.5t24 18.5q35 0 50 -25z" />
    <glyph glyph-name="Z" unicode="Z" 
d="M533 27q0 -12 -24 -20q-17 -5 -33 -5l-382 -2l9 93l326 539l-239 -1q-15 0 -31 6q-20 7 -20 19q0 17 8 44.5t17 27.5h405v-72l-276 -511l210 -10q9 0 20 -48q10 -42 10 -60z" />
    <glyph glyph-name="bracketleft" unicode="[" 
d="M279 647v-503h263v-144h-366v741h366v-94h-263z" />
    <glyph glyph-name="backslash" unicode="\" 
d="M585 24q0 -9 -34 -17q-28 -7 -42 -7q-10 0 -36 15t-30 23l-295 662q-12 29 -12 35q0 8 33 17q29 8 44 8q12 0 35 -48l316 -638q21 -41 21 -50z" />
    <glyph glyph-name="bracketright" unicode="]" 
d="M439 144v503h-263v94h366v-741h-366v144h263z" />
    <glyph glyph-name="asciicircum" unicode="^" 
d="M589 360q0 -9 -22.5 -27.5t-30.5 -18.5q-14 0 -42 35l-143 180l-142 -180q-28 -35 -42 -35q-9 0 -31 18.5t-22 27.5q0 6 20 41l162 277q29 49 44 49q12 0 28 -7t22 -16l177 -300q22 -37 22 -44z" />
    <glyph glyph-name="underscore" unicode="_" 
d="M0 -173v103h719v-103h-719z" />
    <glyph glyph-name="grave" unicode="`" 
d="M151 1013h132l144 -280h-95z" />
    <glyph glyph-name="a" unicode="a" 
d="M576 151q0 -6 -20 -6q-14 0 -41.5 3t-30.5 3q-8 0 -9 -56q0 -24 1 -47q-15 -13 -50 -28t-56 -17q-21 -9 -50 -6q-8 -1 -38 2.5t-37 6.5q-48 6 -83 42q-41 42 -37 101q-2 6 -1 23t4 22q5 76 92 114q41 18 101 18h149v20q0 96 -59 96q-13 0 -30 -4q-4 4 -12 4
q-13 0 -52 -18t-49 -15q-14 -4 -48 3q-37 7 -36 21q1 52 45 76q36 19 90 16q8 5 33 5q66 0 88 -13q60 -4 100 -61q26 -37 29 -109zM439 239h-125q-38 0 -63 -14q-32 -17 -26 -50q-4 -3 -4 -14q0 -39 13 -46q5 -34 54 -34q6 0 11 2q6 -3 17 -3q21 0 49.5 7.5t34.5 14.5
q21 19 41 39q32 31 32 45v11q0 42 -34 42z" />
    <glyph glyph-name="b" unicode="b" 
d="M601 208q6 -90 -56 -144q-2 -7 -17 -19.5t-23 -15.5q-42 -37 -96 -34q-9 -2 -42 0q-34 2 -41 6q-37 2 -79 42q-4 2 -18 18l3 73q0 11 -14.5 21.5t-28.5 10.5q-39 0 -34 0q-18 1 -19 12l-6 522q-1 11 28 22t47 11q24 0 24 -78v-197l10 8q37 32 57 43q32 18 65 16q9 4 46 1
q35 -3 44 -7q27 -2 60 -31q21 -10 28 -24q46 -39 50 -93q15 -28 15 -129q0 -26 -3 -34zM377 178q9 -2 63 2q58 3 58 9q10 1 12 46q2 43 -3 58q2 32 -25 78q-8 26 -19 32q-3 5 -20 14.5t-24 11.5q-10 6 -21 5q-10 1 -34.5 -1.5t-30.5 -5.5q-22 -3 -37 -22q-9 -5 -27.5 -28.5
t-21.5 -33.5q-19 -25 -19 -48q0 -6 1 -12q-4 -12 1 -35.5t14 -29.5q3 -16 10 -16q15 -1 24 -7q5 0 49 -9t50 -8z" />
    <glyph glyph-name="c" unicode="c" 
d="M324 9q-57 6 -95 54q-7 4 -26.5 28t-22.5 32q-38 48 -35 115q-3 9 -1 43q1 33 5 41q4 75 54 117q4 8 29.5 29.5t34.5 23.5q42 35 85 35q14 0 30 -2q7 2 21 2q34 0 76 -9.5t52 -20.5q50 -10 53 -68q1 -14 -37 -22q-33 -6 -47 -2q-9 -3 -62.5 14.5t-62.5 14.5q-7 1 -13 1
q-32 0 -51 -25q-11 -4 -29 -28.5t-22 -37.5q-17 -23 -15 -52q-4 -12 -2 -54t7 -52q1 -21 21 -38q4 -7 23.5 -24.5t26.5 -21.5t26 -6t25 -9q5 -2 18 0q16 4 23 4q41 0 41 -70q0 -12 -1 -26q-57 3 -129 14z" />
    <glyph glyph-name="d" unicode="d" 
d="M591 169q0 -15 -44 -15q-7 0 -23 7t-21 7q-4 0 -5 -5l-8 -102q-9 -10 -24 -22q-54 -49 -104 -44q-6 -2 -20 -2q-54 0 -75 13q-42 4 -78 48q-5 3 -16 16t-13 18q-47 57 -40 123q-3 9 -3 32q0 37 6.5 83t13.5 58q6 56 61 94q3 4 15.5 12.5t17.5 9.5q39 27 66 27q10 0 20 -2
q5 1 12 1q46 0 105 -32q30 -9 48 -27l8 -8v196q0 78 24 78q18 0 45 -11q31 -11 31 -22zM474 186q20 3 16 47q4 13 1 56q-4 43 -11 53q-2 21 -26 38q-4 6 -24.5 21t-28.5 18q-25 18 -45 15q-9 3 -35 -1.5t-32 -9.5q-15 -2 -33 -25q-20 -16 -23 -29q-18 -24 -13 -76
q-4 -20 -3 -60q1 -49 13 -52q1 -15 46 -18q30 -1 60 -3q3 5 69.5 12t68.5 14z" />
    <glyph glyph-name="e" unicode="e" 
d="M238 316h242q0 49 -33 78.5t-83 29.5t-86 -28q-40 -31 -40 -80zM379 -9q-119 0 -181.5 68t-62.5 188q0 117 56 187q61 76 175 76q217 0 217 -249v-31q-114 -12 -160 0h-185q0 -70 38 -111.5t107 -41.5q31 0 52 7q0 -53 -5 -65q-9 -28 -51 -28z" />
    <glyph glyph-name="f" unicode="f" 
d="M406 501h55l7 -127h-55l-7 -374h-102l-6 371l-130 3l6 128l130 -1v24q0 203 190 203h53v-86h-23q-74 0 -96 -21.5t-22 -95.5v-24z" />
    <glyph glyph-name="g" unicode="g" 
d="M374 -102q3 14 22 14q5 0 15 -1t14 -1q10 0 15 4q8 1 19 10.5t13 14.5q13 11 13 53v104l-12 -12q-57 -55 -107 -48q-6 -3 -21 -3q-63 0 -88 16q-38 4 -64 41q-9 5 -26.5 29t-20.5 34q-26 35 -20 93q-4 16 0 68q5 52 12 65q5 62 44 87q4 8 31.5 24.5t37.5 19.5
q26 16 45 16q6 0 13 -1q6 1 16 1q27 0 57 -8q34 -9 43 -20v0q-6 0 12 -7q25 -10 35 -17l13 -10v8q0 -98 13 -98q3 0 32 2q25 2 37 1q18 -1 18 -9l-1 -358q0 -60 -11.5 -91t-42.5 -52q-2 -5 -15.5 -14t-19.5 -10q-32 -22 -39 -26q-19 -9 -46 -9q-18 0 -44 3q-11 2 -11 16
q0 17 13 44q-9 23 6 27zM432 204q43 11 47 30q7 5 6 31q1 8 0 33q-2 26 -4 33q-1 23 -10 31q-3 10 -29.5 33t-37.5 27q-23 20 -45 16q-4 1 -11 1q-41 0 -60 -13q-15 -3 -25 -18q-6 -4 -17 -19.5t-12 -22.5q-12 -16 -9 -54q-5 -31 -5 -62q0 -41 12 -44q1 -10 35 -19
q30 -8 59 -8q10 0 16 1q65 8 90 24z" />
    <glyph glyph-name="h" unicode="h" 
d="M579 36q0 -12 -28.5 -24t-46.5 -12q-23 0 -24 69l-5 267q-1 43 -14 58t-58 13q-9 9 -42 -2q-19 -1 -28 -9q-21 -7 -55 -36q-38 -33 -38 -53l3 -147q0 -12 -28.5 -22.5t-47.5 -10.5q-23 0 -24 76l-2 454q-1 76 24 76q18 0 46.5 -11t28.5 -22v-242q6 7 33.5 24.5t35.5 19.5
q39 25 78 23q9 2 33 0t31 -5q45 -3 86 -48q35 -40 37 -134z" />
    <glyph glyph-name="i" unicode="i" 
d="M431 644q0 -22 -49 -22h-47q-48 0 -48 22l1 28l-1 36l13 23q13 22 44 22h43q44 0 44 -22v-87zM500 24q0 -11 -26 -19q-22 -7 -45 -7q-10 0 -14 2l-122 58q-33 16 -33 46q0 31 33 47l38 18v256h-74q-77 0 -77 24q0 18 10.5 44.5t22.5 26.5h182q36 0 36 -78v-331l36 -27
q10 -9 21 -26q12 -20 12 -34z" />
    <glyph glyph-name="j" unicode="j" 
d="M513 644q0 -22 -49 -22h-47q-48 0 -48 22l2 28l-2 36l13 23q13 22 44 22h43q44 0 44 -22v-87zM513 1q0 -107 -51 -151q-43 -39 -131 -39h-78q-8 0 -22 13q-22 21 -23 22q-10 8 -18.5 34.5t-8.5 41.5q0 9 12 16t23 7q30 0 35 -19q7 -24 44 -20q10 -4 29 -4q42 0 49 15
q28 4 36 28q4 13 4 58v422h-27q-10 0 -21.5 16t-11.5 31q0 16 11 32t22 16h91q36 0 36 -78v-441z" />
    <glyph glyph-name="k" unicode="k" 
d="M613 25q0 -9 -40 -18q-35 -7 -51 -7q-8 0 -36 26l-201 188l-33 -3v-66q0 -12 -17 -22.5t-33 -10.5t-33 10.5t-17 22.5v506q0 82 24 82q18 0 47 -11t29 -22l-8 -345l193 127q13 10 25 21q20 17 27 17q17 0 51 -7q41 -9 41 -17q0 -12 -40 -46l-188 -164l220 -211
q40 -38 40 -50z" />
    <glyph glyph-name="l" unicode="l" 
d="M538 24q0 -24 -46 -24h-156q-77 0 -96 10q-29 16 -29 79q0 32 33 51l38 22l-3 474l-38 22q-33 19 -33 51q0 10 23 18.5t45 8.5q12 0 17 -3l50 -44q13 -12 26 -125q10 -93 10 -132q0 -21 28 -27.5t28 -26.5v-287h70q11 0 22 -25t11 -42z" />
    <glyph glyph-name="m" unicode="m" 
d="M603 127q0 -12 -28.5 -24t-46.5 -12q-23 0 -24 74l-3 211q0 27 -4 37q-7 20 -28 20q-24 0 -35 -26q-7 -22 -14 -43l-10 -26v-305q0 -11 -31 -23q-27 -10 -45 -10q-24 0 -24 75v303q0 55 -32 55q-26 0 -35 -18q-8 -4 -18.5 -27.5t-10.5 -34.5v-320q0 -12 -17 -22.5
t-33 -10.5t-33 10.5t-16 22.5l3 366q0 1 53 3q12 0 13 2q5 22 11 46q4 5 2.5 34.5t4.5 32.5q17 8 39 8q45 0 66 -39q6 6 9 7q38 32 82 32q46 0 78 -35q3 1 7 2q30 7 60 -7q23 -11 46 -50q10 -20 11 -91z" />
    <glyph glyph-name="n" unicode="n" 
d="M283 525q32 0 49 -38l2 -6l1 -1q4 -1 31 8t30 9q35 10 60 2q4 0 23.5 -5.5t23.5 -8.5q28 -8 54 -39t28 -101l3 -197q1 -12 -27.5 -24t-47.5 -12q-22 0 -24 70l-3 160q-2 49 -18 70q-19 24 -64 22q-6 6 -33 -2q-24 -1 -32 -9q-23 -8 -65 -50q-44 -46 -44 -70v-270
q0 -12 -17 -22.5t-33 -10.5t-32.5 10.5t-16.5 22.5l-5 357q0 3 47.5 6t47.5 5q3 51 6 104q13 16 23 18q4 2 33 2z" />
    <glyph glyph-name="o" unicode="o" 
d="M121 307q-7 87 61 153q73 71 159 65q10 3 40 1t38 -7q42 -3 74 -23q24 -16 57 -52q50 -57 50 -116q0 -10 -1 -21q3 -9 3 -31q0 -35 -6.5 -79t-14.5 -54q-6 -58 -78 -109q-58 -41 -124 -39q-7 -2 -33 -1q-26 2 -32 4q-60 2 -113 46q-62 51 -67 108q-16 26 -16 123
q0 24 3 32zM221 306q-5 -13 -5 -27q0 -47 29 -68q5 -17 53 -37q39 -16 65 -6q8 -1 32 8t30 15q19 7 44 44q23 34 20 60q5 13 5 30q0 33 -14 49q-3 20 -40 45q-28 20 -49 20q-6 0 -12 -1q-5 1 -13 1q-50 0 -67 -15q-25 -4 -55 -49q-25 -36 -25 -57q0 -6 2 -12z" />
    <glyph glyph-name="p" unicode="p" 
d="M600 229q5 -106 -58 -158q-3 -10 -26.5 -28.5t-35.5 -23.5q-43 -36 -89 -34q-6 -2 -29 -1t-29 5q-39 2 -87 46q-5 3 -17 16v-207q0 -11 -17 -22t-33 -11t-32.5 11t-16.5 22l-1 546q0 7 9 7q13 0 40 -5.5t40 -5.5q11 0 11 8v65l13 11q70 56 112 55q6 2 30 1q23 -1 29 -4
q31 -2 73 -36q8 -3 28 -19t23 -22q54 -44 58 -125q5 -9 7 -45q1 -36 -2 -46zM489 177q14 3 12 44q3 13 0 59t-9 57q-1 25 -19 38q-5 7 -31.5 26t-37.5 23q-15 10 -31 10q-16 4 -27 -2q-28 -1 -47 -25q-10 -6 -29.5 -31.5t-23.5 -37.5q-20 -26 -17 -59q-4 -15 -3 -51
q2 -39 11 -44q1 -13 39 -19q20 -10 87 -14q32 1 65 2q56 4 61 24z" />
    <glyph glyph-name="q" unicode="q" 
d="M590 -156q0 -11 -17 -22t-33 -11t-32.5 11t-16.5 22v216q-8 -8 -19 -18q-54 -52 -109 -47q-11 -4 -45 0q-32 3 -42 9q-50 5 -87 49q-5 3 -16 15.5t-13 18.5q-47 55 -40 121q-3 8 -3 31q0 37 6.5 84t14.5 59q6 57 61 95q3 4 15.5 13t17.5 10q40 27 68 27q9 0 20 -2
q4 1 9 1q18 0 55 -13l50 -18q14 -1 46 -13l11 -7v3q0 -88 19 -88q5 0 24 1.5t29 1.5q24 0 24 -9zM360 434q-10 3 -34.5 -1t-31.5 -10q-21 -3 -48 -39q-30 -42 -26 -74q-4 -9 -4 -32q0 -37 7 -80q7 -47 16 -56q2 -19 42 -42q26 -16 47 -13q8 -3 31 -1q22 3 28 7q26 2 46 31
q7 5 22 27t19 32q18 27 17 50q3 11 0 54q-3 42 -9 52q-2 21 -26 39q-4 6 -24 22t-27 18q-24 19 -45 16z" />
    <glyph glyph-name="r" unicode="r" 
d="M587 365q0 -11 -28.5 -22t-46.5 -11q-24 0 -24 37q0 27 -10 43q-17 28 -56 26q-12 6 -27 -1q-31 -2 -46 -23q-18 -9 -54.5 -60t-36.5 -70v-251q0 -12 -17 -22.5t-33 -10.5t-32.5 10.5t-16.5 22.5l-1 319q0 10 11 10q4 0 16 -2t19 -2q51 0 52 17l2 66l39 31q36 29 50 38
q30 17 57 15q8 3 36 1q29 -2 34 -8q68 -6 92 -88v-10q21 -22 21 -55z" />
    <glyph glyph-name="s" unicode="s" 
d="M318 83q1 6 49.5 3t56.5 4q61 4 61 54q0 24 -22 38q-7 5 -44 19q-8 6 -94.5 34t-93.5 39q-79 30 -79 118q0 67 54 105q48 32 111 28q6 4 29 4q77 0 109 -15q52 -4 87 -42q26 -28 26 -50q0 -10 -1 -13q-2 -8 -34.5 -15.5t-40.5 -3.5q-10 10 -32 30q-25 21 -61 18
q-10 3 -58 -1.5t-55 -10.5q-34 -4 -34 -32q0 -20 13 -30q8 -6 33 -16q9 -10 108 -40q95 -29 104 -43q74 -29 74 -124q0 -76 -61 -115q-53 -35 -132 -31q-6 -4 -22 -4q-24 0 -64 9q-3 22 -3 41q0 40 16 42z" />
    <glyph glyph-name="t" unicode="t" 
d="M458 18q-12 -10 -12 -17q0 -2 1 -4t-16 -2q-5 -3 -24 -2q-17 2 -23 4q-69 3 -110 58q-31 41 -31 128v251h-29q-5 92 10 91h19v106q0 11 29.5 28.5t45.5 17.5q24 0 24 -67v-85h100q11 0 22 -25t11 -42q0 -24 -66 -24h-67v-257q0 -47 9 -65q14 -27 57 -25q-1 0 38 1
q-1 -7 7.5 -29.5t8.5 -30.5q0 -7 -4 -10z" />
    <glyph glyph-name="u" unicode="u" 
d="M590 171q0 -4 -4 -4q-3 0 -17 3.5t-25 3.5q-17 0 -32.5 -7.5t-16.5 -18.5l-4 -78q-8 -9 -37.5 -28.5t-40.5 -22.5q-41 -27 -86 -24q-9 -2 -35 0q-27 2 -33 5q-42 3 -82 42.5t-41 126.5l-5 274q-2 77 24 77q17 0 45.5 -11t29.5 -22l5 -311q0 -50 15 -69q18 -22 64 -20
q14 -5 34 1q25 1 32 9q25 7 67.5 52t42.5 72v234q0 65 24 65q18 0 45 -10q31 -12 31 -23v-316z" />
    <glyph glyph-name="v" unicode="v" 
d="M605 457q2 -3 -13 -41l-139 -342q-30 -74 -41 -74h-104q-10 0 -37 63l-89 203q-9 21 -12 36l-10 61q-10 64 12 64q18 0 48.5 -12t32.5 -24l9 -50l97 -248l71 159l23 93q9 37 29 94q29 81 43 81q12 0 29.5 -9.5t25.5 -19.5z" />
    <glyph glyph-name="w" unicode="w" 
d="M600 486l-21 -267l-33 -146q-16 -73 -29 -73h-81q-8 0 -31 52l-44 105l-27 -39q-1 -1 -23 -59.5t-27 -58.5h-27q-19 0 -43 31l-57 71l-21 219q-3 26 -1 55q2 46 16 46q17 0 46 -12t30 -23l11 -156l20 -94l27 45v44q0 17 17 64q19 52 33 52q31 0 50 -33l24 -44l52 -133
l16 44l18 258q6 86 29 86q18 0 47.5 -11.5t28.5 -22.5z" />
    <glyph glyph-name="x" unicode="x" 
d="M600 25q0 -9 -39 -18q-34 -7 -49 -7q-12 0 -52 53l-103 139l-122 -167q-6 -8 -29 -16.5t-34 -8.5q-13 0 -32.5 8t-19.5 17t28 46l149 190l-107 124q-28 33 -28 45q0 9 22 17.5t35 8.5q12 0 37.5 -9t31.5 -17l73 -94l97 133q38 51 49 51q15 0 47 -8q37 -9 37 -17
q0 -10 -28 -46l-143 -187l151 -191q29 -37 29 -46z" />
    <glyph glyph-name="y" unicode="y" 
d="M613 468q3 -10 -21 -59l-259 -518q-24 -47 -48 -63.5t-73 -16.5h-48q-10 0 -21.5 25.5t-11.5 41.5q0 2 4 4t4 3q37 25 72 42l45 23l68 130l-4 2q-22 12 -49 60l-81 147q-33 61 -33 69q0 4 1 5l20 22q10 10 31.5 21.5t35.5 11.5t26 -25q10 -18 13 -37l9 -44l69 -134l15 8
l144 301q13 33 42 33t42 -33z" />
    <glyph glyph-name="z" unicode="z" 
d="M498 27q0 -23 -69 -24l-213 -3q-25 0 -50 9t-25 19v65q0 15 22 38l288 298h-221q-67 0 -67 24q0 17 11 42t22 25h340q14 0 23.5 -22.5t9.5 -42.5q0 -6 -1 -9l-8 -26q-7 -21 -30 -45l-274 -284l209 3q11 0 22 -25t11 -42z" />
    <glyph glyph-name="braceleft" unicode="{" 
d="M501 27q0 -13 -29.5 -21t-41.5 -4q-7 -3 -13 -3q-8 0 -31 18q-48 17 -71 56q-17 28 -17 75v112q0 42 -16 56.5t-58 14.5h-52q-36 0 -36 25q0 17 8 44.5t17 27.5h63q42 0 58 14.5t16 57.5v112q0 63 30 99q40 49 118 49h114q8 0 17 -30q8 -26 8 -42q0 -12 -23 -18
q-16 -4 -32 -7q-2 -1 -77 -12q-53 -8 -53 -33v-123q0 -72 -36 -101q-8 -6 -19 -14q8 -6 19 -14q36 -30 36 -102v-122q0 -39 2 -45q4 -13 27 -13l46 -3q9 0 17.5 -19.5t8.5 -34.5z" />
    <glyph glyph-name="bar" unicode="|" 
d="M411 -206h-102v983h102v-983z" />
    <glyph glyph-name="braceright" unicode="}" 
d="M585 356q0 -25 -37 -25h-51q-43 0 -59 -14.5t-16 -56.5v-112q0 -63 -30 -100q-40 -48 -118 -48h-50q-9 0 -17 17t-8 31q0 15 8 32t17 17h40q23 0 41 38q16 35 16 71v58q0 72 35 102q8 5 19 14q-8 5 -19 14q-35 29 -35 101v59q0 35 -16 70q-18 39 -41 39h-103
q-10 0 -17.5 16.5t-7.5 31.5t7.5 32t17.5 17h113q78 0 118 -49q30 -36 30 -99v-112q0 -43 16 -57.5t59 -14.5h63q8 0 16.5 -27.5t8.5 -44.5z" />
    <glyph glyph-name="asciitilde" unicode="~" 
d="M247 344h-93q0 63 29 102q33 44 94 44q29 0 146 -66q35 0 35 54h93q0 -59 -27 -98q-32 -44 -89 -44q-51 0 -91 30q-44 33 -68 33q-29 0 -29 -55z" />
    <glyph glyph-name="exclamdown" unicode="&#xa1;" horiz-adv-x="415" 
d="M270 586q0 -29 -21.5 -47t-51.5 -18t-51.5 18t-21.5 47t21.5 47.5t51.5 18.5t51.5 -18t21.5 -48zM242 17q0 -13 -25 -23q-21 -8 -35 -8q-12 0 -21 38q-7 30 -7 45v6l8 336q0 9 6.5 30.5t13.5 21.5q43 0 46 -5q5 -1 5 -14z" />
    <glyph glyph-name="cent" unicode="&#xa2;" horiz-adv-x="600" 
d="M489 380l-9 -24q-13 -8 -24 -8q-17 0 -33 27q-23 40 -35 51q-29 27 -77 27q-60 0 -99.5 -41t-39.5 -101q0 -64 40.5 -102.5t105.5 -38.5q25 0 29 -1q-14 1 20 13l22 -9l9 -21q0 -38 -22 -45q-28 -2 -55 -4q0 7 0 -24q1 -10 -7 -20q-13 -7 -24 -7q-12 0 -26 7
q-6 11 -11 22q-2 3 0 28q-72 16 -116 71.5t-44 129.5q0 80 49 135.5t128 70.5q1 32 3 64q3 50 12 59q13 7 24 7q12 0 27 -7q9 -21 9 -47q0 -14 -3 -37q-3 -29 -4 -39q48 -8 87 -27q20 -21 41 -42q21 -24 23 -67z" />
    <glyph glyph-name="sterling" unicode="&#xa3;" 
d="M596 25q0 -12 -24 -19q-19 -6 -34 -6h-356q-15 0 -34 6q-23 7 -23 19q0 17 8 44.5t17 27.5h66l62 241h-98q-14 0 -28 6q-17 7 -17 19q0 57 3.5 62t41.5 7q43 3 44 3l84 23l48 174q36 132 119 132q14 0 29 -4q5 4 16 4q15 0 31 -7.5t20 -17.5q8 -3 16.5 -30.5t8.5 -42.5
q0 -3 -8.5 -6.5t-9.5 -4.5q-11 3 -23 6q-19 4 -33 2q-27 3 -34 -6q-24 -4 -35 -48l-46 -174h122q9 0 17 -27.5t8 -44.5q0 -12 -19 -19q-15 -6 -29 -6h-124l-63 -241h252q8 0 16.5 -27.5t8.5 -44.5z" />
    <glyph glyph-name="currency" unicode="&#xa4;" horiz-adv-x="634" 
d="M538 660l56 -55l-86 -86q43 -64 43 -132q0 -74 -43 -137l85 -85l-56 -56l-85 86q-64 -43 -133 -43q-76 0 -135 44l-86 -86l-56 56l86 85q-44 65 -44 135q0 68 43 133l-84 86l55 55l86 -84q63 43 136 43q67 0 132 -43zM475 386q1 66 -44.5 112.5t-111.5 46.5
q-68 0 -113.5 -46t-45.5 -114q0 -66 46 -112t112 -46q67 0 112 46t45 113z" />
    <glyph glyph-name="yen" unicode="&#xa5;" 
d="M123 211h186v26h-131q-15 0 -33 6q-23 7 -23 19q0 17 8 44.5t17 27.5h162v70l-201 314q-5 7 14 19q14 11 24 14q14 5 38 0q26 -4 32 -13l144 -227l143 227q6 9 46 13q38 5 52 0q5 -2 2 -26q-4 -23 -9 -31l-184 -290v-70h131q15 0 33 -6q24 -7 24 -19q0 -17 -8 -43
q-9 -29 -17 -29h-163v-26h183v-78h-183v-108q0 -11 -17.5 -18t-33.5 -7t-33 7t-17 18v108h-186v78z" />
    <glyph glyph-name="section" unicode="&#xa7;" horiz-adv-x="787" 
d="M80 524q2 -34 -12 -44l7 -5q17 -19 20 -67q3 -41 -29 -43q-24 -1 -44 0q5 58 5 111q0 27 -1 52l-2 2l-11 -9q0 30 2 33q14 9 42 25q21 0 23 -55zM41 392l6 -4l12 2q17 3 15 19l-2 16q-2 19 -6 30q-6 5 -19 3h-5v-29q0 -13 -1 -37zM62 514q-1 9 -2 19.5t-8 11.5l-6 -3
l-10 -3q-1 -18 1 -31q1 -16 3 -21q20 5 22 11v16zM112 531l-14 -3q-1 -1 1 -24q1 -8 4 -42q5 1 15 4l5 7q1 17 0 27q-1 11 -2 19t-9 12zM143 373q-6 8 -13 39q-6 25 -18 27q2 13 5 -17q4 -43 5 -49l1 -5q-2 1 -20 -1q-12 77 -20 153q-2 21 2 28q7 4 21 4q7 1 16 2
q16 -7 21 -71q1 -21 -15 -31q16 -12 19 -43q1 -8 9 -10h8q21 0 61 -3l6 -28q-41 0 -88 5zM170 586q14 -100 50 -180q-9 1 -22 4q-2 14 -16 35l-10 2q2 -12 3 -25q1 -4 2 -13q-4 1 -19 -2l-1 9q-3 48 -12 143l-8 6q-14 0 -52 -8l2 29q20 5 31 5l34 -1q6 -1 18 -4zM162 561h-5
q-3 -22 -1 -47q1 -14 4 -39l7 -2q1 -1 6 0q4 0 7 1q-4 33 -18 87zM226 520q14 -50 35 -154h-24q-6 27 -19 80.5t-19 80.5q18 -3 27 -7zM196 580q8 -1 23 -5q-2 -26 5 -40q-2 -1 -7 -2q-2 -1 -18 6q0 2 -1.5 5.5t-1.5 5.5v30zM269 474q10 -21 16 -55l11 -56q-3 1 -23 2
q-8 35 -26 113q-3 16 -12 54q-5 4 -6 6q-8 16 -6 36q9 -1 27 -6q28 -72 74 -149q-16 49 -38 151h5q4 3 9 -4l6 3l1 -9q-2 -38 18 -99q25 -77 28 -101q-3 -2 -10 -3q-8 0 -12 1q-7 24 -27 60l-33 59zM636 493q-4 -4 -12 -4q-7 0 -11 1q-3 0 -1 0q-13 -1 -11 -15q1 -13 5 -16
q12 0 33 5q1 -7 4 -22l-8 1q-16 -4 -27 -4q0 -17 1 -37q1 -16 10 -16q10 5 28 13l1 -26q-18 -9 -55 -21q1 36 -2 64l-9 89l7 5l7 1q11 -2 41 1q1 -10 -1 -19zM670 525l-14 1q-5 -1 -3 -7l2 -10q2 -13 6 -38h13q13 0 13 17q0 5 -1 11q-1 17 -9 24zM769 399l4 3l2 -13
q-7 -5 -12 -5q-16 -1 -43 2q-4 -2 -21 -1q-9 -1 -13 19q-1 13 -2.5 27.5t-10.5 15.5l-5 -3q-2 -14 2 -28q5 -31 5 -35l-9 -5q-8 0 -11 -2q-2 29 -7 105q-1 22 -7 43q-11 -3 -40 -3h-9l-1 30q11 0 31.5 1.5t31.5 1.5q32 0 39 -14q7 -8 11 -31q5 -24 -10 -39l-6 -6
q13 -8 15 -42q0 -11 10 -16q7 -2 35 -4q18 1 21 -1zM447 523q-11 -1 -35 -1q-4 0 -12 -2q3 -7 7 -22q1 -12 9 -37q13 -4 38 -5q3 -9 5 -18l1 -14q-4 0 -14.5 2.5t-16.5 1.5q-4 0 -2 -16q3 -32 3 -24q17 -2 48 -14q0 -12 4 -38q-22 6 -67 11q-3 45 -30 161q-2 5 -7 14l-9 2
q-2 1 -13 28q29 0 84 -2q1 -9 7 -27zM455 549l4 1q15 -1 46 2q34 -142 45 -214q-13 -1 -25 -6l1 8l-2 44l-5 5q-16 0 -18 -21q0 -1 2 -34q-1 3 -4 3q-4 0 -9 -4l-5 3q1 141 -7 183l-13 2q-11 -1 -11 25zM502 413q9 2 12 2l5 4v10q-3 12 -8 43q0 2 -12 49l-8 3q-9 -7 7 -90z
M545 522l-5 1q-6 1 -21 -1q-2 4 -2 11v16l13 1q23 2 39 -2l13 3q2 -5 5 -37q-7 -2 -22 -1q12 -46 16 -141l1 -25q-2 -3 -9.5 -2t-10.5 -3q0 16 -2 45q-1 12 -8 71.5t-7 63.5zM748 407q-25 -2 -36 26l-2 14q1 -3 2 11l14 -7l-1 -15l3 -8q8 -7 21 -6q7 1 11 11q-7 13 -32 22
q-18 7 -21 50q-2 21 19 22q34 2 41 -42l-10 -5q-7 23 -17 27q-9 2 -15 -4l-2 -9q-2 -7 9 -19q38 -13 40 -45q-4 -21 -24 -23zM718 552l-1 -6h7l-2 -12h7l2 12l7 -1l1 7h-21zM741 552l-4 -20h5l3 12l3 -12l5 9l2 -11h4l3 21h-6l-6 -9l-3 9zM49 303v-13h21v-13q-2 0 -8 1h-13
v-35h-19q2 25 2 74q30 -2 44 -2v-14q-14 2 -20 2h-7zM82 278q0 43 32 43q31 0 31 -41q0 -40 -34 -40q-29 0 -29 38zM112 304q-17 0 -17 -23q0 -19 16 -19q14 0 14 19v4q0 19 -13 19zM169 284q0 -6 -1 -21q-1 -13 0 -20h-17q5 37 3 74q2 -1 16 -1q5 -18 17 -54q3 30 2 54
q3 -1 23 -1q-2 -24 -2 -74l-29 2q-4 13 -12 41zM257 242q-7 2 -23 0q2 15 2 43v17h-4q-2 0 -5 1h-6q1 5 1 14q28 -3 52 -2q0 -19 -1 -15h-14q-2 -19 -2 -58zM355 270q-5 -30 -28 -30q-28 0 -28 37q0 44 29 44q27 0 27 -31h-18q-3 14 -11 14q-12 0 -12 -21q0 -19 13 -19
q7 0 7 7h11q7 -1 10 -1zM366 278q0 41 32 41q30 0 30 -39q0 -40 -33 -40q-29 0 -29 38zM395 304q-16 0 -16 -23q0 -19 16 -19q14 0 14 19v4q0 19 -14 19zM472 242h-13q-1 5 -9 38q0 -13 -2 -37h-13q1 12 4 74q3 -1 22 -1q6 -30 7 -46q2 8 7 45q8 -1 15 -1t14 1q0 -12 -1 -37
t-1 -37q-7 0 -22 1q2 24 2 38q-4 -12 -10 -38zM531 265l-1 -22h-17q2 16 2 74h14q9 -1 13 -1q24 0 24 -25q0 -30 -35 -26zM530 303q-1 -4 -1 -11v-8h13q5 0 5 8q0 9 -17 11zM599 242q0 4 -2 12l-17 1l-3 -12l-16 2q9 20 26 72q12 -2 19 -2q6 -37 17 -75q-8 1 -24 2zM584 271
q2 -1 6 -1h6q-1 12 -5 29q-2 -7 -7 -28zM650 284v-21q-1 -28 -1 -20h-16q3 41 2 74q3 -1 16 -1q5 -18 18 -54q2 37 1 54q3 -1 23 -1q0 -24 -2 -74l-28 2q-5 13 -13 41zM743 242l-23 1q2 16 2 27q0 7 -20 47h16q2 -12 12 -34q7 14 12 34q5 -2 23 -2q-22 -37 -22 -46v-27z" />
    <glyph glyph-name="dieresis" unicode="&#xa8;" horiz-adv-x="436" 
d="M320 652q24 0 41 -16.5t17 -40.5q0 -26 -16.5 -42.5t-41.5 -16.5q-24 0 -41 17t-17 42q0 23 17 40t41 17zM173 595q0 -26 -16 -42.5t-42 -16.5q-25 0 -41.5 17t-16.5 43q0 23 17.5 39.5t40.5 16.5q13 0 22 -8q36 -10 36 -49z" />
    <glyph glyph-name="copyright" unicode="&#xa9;" horiz-adv-x="717" 
d="M358 21q-135 0 -228.5 94t-93.5 228q0 136 94 230t229 94t228.5 -94.5t93.5 -229.5t-94 -228.5t-229 -93.5zM641 343q1 118 -81.5 201t-200.5 83t-200.5 -83t-82.5 -201q0 -117 83 -199t200 -82t199 82t83 199zM520 180q0 -5 -24 -14q-30 -12 -34 -14q-7 -4 -23 -6
q-40 -11 -80 -11q-101 0 -153 60q-48 55 -48 152q0 95 52.5 148.5t147.5 53.5q19 0 53 -4q13 -1 17 -2q21 0 45 -2q5 -40 16 -81q3 5 10 5q5 0 8 -4q0 1 0 -19q0 -31 -10 -42q-4 -3 -14 -3q-13 15 -27 56q-1 5 -4 10q-20 46 -81 46q-64 0 -89 -60q-10 -23 -16 -70
q-4 -30 2 -78q13 -124 111 -124q38 0 61 26q11 13 28 50q12 7 37 10q6 0 11 -40q4 -31 4 -43z" />
    <glyph glyph-name="logicalnot" unicode="&#xac;" horiz-adv-x="634" 
d="M609 105q0 -7 -17.5 -13.5t-26.5 -6.5q-8 0 -26 6.5t-18 13.5v203h-478q-7 0 -13 19q-6 16 -6 25q0 8 6.5 25t12.5 17h501q36 0 40 -2q0 -1 12.5 -3t12.5 -4v-280z" />
    <glyph glyph-name="minus" unicode="&#xad;" 
d="M574 338q0 -15 -133 -25q-127 -11 -148 -5l-117 27q-30 7 -30 43q0 42 30 42h368q14 0 23 -33q7 -26 7 -49z" />
    <glyph glyph-name="minus" unicode="&#x2212;" 
d="M574 338q0 -15 -133 -25q-127 -11 -148 -5l-117 27q-30 7 -30 43q0 42 30 42h368q14 0 23 -33q7 -26 7 -49z" />
    <glyph glyph-name="registered" unicode="&#xae;" horiz-adv-x="717" 
d="M358 667q135 0 229 -94t94 -230q0 -134 -94 -228t-230 -94q-134 0 -227.5 94t-93.5 229t93.5 229t228.5 94zM641 343q0 119 -82 201.5t-200 82.5q-117 0 -200 -83t-83 -200t82.5 -199.5t199.5 -82.5q118 0 200.5 82t82.5 199zM556 228q-13 -79 -63 -79q-23 0 -29 3
q-19 4 -35 28q-31 50 -42 83q-8 29 -14 39q-12 19 -32 22q-3 3 -17 3h-7v-96l6 -1q13 0 17 -20q0 -12 6 -28q3 -3 8 -5q-1 0 -3 -13t-3 -13q-35 1 -82 1l-19 3.5t-54 9.5q0 8 4.5 23t11.5 15.5t17 1.5q5 1 11 4q3 4 3 39v223q-3 3 -10 10.5t-20 12.5q-8 4 -17 11q0 7 4 21
q5 18 10 18l70 -1h42q38 1 42 1q70 0 105 -21q47 -28 47 -85q0 -75 -83 -96q14 -7 31 -45l16 -36q19 -43 24 -43q21 0 28 24l14 -6q13 -5 13 -8zM431 439q0 25 -17 38t-55 13q-42 0 -42 -26v-80h25q30 0 52 7q37 13 37 48z" />
    <glyph glyph-name="degree" unicode="&#xb0;" horiz-adv-x="377" 
d="M189 710q69 0 116.5 -48t47.5 -117t-47.5 -116.5t-116.5 -47.5t-117 47.5t-48 116.5t48 117t117 48zM266 545q0 32 -22.5 55t-54.5 23q-33 0 -55 -22.5t-22 -55.5v0q0 -33 22 -56t55 -23q17 0 30 13q47 14 47 66z" />
    <glyph glyph-name="acute" unicode="&#xb4;" horiz-adv-x="436" 
d="M343 638q0 -11 -10 -15l-166 -112l-40 13l159 139q2 1 5 3q19 0 23 -8l23 -14q6 -5 6 -6z" />
    <glyph glyph-name="mu" unicode="&#xb5;" horiz-adv-x="1064" 
d="M82 376q1 -34 -12 -44l6 -5q16 -19 17 -68q1 -41 -29 -42q-12 0 -44 -1q11 80 9 165l-2 2l-11 -8q1 14 1 30q15 11 44 26q19 0 21 -55zM39 245l6 -4l12 1q17 1 15 18v17q-2 20 -5 30q-6 5 -20 5l-5 -2l-1 -29q-1 -20 -2 -36zM65 366q0 28 -1 21q-1 6 -2 8t-7 3l-6 -3
l-9 -3q-2 -20 -1 -31q0 -11 2 -22q20 5 23 11q0 8 1 16zM115 382l-14 -4q-1 -1 0 -24q1 -10 3 -40q5 0 14 2l6 7q1 9 1 27q0 26 -10 32zM141 223q-7 10 -13 39q-5 25 -16 28q1 6 2 -22q0 -7 3 -21.5t3 -22.5v-5q-13 -2 -20 -1q-4 42 -11 153l-1 28q7 2 22 4h16q15 -7 18 -70
q1 -21 -16 -31q15 -11 17 -43q4 -10 10 -12l8 1q21 -1 60 -5l5 -29q-41 1 -87 9zM175 434q7 -70 44 -181l-25 4q-2 13 -9 37l-13 1l3 -25v-13l-18 2l-1 12q-2 23 -3.5 69t-3.5 69l-8 6q-18 0 -52 -6l3 29q19 4 31 3l34 -2q5 0 18 -5zM168 322q1 -1 6 -1q4 0 7 1
q-6 39 -15 87l-5 1zM229 367q13 -51 29 -155h-5q-6 -1 -19 1q-12 54 -33 161q10 -1 28 -7zM201 427q8 0 22 -5q-1 -8 2 -42q-2 0 -9 3l-16 4v10q1 -10 1 30zM312 401q4 -35 19 -101t19 -98q-3 -1 -12 0q-5 -2 -10 -1q-37 81 -59 125l1 -8l22 -111q-15 3 -22 3q-5 34 -19 108
l-12 55l-9 5q-3 37 -3 43q18 -4 27 -7q25 -70 69 -152q-11 50 -32 152l20 -5zM619 337l-22 -4l-15 -2l4 -31q12 3 35 8q0 -7 2 -21l-15 -3q-9 0 -21 -5l1 -25l3 -26q14 5 35 15v-27q-18 -8 -54 -19q0 20 -2 64l-5 90l13 1l19 2q16 0 21 2zM654 368h-17l1 -17q2 -12 5 -37h6
q4 -1 7 -1q14 0 14 28q-1 9 -8 25zM739 240l14 1l1 -17q-4 0 -12 -1q-4 0 -37 2q-4 -1 -9 -1q-8 0 -17 2t-12 20q-2 14 -3.5 28t-9.5 15l-8 -2l3 -28l5 -35l-10 -2l-11 -4l-4 100q0 2 -4 48h-29l-17 -1l-3 29q10 0 30 1h30q33 0 41 -15q8 -8 9 -32q4 -22 -10 -38l-6 -7
q11 -7 13 -43q1 -15 14 -19q5 -1 26 -1h16zM431 373q-24 1 -35 1q-5 0 -13 -2q3 -6 7 -27q2 -8 7 -32q12 -1 39 -7l1 -10l3 -19q-7 0 -34 3q1 -15 3 -44l48 -13v-36q-20 4 -65 12q-7 107 -27 176l-16 1q-3 11 -9 30q33 -2 90 -7q1 -8 1 -26zM439 399l20 1q8 -1 30 0l23 -106
q12 -60 17 -107q-13 -3 -24 -3l1 13l-3 39q-10 1 -18 -2q-4 -2 -4 -51h-9l-9 2q2 89 1 130q0 24 -2 53l-23 5v26zM475 369q-2 -1 4 -70l3 -37q4 1 12 1l7 1q-11 73 -19 104zM530 369h-5q-6 -1 -19 1l-3 14l-4 13h20q-4 0 22 -1l26 -1q1 -11 4 -35l-19 1q8 -70 8 -143v-26
q-6 -2 -20 -3q0 11 -1 45q-1 13 -6 72q-4 53 -3 63zM752 269q-3 -19 -24 -23q-33 0 -36 28l-1 9q0 2 1 4v4l15 -4q1 -24 17 -25q11 2 11 13q0 13 -10 19q-13 8 -21 12q-10 9 -12 34q-1 8 7 14.5t17 6.5q31 1 33 -38l-17 1q-2 12 -2 13q-2 7 -8 8q-14 3 -14 -11q0 -10 11 -17
q22 -14 25 -18q11 -11 8 -30zM693 391l-1 -6l7 1v-15l7 1v14l7 1l1 7zM718 394l-1 -20h5l1 12l5 -11l4 9l3 -10l4 1v21l-6 -1l-5 -10l-4 9h-6zM865 279q-4 -28 -8 -37q-8 -13 -26 -13q-36 0 -36 62q0 72 37 72q32 0 34 -51q-12 2 -23 0q-4 24 -15 24q-14 0 -14 -35
q0 -39 14 -39q11 0 11 18q-9 -1 26 -1zM876 292q0 68 41 68q38 0 38 -64q0 -67 -42 -67q-37 0 -37 63zM913 335q-20 0 -20 -38t19 -38q20 0 20 32v17q0 27 -19 27zM1010 232q-2 1 -15 1h-3q-3 37 -11 77q0 -34 -2 -76q-10 2 -16 1q3 27 5 122q4 -2 28 -2q4 -25 8 -75
q5 24 9 74q16 -3 37 -1l-3 -122q-3 1 -25 1q3 63 3 79q-7 -29 -15 -79zM779 265q13 0 13 -13v-5q0 -19 -14 -19q-15 0 -15 19q0 18 16 18zM908 537h-17v-84h-18v88q-5 2 -11 2q-7 0 -12 -2v18h58v-22zM840 452h-20v115h20v-115zM809 485q0 -20 -6.5 -27t-26.5 -7
q-30 0 -30 20v23h17q-1 -15 0 -19q3 -7 16 -7q12 0 12 16q0 11 -22 15.5t-22 29.5q0 32 31 32t31 -27q0 -2 -1 -6t-1 -6h-19q0 9 -1 19q-1 3 -11 3q-13 0 -13 -13q0 -10 23 -15.5t23 -30.5zM734 452h-20v115h20v-115zM706 567l-18 -114h-21q-5 34 -14 87q-4 1 -13 3v17h25
q3 -23 14 -67l11 74h16zM609 452h-55v89q-2 2 -7 2v17q10 -1 21 -1q12 0 34 1v-17q-34 0 -37 -3v-27q9 -5 32 -5v-17q-6 1 -12 1q-8 0 -15 -2v-17q20 -1 39 0v-21zM540 484q0 -33 -33 -33q-31 0 -31 25v18h17q2 -11 3 -22q2 -4 14 -4q11 0 11 14t-22 18t-22 29q0 32 32 32
q30 0 30 -21v-18h-19q-1 14 -1 16q-2 6 -12 6q-12 0 -12 -13q0 -9 22.5 -15t22.5 -32zM467 453h-20q-1 7 -2 14.5t-9 7.5q-9 0 -9 -7q0 -2 -1 -15h-17l14 88q-5 1 -14 3l1 16h38zM404 452h-56v89q-1 2 -7 2v17q10 -1 22 -1t34 1v-17q-1 0 -25 1q-12 0 -12 -16q0 -18 6 -19
q13 -1 26 -1v-17q-5 2 -12 2q-6 0 -14 -2q0 -6 -2 -18q21 -1 40 0v-21zM336 470q2 -4 2 -9t-2 -9q-1 1 -45 0v115h19v-97q4 -1 26 0zM284 529q0 -43 -34 -45q0 -4 1 -15v-16h-18v88q-3 2 -11 2l2 17h46q14 0 14 -31zM445 491l-6 51l-14 -51h20zM268 534q0 9 -5 11h-19v-41
h19q5 8 5 30z" />
    <glyph glyph-name="mu" unicode="&#x3bc;" horiz-adv-x="1064" 
d="M82 376q1 -34 -12 -44l6 -5q16 -19 17 -68q1 -41 -29 -42q-12 0 -44 -1q11 80 9 165l-2 2l-11 -8q1 14 1 30q15 11 44 26q19 0 21 -55zM39 245l6 -4l12 1q17 1 15 18v17q-2 20 -5 30q-6 5 -20 5l-5 -2l-1 -29q-1 -20 -2 -36zM65 366q0 28 -1 21q-1 6 -2 8t-7 3l-6 -3
l-9 -3q-2 -20 -1 -31q0 -11 2 -22q20 5 23 11q0 8 1 16zM115 382l-14 -4q-1 -1 0 -24q1 -10 3 -40q5 0 14 2l6 7q1 9 1 27q0 26 -10 32zM141 223q-7 10 -13 39q-5 25 -16 28q1 6 2 -22q0 -7 3 -21.5t3 -22.5v-5q-13 -2 -20 -1q-4 42 -11 153l-1 28q7 2 22 4h16q15 -7 18 -70
q1 -21 -16 -31q15 -11 17 -43q4 -10 10 -12l8 1q21 -1 60 -5l5 -29q-41 1 -87 9zM175 434q7 -70 44 -181l-25 4q-2 13 -9 37l-13 1l3 -25v-13l-18 2l-1 12q-2 23 -3.5 69t-3.5 69l-8 6q-18 0 -52 -6l3 29q19 4 31 3l34 -2q5 0 18 -5zM168 322q1 -1 6 -1q4 0 7 1
q-6 39 -15 87l-5 1zM229 367q13 -51 29 -155h-5q-6 -1 -19 1q-12 54 -33 161q10 -1 28 -7zM201 427q8 0 22 -5q-1 -8 2 -42q-2 0 -9 3l-16 4v10q1 -10 1 30zM312 401q4 -35 19 -101t19 -98q-3 -1 -12 0q-5 -2 -10 -1q-37 81 -59 125l1 -8l22 -111q-15 3 -22 3q-5 34 -19 108
l-12 55l-9 5q-3 37 -3 43q18 -4 27 -7q25 -70 69 -152q-11 50 -32 152l20 -5zM619 337l-22 -4l-15 -2l4 -31q12 3 35 8q0 -7 2 -21l-15 -3q-9 0 -21 -5l1 -25l3 -26q14 5 35 15v-27q-18 -8 -54 -19q0 20 -2 64l-5 90l13 1l19 2q16 0 21 2zM654 368h-17l1 -17q2 -12 5 -37h6
q4 -1 7 -1q14 0 14 28q-1 9 -8 25zM739 240l14 1l1 -17q-4 0 -12 -1q-4 0 -37 2q-4 -1 -9 -1q-8 0 -17 2t-12 20q-2 14 -3.5 28t-9.5 15l-8 -2l3 -28l5 -35l-10 -2l-11 -4l-4 100q0 2 -4 48h-29l-17 -1l-3 29q10 0 30 1h30q33 0 41 -15q8 -8 9 -32q4 -22 -10 -38l-6 -7
q11 -7 13 -43q1 -15 14 -19q5 -1 26 -1h16zM431 373q-24 1 -35 1q-5 0 -13 -2q3 -6 7 -27q2 -8 7 -32q12 -1 39 -7l1 -10l3 -19q-7 0 -34 3q1 -15 3 -44l48 -13v-36q-20 4 -65 12q-7 107 -27 176l-16 1q-3 11 -9 30q33 -2 90 -7q1 -8 1 -26zM439 399l20 1q8 -1 30 0l23 -106
q12 -60 17 -107q-13 -3 -24 -3l1 13l-3 39q-10 1 -18 -2q-4 -2 -4 -51h-9l-9 2q2 89 1 130q0 24 -2 53l-23 5v26zM475 369q-2 -1 4 -70l3 -37q4 1 12 1l7 1q-11 73 -19 104zM530 369h-5q-6 -1 -19 1l-3 14l-4 13h20q-4 0 22 -1l26 -1q1 -11 4 -35l-19 1q8 -70 8 -143v-26
q-6 -2 -20 -3q0 11 -1 45q-1 13 -6 72q-4 53 -3 63zM752 269q-3 -19 -24 -23q-33 0 -36 28l-1 9q0 2 1 4v4l15 -4q1 -24 17 -25q11 2 11 13q0 13 -10 19q-13 8 -21 12q-10 9 -12 34q-1 8 7 14.5t17 6.5q31 1 33 -38l-17 1q-2 12 -2 13q-2 7 -8 8q-14 3 -14 -11q0 -10 11 -17
q22 -14 25 -18q11 -11 8 -30zM693 391l-1 -6l7 1v-15l7 1v14l7 1l1 7zM718 394l-1 -20h5l1 12l5 -11l4 9l3 -10l4 1v21l-6 -1l-5 -10l-4 9h-6zM865 279q-4 -28 -8 -37q-8 -13 -26 -13q-36 0 -36 62q0 72 37 72q32 0 34 -51q-12 2 -23 0q-4 24 -15 24q-14 0 -14 -35
q0 -39 14 -39q11 0 11 18q-9 -1 26 -1zM876 292q0 68 41 68q38 0 38 -64q0 -67 -42 -67q-37 0 -37 63zM913 335q-20 0 -20 -38t19 -38q20 0 20 32v17q0 27 -19 27zM1010 232q-2 1 -15 1h-3q-3 37 -11 77q0 -34 -2 -76q-10 2 -16 1q3 27 5 122q4 -2 28 -2q4 -25 8 -75
q5 24 9 74q16 -3 37 -1l-3 -122q-3 1 -25 1q3 63 3 79q-7 -29 -15 -79zM779 265q13 0 13 -13v-5q0 -19 -14 -19q-15 0 -15 19q0 18 16 18zM908 537h-17v-84h-18v88q-5 2 -11 2q-7 0 -12 -2v18h58v-22zM840 452h-20v115h20v-115zM809 485q0 -20 -6.5 -27t-26.5 -7
q-30 0 -30 20v23h17q-1 -15 0 -19q3 -7 16 -7q12 0 12 16q0 11 -22 15.5t-22 29.5q0 32 31 32t31 -27q0 -2 -1 -6t-1 -6h-19q0 9 -1 19q-1 3 -11 3q-13 0 -13 -13q0 -10 23 -15.5t23 -30.5zM734 452h-20v115h20v-115zM706 567l-18 -114h-21q-5 34 -14 87q-4 1 -13 3v17h25
q3 -23 14 -67l11 74h16zM609 452h-55v89q-2 2 -7 2v17q10 -1 21 -1q12 0 34 1v-17q-34 0 -37 -3v-27q9 -5 32 -5v-17q-6 1 -12 1q-8 0 -15 -2v-17q20 -1 39 0v-21zM540 484q0 -33 -33 -33q-31 0 -31 25v18h17q2 -11 3 -22q2 -4 14 -4q11 0 11 14t-22 18t-22 29q0 32 32 32
q30 0 30 -21v-18h-19q-1 14 -1 16q-2 6 -12 6q-12 0 -12 -13q0 -9 22.5 -15t22.5 -32zM467 453h-20q-1 7 -2 14.5t-9 7.5q-9 0 -9 -7q0 -2 -1 -15h-17l14 88q-5 1 -14 3l1 16h38zM404 452h-56v89q-1 2 -7 2v17q10 -1 22 -1t34 1v-17q-1 0 -25 1q-12 0 -12 -16q0 -18 6 -19
q13 -1 26 -1v-17q-5 2 -12 2q-6 0 -14 -2q0 -6 -2 -18q21 -1 40 0v-21zM336 470q2 -4 2 -9t-2 -9q-1 1 -45 0v115h19v-97q4 -1 26 0zM284 529q0 -43 -34 -45q0 -4 1 -15v-16h-18v88q-3 2 -11 2l2 17h46q14 0 14 -31zM445 491l-6 51l-14 -51h20zM268 534q0 9 -5 11h-19v-41
h19q5 8 5 30z" />
    <glyph glyph-name="paragraph" unicode="&#xb6;" horiz-adv-x="634" 
d="M526 600l-7 -8q-17 -4 -41 -2v-658q-11 -16 -30 -16t-29 16v658h-96v-658q-11 -16 -30 -16t-29 16v363q-78 8 -124 49q-50 45 -50 121q0 85 63 133q58 44 145 44h214q14 -20 14 -42z" />
    <glyph glyph-name="periodcentered" unicode="&#xb7;" horiz-adv-x="394" 
d="M272 279q0 -31 -21.5 -53t-53.5 -22q-31 0 -52.5 22t-21.5 53t21.5 52.5t52.5 21.5t53 -21.5t22 -52.5z" />
    <glyph glyph-name="periodcentered" unicode="&#x2219;" horiz-adv-x="394" 
d="M272 279q0 -31 -21.5 -53t-53.5 -22q-31 0 -52.5 22t-21.5 53t21.5 52.5t52.5 21.5t53 -21.5t22 -52.5z" />
    <glyph glyph-name="questiondown" unicode="&#xbf;" horiz-adv-x="509" 
d="M374 587q0 -28 -21 -45.5t-51 -17.5t-51 17t-21 46q0 30 21 47.5t51 17.5q29 0 50.5 -18t21.5 -47zM435 58q0 -56 -69 -61q-10 -8 -68 -11q-56 -3 -76 2q-45 -3 -73 19q-17 14 -20 18q-11 12 -14 34q-9 13 -19 81q-9 65 -6 85q-3 16 4 39q13 42 55 53q3 3 36.5 9.5
t38.5 9.5t20 46.5t24 47.5l9 19q0 8 12 13t20 5q9 0 20.5 -5t11.5 -12v-122q0 -8 -36 -20q-22 -7 -43 -11.5t-50 -11.5q-21 -10 -36 -53q-12 -35 -12 -57q0 -56 16 -69q2 -2 19 -29q14 -22 25 -22q108 0 122 5q6 1 12 32l6 32q7 3 9 14q3 15 29 15q9 0 21 -7t12 -15v-73z
" />
    <glyph glyph-name="germandbls" unicode="&#xdf;" horiz-adv-x="519" 
d="M283 553q90 0 128 -29q43 -34 43 -120q0 -61 -14 -75q-10 -52 -65 -68q76 -13 84 -71q12 -10 19 -50q7 -32 7 -55q0 -9 -2 -27t-2 -27q0 -40 -23 -69.5t-61 -36.5q-18 -27 -139 -27q-27 0 -46 64q20 14 57 15q-24 -1 60 -1q26 0 44 76q13 57 13 95q0 12 -22 26
q-27 18 -30 23q-2 2 -15 36q-11 27 -20 29l21 1q-9 1 -19 19t-10 29q0 10 9 27.5t18 19.5l3 3q13 3 29 42l-22 27q0 6 -26 20t-32 14q-4 0 -16 -20t-21 -20q-33 0 -46 -98q-4 -57 -9 -115l-47 -192l-11 -13l-11 -3l-39 78q-2 0 -2 7q0 33 57 243.5t57 211.5q29 11 101 11z
" />
    <glyph glyph-name="florin" unicode="&#x192;" horiz-adv-x="519" 
d="M457 647q0 -6 -6 -23q-7 -20 -12 -20l-5.5 -8t-10.5 -7q-11 4 -34 4q-50 0 -61.5 -12.5t-19.5 -88.5l-7 -62h55q23 0 27 -3q11 -8 11 -10q0 -6 -4 -30t-7 -25q-5 -4 -30 -4h-61l-39 -320q-12 -104 -32 -118q-26 -95 -124 -86q-4 -3 -14 -3q-24 0 -43 9q-27 12 -27 15
q0 7 6.5 25.5t11.5 18.5q1 0 9 9.5t13 7.5q13 -3 59 -3q9 0 33 33q11 14 19 81l39 331h-57q-24 0 -24 13q0 25 8 31q1 0 8 14t11 14h62l14 102q10 78 46 108t91 30q11 0 22 -1q25 6 51 -6q22 -10 22 -16z" />
    <glyph glyph-name="pi" unicode="&#x3c0;" horiz-adv-x="717" 
d="M358 667q135 0 229 -94t94 -230q0 -134 -94 -228t-230 -94q-134 0 -227.5 94t-93.5 229t93.5 229t228.5 94zM641 343q0 119 -82 201.5t-200 82.5q-117 0 -200 -83t-83 -200t82.5 -199.5t199.5 -82.5q118 0 200.5 82t82.5 199zM317 327v-96l6 -1q13 0 17 -20q0 -12 6 -28
q3 -3 8 -5q-1 0 -3 -13t-3 -13q-35 1 -82 1l-19 3.5t-54 9.5q0 8 4.5 23t11.5 15.5t17 1.5q5 1 11 4q3 4 3 39v223q-3 3 -10 10.5t-20 12.5q-8 4 -17 11q0 7 4 21q5 18 10 18l70 -1h42q38 1 42 1q70 0 105 -21q47 -28 47 -85q0 -75 -83 -96zM431 439q0 25 -17 38t-55 13
q-42 0 -42 -26v-80h25q30 0 52 7q37 13 37 48z" />
    <glyph glyph-name="endash" unicode="&#x2013;" horiz-adv-x="821" 
d="M674 338q0 -15 -183 -25q-176 -11 -198 -5l-117 27q-30 7 -30 43q0 42 30 42h468q14 0 23 -33q7 -26 7 -49z" />
    <glyph glyph-name="emdash" unicode="&#x2014;" horiz-adv-x="821" 
d="M714 338q0 -15 -183 -25q-170 -9 -198 -5l-217 27q-30 4 -30 43q0 42 30 42h568q14 0 23 -33q7 -26 7 -49z" />
    <glyph glyph-name="quotesinglbase" unicode="&#x201a;" horiz-adv-x="394" 
d="M277 104q-1 -6 -4 -10l-100 -218q-8 -16 -13 -16h-5h-3l-29 6l-17 7q-1 1 0 4q0 1 1 3l69 199q8 30 21 30h69q11 0 11 -5z" />
    <glyph glyph-name="quotedblbase" unicode="&#x201e;" horiz-adv-x="457" 
d="M389 104q-1 -5 -3 -10l-100 -219q-4 -9 -6 -10.5t-10 -1.5q-5 1 -7 1l-26 6q-16 5 -16 7q-1 1 0 3t2 3l68 197q7 29 20 29h67q11 0 11 -5zM232 104l-4 -10l-101 -219q-4 -9 -5.5 -10.5t-8.5 -1.5q-4 0 -8 1l-27 6q-15 5 -15 7q0 1 0.5 3t1.5 4l68 196q7 29 20 29h68
q11 0 11 -5z" />
    <glyph glyph-name="dagger" unicode="&#x2020;" horiz-adv-x="561" 
d="M491 393q0 -5 -17 -9.5t-24 -4.5h-126v-463q0 -6 -17.5 -12t-25.5 -6q-9 0 -26 5.5t-17 12.5v463h-127q-7 0 -23 4q-19 5 -19 10q0 10 5.5 36.5t9.5 26.5h154v134q0 31 4 36q0 1 4.5 13t7.5 12q61 0 65.5 -5.5t4.5 -39.5v-150h153q4 0 9 -26.5t5 -36.5z" />
    <glyph glyph-name="daggerdbl" unicode="&#x2021;" horiz-adv-x="571" 
d="M496 113q0 -5 -17.5 -10t-24.5 -5h-126v-182q0 -6 -17.5 -12.5t-25.5 -6.5q-9 0 -26 6.5t-17 12.5v182h-125q-7 0 -24.5 5t-17.5 10q0 9 4 33q6 28 10 28h153v225h-126q-7 0 -24 4.5t-17 9.5q0 9 5 35.5t9 26.5h153v122q0 10 4 29q6 25 12 25q61 0 65.5 -5.5t4.5 -35.5
v-135h154q4 0 9 -26.5t5 -35.5q0 -5 -17 -9.5t-25 -4.5h-126v-225h154q4 0 10 -28q4 -24 4 -33z" />
    <glyph glyph-name="bullet" unicode="&#x2022;" horiz-adv-x="467" 
d="M343 343q0 -45 -32 -77.5t-78 -32.5v0q-46 0 -78 32.5t-32 78.5q0 45 32 77.5t77 32.5q7 0 16 -5.5t13 -6.5q36 -10 58 -35q24 -28 24 -64z" />
    <glyph glyph-name="fraction" unicode="&#x2044;" horiz-adv-x="363" 
d="M393 551q0 -4 -8 -19t-11 -17l-367 -435q-4 -3 -27 -3q-1 0 -2 12q0 4 -1 5t1 11.5t2 13t8 16.5t11 16l350 400l7 7t7 6q6 0 18 -4t12 -9z" />
    <glyph glyph-name="trademark" unicode="&#x2122;" horiz-adv-x="686" 
d="M623 662l9 -24q0 -14 -13 -34t-13 -24l1 -150q0 -26 18 -28l9 -24q-37 -21 -77 -22q-26 21 -36 23l-1 2q8 2 15 40l11 66l2 -2l-25 9l-30 -88l-20 -9q-29 16 -51 73q-14 44 -28 87v-113q0 -23 2 -29q5 -12 23 -13q14 -11 13 -33q-30 -12 -78 -13l-14 19q-11 1 -11 3
q0 1 3.5 8.5t2.5 14.5l-3 111q-1 6 -3 17l1 57q5 0 14 24t14 24l-3 5q1 8 10.5 15t18.5 8q39 -30 60 -81q17 -50 33 -101q15 46 31 91q19 55 38 88q11 1 77 3zM298 560l-23 -9q-22 5 -32 34t-15 29h-27v-190q16 -11 48 -34q0 -22 -12 -34l-74 2q-41 2 -73 12l2 27q25 7 26 8
q9 4 21 19v190h-28q-11 0 -18 -29q-9 -32 -31 -38l-13 4l-8 10q1 27 1 54q3 38 15 47q113 -3 226 0q11 -11 14 -48q1 -27 1 -54z" />
    <glyph glyph-name="partialdiff" unicode="&#x2202;" horiz-adv-x="1188" 
d="M610 212l-3 -26h-27q-6 10 -6 21q0 14 18 14q11 0 18 -9zM1216 188h-22v72q0 19 -14 19q-11 0 -17 -7v-86h-27v118h24q0 -4 2 -7q10 10 22 10q32 0 32 -24v-95zM1120 246q0 -63 -44 -63q-45 0 -45 62t45 62q30 0 39 -19q5 -10 5 -42zM913 186q-15 3 -26 2v185q8 -3 26 -3
v-184zM871 242q-21 -1 -66 -5q8 -24 21 -24q8 0 13 3q1 1 2 6.5t4 5.5h26q-2 -10 -8 -29q-6 -10 -18 -13q-4 -1 -19 -1q-30 0 -39 22q-4 10 -4 38q0 62 44 62t44 -44v-21zM762 186h-30q-19 47 -44 96q-2 -2 -2 -94q-17 0 -26 -2v155q-4 2 -14 2v27q5 3 20 3q16 0 42 -60
l30 -72v145h24v-200zM559 278q0 -95 -56 -95q-41 0 -52 32q-6 17 -6 63q0 43 6 61q12 37 52 37q56 0 56 -98zM398 189q-3 -4 -13 -4t-16 11q-11 -13 -25 -13q-16 0 -26 27q-8 21 -8 40t11 38t29 19q3 0 8 -1t8 -1q2 2 2 12t-2 56h32v-184zM294 188q-12 0 -24 -2q0 7 -2 12
q-7 -13 -23 -13q-27 0 -27 32q0 21 17 29q9 4 36 8v26q-3 4 -12 4q-12 0 -18 -25h-17q-3 5 -3 9q0 39 38 39q15 0 25 -12t10 -27v-80zM272 236h-14q-6 0 -14 -8l1 -18q10 -1 17 0q4 0 7 1q0 17 3 25zM206 252h-25v17q-2 10 -15 10q-8 0 -14 -7v-86h-26v118h24q0 -5 1 -7
q10 10 22 10q10 0 21.5 -8t11.5 -18v-29zM112 239q0 -39 -16 -51h-70v153q-5 2 -18 2v30h67q15 0 23.5 -15.5t8.5 -31.5q0 -18 -15 -38q20 -8 20 -49zM776 502q0 -47 -5 -63q-9 -30 -41 -30q-33 0 -42 40q-4 17 -4 60q0 41 4 55q9 33 42 33q34 0 43 -35q3 -12 3 -60z
M664 502q0 -48 -3 -60q-9 -33 -41 -33q-33 0 -43 40q-4 16 -4 63q0 39 5 55q10 30 40 30q47 0 47 -66v-16q-1 -10 -1 -13zM552 545q0 -26 -15 -45q-20 -25 -43 -54q12 -1 50 1v-35h-80v23q0 33 31.5 62.5t31.5 52.5q0 19 -17 19q-14 0 -17 -8l-2 -22h-22v26q0 32 41 32
q42 0 42 -52zM434 510q0 -36 -16 -64q-20 -34 -53 -34q-37 0 -56 42q-13 28 -13 56q0 37 16 65q19 34 53 34t53 -34q16 -28 16 -65zM991 220q1 3 -29.5 15t-29.5 35q2 37 42 37q17 0 32 -9l4 -4q5 -13 8 -30h-27q0 8 -1 11q-7 9 -17 9q-9 0 -15 -6v-7q2 -2 37 -18
q21 -10 21 -33q0 -37 -44 -37q-5 0 -18 3q-18 4 -24 42h30q1 -23 15 -23q8 0 16 15zM1095 245q0 34 -19 34q-22 0 -22 -33t23 -33q8 0 15 3q3 10 3 29zM843 259v12q-2 2 -3 4q-4 4 -15 4t-13.5 -3.5t-5.5 -16.5h37zM526 277q0 52 -8 68h-35q-10 -49 -10 -58q0 -37 1 -43
q5 -31 25 -31q4 0 12 1.5t12 1.5q3 29 3 61zM378 222v60h-26q-6 0 -12 -6v-13q1 -11 1 -18v-31h29zM79 322q0 7 -6 23h-29v-40l29 -3q6 10 6 20zM84 266q-12 3 -35 8q0 -45 -1 -60h30q6 11 6 52zM748 445v113q0 16 -18 16q-14 0 -20 -8v-118q11 -8 21 -8q11 0 17 5zM636 445
v121q-8 8 -18 8q-11 0 -20 -11v-107q0 -16 22 -16q11 0 16 5zM425 510q0 86 -60 86q-30 0 -46 -28q-13 -23 -13 -56q0 -87 59 -87q30 0 46 29q14 24 14 56zM404 522l-21 -3q1 7 1 12q0 16 -14 16q-17 0 -20 -15q1 -9 2 -17v-30q3 -15 20 -15q6 0 15 19l16 -4q2 -5 2 -10
q0 -11 -11.5 -19t-23.5 -8q-42 0 -42 66q0 56 36 56q39 0 40 -48zM793 469q3 -1 9.5 -0.5t9.5 0.5h6l-1 -19q-1 -15 17 -15t18 16q0 9 -3 33q-11 12 -25 13l-1 14l1 10q25 1 25 34q0 14 -2 18t-15 4t-16 -34h-22v15q0 40 41 40q25 0 31.5 -10.5t6.5 -37.5q0 -38 -23 -42
q27 -3 27 -55q0 -43 -42 -43q-43 0 -43 37q0 6 1 22z" />
    <glyph glyph-name="product" unicode="&#x220f;" horiz-adv-x="1227" 
d="M1205 290h-20v54q-4 -8 -14 -50h-10q-2 8 -15 50q-1 -7 -1 -12t1 -40h-11v88q-2 1 -8 1v17h17l22 -66q7 25 22 73h17v-115zM1117 343q0 -29 -3 -37q-6 -16 -29 -16t-30 16q-3 7 -3 37q0 57 33 57q23 0 29 -21q3 -10 3 -36zM944 522h-17v-84h-18v88q-8 2 -23 0v18h58v-22z
M876 437h-21v115h21v-115zM1043 314q0 -24 -27 -24q-37 0 -37 53q0 30 4 39q7 16 31 16q29 0 29 -31v-14h-17v18q-1 11 -14 11q-15 0 -15 -36v-26q3 -16 17 -16q12 0 12 7v20h17v-17zM1162 177q0 -34 -32 -34q-27 0 -32 29l2 14h17q-1 -16 0 -19q3 -8 16 -8q12 0 12 17
q0 9 -23 14.5t-23 29.5q0 33 32 33q30 0 30 -19v-20h-19q0 22 -12 22q-13 0 -13 -14q0 -9 22.5 -14.5t22.5 -30.5zM844 470q0 -34 -32 -34q-31 0 -31 20v23h18q-1 -17 1 -20q2 -6 15 -6q12 0 12 16q0 11 -22 15.5t-22 29.5q0 32 30 32q31 0 31 -27v-6q-1 -4 -1 -6h-19
q0 9 -1 17q-1 5 -11 5q-13 0 -13 -13q0 -10 22.5 -15.5t22.5 -30.5zM969 292q-2 -1 -18 -1v19l18 -1v-17zM1087 145h-20q-9 25 -23 55q-1 -1 1 -55h-18v88q-1 1 -7 1v18h22l30 -77v84h15v-114zM769 437h-20v115h20v-115zM941 290h-18q-7 0 -13 16q-3 13 -7 25h-6v-41h-19v90
q-3 1 -9 1l2 17h46q14 0 14 -29q0 -23 -15 -29q8 -5 10 -22q0 -13 15 -12v-16zM741 552l-17 -114h-22q-5 34 -14 87l-12 3v17h24q3 -23 14 -68l12 75h15zM864 291h-55v89q-1 1 -7 1v17q17 -1 55 0v-17q-34 0 -36 -3q0 -3 1 -13v-15q14 -1 21 -1q8 0 10 1v-20q-10 2 -27 0
q2 -9 -1 -17q11 -3 21 -3q11 0 18 3v-22zM1011 179q-5 -2 -5 -11q-1 -25 -26 -25t-31 20q-2 7 -2 33q0 28 3 37q7 20 30 20q28 0 28 -24v-20h-14q0 18 -6 27h-18q-7 -9 -7 -37t1 -31q3 -9 18 -9q6 0 10 4v19q-5 0 -11 3l1 11h29v-17zM936 144h-20v115h20v-115zM793 291h-19
q-7 19 -24 56q-1 -1 0 -55h-17v88q-2 1 -7 1v17h21l32 -76v83h14v-114zM645 437h-56v89q-1 2 -7 2v17q10 -1 22 -1q11 0 33 1v-17q-34 0 -36 -3v-28q9 -4 32 -4v-17q-6 1 -12 1q-9 0 -16 -2v-17q19 -1 40 0v-21zM906 176q0 -33 -33 -33q-32 0 -32 25v18h18q1 -14 3 -23
q1 -4 14 -4q11 0 11 15q0 13 -22 17t-22 30q0 32 31 32q30 0 30 -21v-18h-19q0 14 -1 16q-2 6 -12 6q-12 0 -12 -14q0 -9 23 -14.5t23 -31.5zM715 290h-21v115h21v-115zM576 469q0 -33 -33 -33q-31 0 -31 25v18h17q1 -13 3 -22q1 -4 14 -4q11 0 11 14t-22 18t-22 29
q0 32 31 32q30 0 30 -21v-18h-18l-2 15q-3 7 -12 7q-12 0 -12 -13q0 -9 23 -15t23 -32zM835 144h-54v89q-3 1 -8 1v18q15 -2 55 -1v-17h-35v-32h30v-18h-26v-19q6 -1 15 -1q10 0 23 1v-21zM683 346q0 -55 -19 -55h-35v89q-3 1 -10 1v17h28q24 0 32 -16q4 -8 4 -36zM502 438
h-20v15q-1 7 -10 7q-8 0 -9 -7.5t-2 -14.5h-17l15 88q-6 3 -15 3l2 16h37zM767 199q0 -54 -19 -54h-36v88q-2 1 -10 1v17q-9 1 28 1q24 0 32 -16q5 -10 5 -37zM611 375h-18v-83h-18v88q-13 2 -24 -1v18h60v-22zM439 437h-55v89q-2 2 -7 2v17q10 -1 22 -1q11 0 33 1v-17
q-4 0 -27 1q-9 0 -9 -16q0 -18 6 -19q13 -1 26 -1v-17q-15 2 -27 0q0 -6 -1 -18q20 -1 39 0v-21zM541 291h-19q-7 19 -25 56l1 -55h-17v88q-2 1 -7 1v17h21l31 -76v83h15v-114zM372 455q2 -9 0 -19q-2 2 -46 1v115h20v-97q4 -1 26 0zM665 228h-17v-83h-18v85q-2 5 -10 5
q-7 0 -11 -1q-3 0 -2 0v17h58v-23zM319 514q0 -43 -33 -45q1 9 1 -31h-19v88q-3 2 -10 2l1 17h46q14 0 14 -31zM464 343q0 -25 -4 -36q-6 -17 -28 -17q-24 0 -30 18q-3 9 -3 36q0 56 33 56q32 0 32 -57zM599 175q0 -32 -33 -32q-31 0 -31 25v18h17q2 -11 3 -23q2 -4 14 -4
q11 0 11 15q0 13 -22 17t-22 30q0 32 32 32q30 0 30 -21v-18h-19q-1 16 -2 17q-2 5 -11 5q-10 0 -12 -4v-10q0 -9 22.5 -14.5t22.5 -32.5zM391 381h-36v-38q6 -1 13 -1t16 1v-18h-23v-33h-20v83q0 6 -7 6v17h57v-17zM529 144h-56v89q-1 1 -7 1v18q15 -2 55 -1v-17
q-34 0 -36 -2q0 -4 1 -14v-15q14 -1 21 -1q8 0 10 1v-20q-15 2 -26 0q0 -10 -2 -17q11 -3 22 -3q10 0 18 3v-22zM460 228h-18v-83h-17v85q-2 5 -10 5q-7 0 -11 -1q-3 0 -2 0v17h58v-23zM325 292q-2 -1 -17 -1v19l17 -1v-17zM297 405l-12 -114h-20l-9 60q-2 -20 -10 -61h-14
q-5 13 -9 42q-3 21 -7 46q-4 3 -14 3v17h25l11 -79l7 82h17l11 -70q6 31 8 74h16zM392 145h-18q-1 7 -5 22h-13q-1 -7 -5 -22h-15l13 88q-8 2 -13 1v18h39zM329 162q2 -4 2 -9t-2 -10q-1 2 -8 2t-37 -2v116h18v-96q2 -2 6 -2l6 1h15zM195 405l-12 -114h-20l-10 60
q-2 -20 -10 -61h-16q-4 31 -15 90q-3 1 -12 1v17h24l11 -77l7 80h17l12 -69q3 24 8 73h16zM249 145h-23q-5 5 -8.5 19.5t-7.5 19.5h-5v-41h-19v90q-6 2 -9 1l2 18h46q14 0 14 -30q0 -24 -15 -28q8 -6 10 -23q1 -13 15 -12v-14zM92 405l-12 -114h-20l-10 60q-2 -19 -8 -61
q-11 0 -20 1q-3 37 -12 89q-4 1 -14 1l1 17h24l12 -76l7 79h17l10 -67q6 23 9 71h16zM170 196q0 -53 -33 -53q-25 0 -31 20q-2 7 -2 34q0 56 33 56t33 -57zM96 234h-35q-3 -4 -3 -11q0 -4 1 -13t1 -13q6 -1 14 -1q7 0 15 1v-18h-23v-34h-19v38q0 51 -7 51v17h56v-17z
M1099 343q0 32 -4 39h-22q-4 -16 -4 -36v-23q3 -17 16 -17q-2 0 13 3q1 12 1 34zM915 368q0 10 -4 15h-20v-34h17q7 4 7 19zM664 344q1 38 -8 38h-15v-71h22q1 6 1 33zM480 476l-6 51l-14 -51h20zM747 196q0 34 -7 39h-15v-71h22v32zM303 519q0 9 -5 11h-18v-41h18q5 8 5 30
zM445 343q0 31 -4 39h-20q-5 -7 -5 -39q0 -25 3 -35q2 0 6.5 -1t6.5 -1q11 0 13 11v26zM372 183q-4 23 -6 51h-7l-7 -51h20zM223 221q0 8 -4 16h-20v-35h17q7 6 7 19zM151 196q0 35 -5 40h-20q-5 -10 -5 -39q0 -26 4 -36h24q2 22 2 35z" />
    <glyph glyph-name="summation" unicode="&#x2211;" horiz-adv-x="1801" 
d="M116 216q-6 -7 -17 -7q-9 0 -15 2q-12 42 -36 94l-3 3q-1 -9 -1 -25q0 -50 24 -74q-15 -2 -32 -2q-10 0 -20 2q20 32 20 74q0 21 -6 48q-2 10 -7 16q-6 12 -17 15q6 3 26 3h11q4 0 12 -2q4 -14 17 -52q8 -24 19 -35v29q0 15 -4 33q-7 18 -18 28q12 3 41 1q-9 -40 -9 -79
q0 -46 15 -72zM190 215q-7 -10 -21 -10q-20 0 -32 31q-9 25 -9 49q0 28 9 52q12 32 35 32q20 0 30 -35q7 -23 7 -50q0 -42 -19 -69zM153 290q1 -54 23 -54q7 0 13 14q5 11 5 20q2 9 -1.5 20t-12.5 11q-14 0 -14 -22q0 -19 10 -19q6 -2 8 8q-1 -1 -4 -1q-11 0 -11 14
q0 19 11 15q11 0 11 -21q0 -24 -14 -24q-10 -1 -15 10q-4 7 -4 19q4 32 22 32q8 0 12 -7l4 -5v5q-5 38 -21 38q-11 0 -17 -22q-5 -17 -5 -31zM240 289q-20 0 -20 37q0 15 10 29t24 14q8 0 22.5 -1.5t22.5 -1.5q15 0 19 4q2 -6 2 -11q0 -10 -1 -18v-17q-2 4 -8 10t-14 6
q-3 0 -5 -3q-1 -6 -1 -37q0 -34 1 -43q3 -28 12 -48q-12 -1 -32 -1q-19 0 -24 2q1 2 10 14q9 17 9 76v22q0 18 -3 18h-11q-23 0 -23 -27q0 -15 12 -15q5 0 7 5h-2q-1 -1 -2 -1q-11 0 -11 15q0 16 11 16q13 0 13 -18q0 -8 -3 -14q-4 -12 -15 -12zM435 278q-4 -2 -5 -3
q-1 -6 -1 -17q0 -29 12 -50q-21 -1 -53 -4h-1q6 15 14 38q3 19 3 40v25q0 25 -11 52q-1 1 -3 5q0 1 -1 2q8 0 23 1t23 1q26 0 34 -10.5t8 -37.5q2 -16 -12 -30.5t-30 -11.5zM434 344h-3q-3 -1 -4 -1v-9q0 -24 5 -37q18 3 18 25t-16 22zM569 290v9q0 15 -6 46q-3 5 -6 13
q-1 3 17 7q10 2 15 2q6 0 6 -3v-1q-9 -7 -9 -41v-57q0 -60 -33 -60q-52 0 -52 91v18q1 7 1 15q0 22 -11 28q-1 1 -1 3t3 3q20 4 44 4q1 1 2 1h3q1 0 2 -2q-10 -5 -13 -30v-13q-1 -23 -1 -22q0 -51 9 -65q5 -5 15 -4q11 2 14 25q0 6 1 17v16zM688 215q-12 -9 -38 -9
q-11 0 -20 3q-3 0 -17 4q8 14 10 73q1 30 1 42q0 29 -11 31q-6 1 -6 3v2q23 5 31 5q51 0 55 -35q2 -7 0 -15q0 -18 -19 -31q29 -9 29 -39q0 -20 -15 -34zM649 342h-2v-35q0 -10 4 -10q11 0 11 31q0 14 -13 14zM651 274q-4 0 -6 -1q0 -11 1 -14q0 -21 2 -33q7 -2 13.5 8
t6.5 17q0 23 -17 23zM766 241l3 -6q1 -2 7 -2q12 0 20 18q3 6 9 15q2 -9 -1 -20q0 -14 -3 -38h-66q-7 0 -11 1q19 41 19 90q0 45 -20 65q12 0 46 3q-6 0 -6 -46q0 -58 0.5 -62t2.5 -18zM874 343q-5 -19 -5 -57q0 -19 1 -36q1 -5 4 -21q4 -12 4 -20q-1 -2 -7 -1q-10 0 -16 -1
h-17l-3 2q14 34 14 73q0 35 -11 64q6 2 18 2h11q8 0 7 -5zM877 372q-10 -2 -19 -20q-7 16 -20 19q18 9 18 22q2 -1 4 -4q3 -6 4 -7q9 -9 13 -10zM860 366q3 2 3 5q0 2 -2 5.5t-4 1.5q-4 -1 -4 -5q0 -7 7 -7zM960 307q-6 0 -8 9q-1 -1 -1 -5q0 -11 9 -11q16 0 16 24
q0 22 -18 22q-7 0 -13 -6q-2 -2 -5 -9q-8 -19 -8 -40q0 -45 25 -45q18 0 18 25v5q-1 3 -1 4q12 -6 12 -24q0 -49 -35 -49q-23 0 -35 27q-10 21 -10 47q0 29 11 54q14 33 38 33q30 0 30 -40q0 -11 -6 -22q-7 -14 -17 -14q-6 0 -12 7.5t-6 14.5q0 23 15 23q13 0 10 -17
q0 -13 -9 -13zM1097 206q-19 0 -43 9q18 23 18 65t-1 51q-2 16 -11 28q3 6 32 9q10 1 24 -1q38 -12 38 -83q0 -14 -3 -32q-12 -46 -54 -46zM1098 232q2 -1 5 -1q4 0 8 2q7 9 10 29q0 47 -4 69t-14 22q-3 0 -5 -3v-3q7 -66 5 -87q-1 -13 -5 -28zM1218 205q-19 0 -31 32
q-10 25 -10 48q0 26 10 51q13 33 34 33q20 0 30 -35q7 -23 7 -50q0 -21 -2 -29q-12 -50 -38 -50zM1202 290q1 -54 23 -54q14 0 19 34q0 31 -15 31q-14 0 -14 -22q0 -19 11 -19q5 -2 7 8q-1 -1 -4 -1q-11 0 -11 14q0 19 11 15q11 0 11 -21q0 -24 -14 -24q-10 -1 -15 10
q-3 6 -3 19q1 32 21 32q8 0 12 -7l4 -5v5q-5 38 -21 38q-11 0 -17 -22q-5 -17 -5 -31zM1316 268q0 -18 -14 -18q-9 0 -7 14q1 -8 7 -8q11 0 11 13q0 16 -11 16q-14 0 -14 -22q0 -20 15 -20q18 0 18 23q4 32 -19 32q-22 0 -28 -29q-3 -40 12 -55q6 -9 20 -9q16 0 25.5 16
t9.5 33q0 10 2 28.5t2 28.5q9 -18 9 -62v-20q-2 -12 -7 -17q4 -3 14 -1h4q4 -1 7 -1h8q9 0 9 10q0 5 -1 14t-1 14q0 31 9 65q9 -22 9 -67q0 -24 -6 -35q1 -3 16 -3q9 0 12 1q-10 23 -16 70q-3 22 -3 50q0 26 5 36q-6 2 -23 2q-14 0 -17 -1q5 -17 5 -21v-7q-1 -7 -1 -12
q-4 -45 -9 -48q-9 23 -9 65q0 3 1.5 10t1.5 11q-18 3 -38 3h-8q-3 -1 -7 -1q19 -21 19 -77q0 -53 -23 -53q-21 0 -21 28q0 26 19 26q13 0 13 -22zM1557 214q0 -5 -18 -5q-2 -1 -23 -1q-9 0 -12 3q14 7 14 28q0 12 -11 12q-2 0 -6 -1q-9 -28 -11 -32q-9 -18 -25 -18
q-14 0 -22 18q-7 15 -7 31q0 12 8.5 24.5t19.5 12.5q19 0 19 -26q0 -8 -5 -18t-13 -10q-15 0 -15 19q0 20 12 20q10 0 10 -17q0 -11 -10 -11h-3q5 -3 7 -3q9 0 9 18q0 17 -11 17q-17 0 -17 -26q0 -22 16 -22q31 0 31 94q0 34 -23 42q3 2 22 4h36l-2 -27q0 -25 9 -66
q10 -46 21 -60zM1513 274q0 27 -8 30v-6q-1 -5 -1 -9q-2 -11 -2 -14q0 -5 9 -5q2 1 2 4zM1620 343q-5 -19 -5 -57q0 -19 1 -36q1 -5 4 -21q4 -12 4 -20q-2 -2 -7 -1q-10 0 -17 -1h-16q-1 0 -3 2q14 37 14 73q0 31 -11 64q6 2 18 2h11q8 0 7 -5zM1623 372q-10 -2 -19 -20
q-7 16 -20 19q15 8 18 22q2 -1 4.5 -5t3.5 -6q7 -8 13 -10zM1606 366q3 2 3 5q0 11 -7 7q-3 -1 -3 -5q0 -7 7 -7zM1758 216q-4 -7 -17 -7q-8 0 -15 2q-12 43 -36 94q-1 3 -3 3q-1 -9 -1 -25q0 -50 24 -74q-14 -2 -32 -2q-11 0 -19 2q19 33 19 74q0 44 -12 64q-7 12 -18 15
q6 3 26 3h11q4 0 12 -2l16 -46q12 -33 21 -41v29q-2 42 -23 61q13 3 42 1q-10 -39 -10 -79q0 -46 15 -72zM493 437q-13 3 -23 3q-2 0 -11 -1h-16q14 39 14 88q0 30 -9 52q-1 7 -11 13q12 6 69 6h4q0 -5 2 -37v0q-6 5 -15 12q-4 2 -16 2h-2q-2 -6 -2 -18q0 -18 3 -24h1
q13 0 26 13q0 -23 1 -42q-14 11 -23 11q-8 0 -8 -4q1 -44 12 -65q2 -2 4 -9zM573 543q-4 0 -7 3q-4 12 -4 27q0 7 8 7q15 0 15 -20q0 -17 -12 -17zM631 482q0 16 -15 16q-8 0 -12 -7q-4 -10 -3 -15q0 -18 9 -18t11 12q2 18 -11 18q1 4 5 4q10 0 10 -20q0 -19 -12 -19
q-11 0 -14 14q0 39 -13 52q7 2 19 12q5 6 5 22q0 46 -39 46q-8 0 -15 -1h-15q-8 0 -12 1q13 -19 13 -49q0 -40 -2 -56q-4 -33 -12 -54q5 -1 11 -2q32 0 38 4q-15 10 -15 71q0 7 3 7h1q11 0 11 -34v-4q-1 -3 -1 -5v-5q0 -35 28 -35q19 0 26 20q4 12 1 25zM719 496q1 -1 1 -6
q-1 -9 -3 -46q0 -2 -2 -4q-17 -1 -70 -1h-5q19 54 19 93q0 36 -21 63q42 4 74 5q0 -6 1 -17.5t1 -17.5v-2q1 0 -14 11q-5 3 -15 3h-4q-3 -9 -3 -22q0 -12 2 -20q1 -1 3 -1q9 0 17 7t10 8v-34q0 -5 -1 -9q-10 10 -21 10q-10 0 -10 -10q0 -8 1 -16v-9q3 -16 14 -16q14 0 26 31
zM820 496q1 -1 1 -6q-1 -10 -3 -46q0 -4 -2 -4q-18 -1 -70 -1h-6q19 50 19 93q0 36 -20 63q42 4 73 5l2 -18q0 -4 1 -10v-9q5 0 -15 10q-5 4 -14 4h-5q-2 -6 -2 -22q0 -21 5 -21q11 0 26 15v-17q1 -9 1 -17v-4q-1 -3 -1 -5q-10 10 -22 10q-9 0 -9 -10q0 -20 1 -25
q3 -16 14 -16q14 0 26 31zM875 536q0 18 -14 18q-8 0 -8 -14q2 8 7 8q12 0 12 -15q0 -14 -12 -14q-14 0 -14 22q0 20 15 20q19 0 19 -23q0 -32 -20 -32q-10 0 -17.5 9t-8.5 19q-1 20 3 31q13 34 32 34q16 0 25.5 -16t9.5 -33q0 -2 2 -29q2 -23 1 -24q9 2 9 55q0 27 -11 38
q4 1 15 1h19q9 0 9 -9q0 -3 -2 -13v-7q-1 -5 -1 -6q0 -27 10 -60q3 1 6 27t3 35q0 25 -6 35q2 3 16 3q8 0 12 -1q-7 -13 -14 -56q-6 -38 -6 -59q0 -19 5 -37q-2 -2 -22 -2q-11 0 -17 1q5 17 5 21q0 -7 -2 19q-3 41 -8 44q-9 -22 -9 -65q0 -3 1.5 -10t1.5 -11q-18 -3 -48 -3
h-7q-4 1 -8 1q28 29 28 77q0 53 -22 53q-21 0 -21 -28q0 -26 18 -26q14 0 14 22zM1111 445q0 -6 -18 -6h-24q-9 0 -11 3q14 7 14 27q0 13 -11 13q-2 0 -6 -1q-4 -15 -16 -41q-7 -9 -20 -9q-14 0 -22 18q-7 15 -7 31q0 13 8 24.5t20 11.5q18 0 18 -26q0 -27 -17 -27
q-15 0 -15 19t12 19q10 0 10 -16q0 -11 -10 -11h-3q3 -3 7 -3q9 0 9 18q0 17 -12 17q-17 0 -17 -26q0 -22 17 -22t25 39q6 28 6 54q0 36 -24 43q27 5 46 4l13 -1l-2 -27q0 -24 9 -65q10 -46 21 -60zM1067 505q0 8 -2 15t-6 15q0 -5 -1.5 -15t-1.5 -15q0 -4 9 -4q2 1 2 4z
M1167 543q-4 0 -7 3q-4 12 -4 27q0 7 8 7q15 0 15 -20q0 -17 -12 -17zM1225 482q0 16 -15 16t-15 -22q0 -18 9 -18q11 0 11 12q3 18 -11 18q1 4 5 4q11 0 11 -20q0 -19 -13 -19q-11 0 -14 14q0 39 -13 52q7 2 20 12q4 7 4 22q0 46 -38 46q-9 0 -16 -1h-15q-8 0 -12 1
q13 -19 13 -49q0 -40 -2 -56q-4 -33 -12 -54l12 -2q31 0 37 4q-15 10 -15 71q0 7 3 7h1q11 0 11 -34q0 -6 -1 -9v-5q0 -35 28 -35q19 0 26 20q4 12 1 25zM1323 496q1 -1 1 -6q-1 -10 -3 -46q0 -4 -2 -4q-18 -1 -70 -1h-5q19 54 19 93q0 18 -4 34q-5 13 -17 29q42 4 74 5
q0 -6 1 -17.5t1 -17.5v-2q-3 0 -8 4.5t-6 5.5q-5 4 -15 4h-5q-2 -12 -2 -22q0 -21 5 -21q8 0 26 15v-17q1 -9 1 -17v-4q-1 -3 -1 -5q-10 10 -21 10q-10 0 -10 -10q0 -20 1 -25q3 -16 14 -16q14 0 26 31z" />
    <glyph glyph-name="integral" unicode="&#x222b;" horiz-adv-x="761" 
d="M642 245q0 -23 -323 -31q11 -74 25 -82q8 -43 44 -43q9 0 21 4q3 -2 6 -2q8 0 30 12.5t30 12.5q4 0 7 -3q9 3 21.5 -12t10.5 -28q-15 -69 -42 -78q-38 2 -66 4q-67 6 -75 13q-73 9 -94 98q-13 13 -25 110l-168 22q-30 4 -30 42q0 43 30 43h162q1 16 5 35q11 52 26 82
l-100 13q-30 3 -30 42q0 42 30 42h153q57 96 81 108q66 87 142 87q16 0 31 -3q9 4 26 4q36 0 80 -14.5t50 -29.5q25 -7 25 -45q0 -10 -2.5 -21.5t-37 -20t-44.5 -4.5q-10 -4 -54 15.5t-57 19.5q-5 0 -7 -1q-10 2 -19 2q-32 0 -57 -38q-14 -7 -47 -59h305q13 0 22 -32
q8 -27 8 -50q0 -14 -183 -24q-170 -10 -198 -6l-16 2q-16 -27 -25 -67q-4 -21 -4 -37h303q13 0 22 -33q8 -26 8 -49z" />
    <glyph glyph-name="apple" unicode="&#xf000;" horiz-adv-x="787" 
d="M80 524q2 -34 -12 -44l7 -5q17 -19 20 -67q3 -41 -29 -43q-24 -1 -44 0q5 58 5 111q0 27 -1 52l-2 2l-11 -9q0 30 2 33q14 9 42 25q21 0 23 -55zM41 392l6 -4l12 2q17 3 15 19l-2 16q-2 19 -6 30q-6 5 -19 3h-5v-29q0 -13 -1 -37zM62 514q-1 9 -2 19.5t-8 11.5l-6 -3
l-10 -3q-1 -18 1 -31q1 -16 3 -21q20 5 22 11v16zM112 531l-14 -3q-1 -1 1 -24q1 -8 4 -42q5 1 15 4l5 7q1 17 0 27q-1 11 -2 19t-9 12zM143 373q-6 8 -13 39q-6 25 -18 27q2 13 5 -17q4 -43 5 -49l1 -5q-2 1 -20 -1q-12 77 -20 153q-2 21 2 28q7 4 21 4q7 1 16 2
q16 -7 21 -71q1 -21 -15 -31q16 -12 19 -43q1 -8 9 -10h8q21 0 61 -3l6 -28q-41 0 -88 5zM170 586q14 -100 50 -180q-9 1 -22 4q-2 14 -16 35l-10 2q2 -12 3 -25q1 -4 2 -13q-4 1 -19 -2l-1 9q-3 48 -12 143l-8 6q-14 0 -52 -8l2 29q20 5 31 5l34 -1q6 -1 18 -4zM162 561h-5
q-3 -22 -1 -47q1 -14 4 -39l7 -2q1 -1 6 0q4 0 7 1q-4 33 -18 87zM226 520q14 -50 35 -154h-24q-6 27 -19 80.5t-19 80.5q18 -3 27 -7zM196 580q8 -1 23 -5q-2 -26 5 -40q-2 -1 -7 -2q-2 -1 -18 6q0 2 -1.5 5.5t-1.5 5.5v30zM269 474q10 -21 16 -55l11 -56q-3 1 -23 2
q-8 35 -26 113q-3 16 -12 54q-5 4 -6 6q-8 16 -6 36q9 -1 27 -6q28 -72 74 -149q-16 49 -38 151h5q4 3 9 -4l6 3l1 -9q-2 -38 18 -99q25 -77 28 -101q-3 -2 -10 -3q-8 0 -12 1q-7 24 -27 60l-33 59zM636 493q-4 -4 -12 -4q-7 0 -11 1q-3 0 -1 0q-13 -1 -11 -15q1 -13 5 -16
q12 0 33 5q1 -7 4 -22l-8 1q-16 -4 -27 -4q0 -17 1 -37q1 -16 10 -16q10 5 28 13l1 -26q-18 -9 -55 -21q1 36 -2 64l-9 89l7 5l7 1q11 -2 41 1q1 -10 -1 -19zM670 525l-14 1q-5 -1 -3 -7l2 -10q2 -13 6 -38h13q13 0 13 17q0 5 -1 11q-1 17 -9 24zM769 399l4 3l2 -13
q-7 -5 -12 -5q-16 -1 -43 2q-4 -2 -21 -1q-9 -1 -13 19q-1 13 -2.5 27.5t-10.5 15.5l-5 -3q-2 -14 2 -28q5 -31 5 -35l-9 -5q-8 0 -11 -2l-7 105q-1 22 -7 43q-11 -3 -40 -3h-9l-1 30q11 0 31.5 1.5t31.5 1.5q32 0 39 -14q7 -8 11 -31q5 -24 -10 -39l-6 -6q13 -8 15 -42
q0 -11 10 -16q7 -2 35 -4q18 1 21 -1zM447 523q-11 -1 -35 -1q-4 0 -12 -2q3 -7 7 -22q1 -12 9 -37q13 -4 38 -5q3 -9 5 -18l1 -14q-4 0 -14.5 2.5t-16.5 1.5q-4 0 -2 -16q3 -32 3 -24q17 -2 48 -14q0 -12 4 -38q-22 6 -67 11q-3 45 -30 161q-2 5 -7 14l-9 2q-2 1 -13 28
q29 0 84 -2q1 -9 7 -27zM455 549l4 1q15 -1 46 2q34 -142 45 -214q-13 -1 -25 -6l1 8l-2 44l-5 5q-16 0 -18 -21q0 -1 2 -34q-1 3 -4 3q-4 0 -9 -4l-5 3q1 141 -7 183l-13 2q-11 -1 -11 25zM502 413q9 2 12 2l5 4v10q-3 12 -8 43q0 2 -12 49l-8 3q-9 -7 7 -90zM545 522l-5 1
q-6 1 -21 -1q-2 4 -2 11v16l13 1q23 2 39 -2l13 3q2 -5 5 -37q-7 -2 -22 -1q12 -46 16 -141l1 -25q-2 -3 -9.5 -2t-10.5 -3q0 16 -2 45q-1 12 -8 71.5t-7 63.5zM748 407q-25 -2 -36 26l-2 14q1 -3 2 11l14 -7l-1 -15l3 -8q8 -7 21 -6q7 1 11 11q-7 13 -32 22q-18 7 -21 50
q-2 21 19 22q34 2 41 -42l-10 -5q-7 23 -17 27q-9 2 -15 -4l-2 -9q-2 -7 9 -19q38 -13 40 -45q-4 -21 -24 -23zM718 552l-1 -6h7l-2 -12h7l2 12l7 -1l1 7h-21zM741 552l-4 -20h5l3 12l3 -12l5 9l2 -11h4l3 21h-6l-6 -9l-3 9zM49 303v-13h21v-13q-2 0 -8 1h-13v-35h-19
q2 25 2 74q30 -2 44 -2v-14q-14 2 -20 2h-7zM82 278q0 43 32 43q31 0 31 -41q0 -40 -34 -40q-29 0 -29 38zM112 304q-17 0 -17 -23q0 -19 16 -19q14 0 14 19v4q0 19 -13 19zM169 284q0 -6 -1 -21q-1 -13 0 -20h-17q5 37 3 74q2 -1 16 -1q5 -18 17 -54q3 30 2 54q3 -1 23 -1
q-2 -24 -2 -74l-29 2q-4 13 -12 41zM257 242q-7 2 -23 0q2 15 2 43v17h-4q-2 0 -5 1h-6q1 5 1 14q28 -3 52 -2q0 -19 -1 -15h-14q-2 -19 -2 -58zM355 270q-5 -30 -28 -30q-28 0 -28 37q0 44 29 44q27 0 27 -31h-18q-3 14 -11 14q-12 0 -12 -21q0 -19 13 -19q7 0 7 7h11
q7 -1 10 -1zM366 278q0 41 32 41q30 0 30 -39q0 -40 -33 -40q-29 0 -29 38zM395 304q-16 0 -16 -23q0 -19 16 -19q14 0 14 19v4q0 19 -14 19zM472 242h-13q-1 5 -9 38q0 -13 -2 -37h-13q1 12 4 74q3 -1 22 -1q6 -30 7 -46q2 8 7 45q8 -1 15 -1t14 1q0 -12 -1 -37t-1 -37
q-7 0 -22 1q2 24 2 38q-4 -12 -10 -38zM531 265l-1 -22h-17q2 16 2 74h14q9 -1 13 -1q24 0 24 -25q0 -30 -35 -26zM530 303q-1 -4 -1 -11v-8h13q5 0 5 8q0 9 -17 11zM599 242q0 4 -2 12l-17 1l-3 -12l-16 2q9 20 26 72q12 -2 19 -2q6 -37 17 -75q-8 1 -24 2zM584 271
q2 -1 6 -1h6q-1 12 -5 29q-2 -7 -7 -28zM650 284v-21q-1 -28 -1 -20h-16q3 41 2 74q3 -1 16 -1q5 -18 18 -54q2 37 1 54q3 -1 23 -1q0 -24 -2 -74l-28 2q-5 13 -13 41zM743 242l-23 1q2 16 2 27q0 7 -20 47h16q2 -12 12 -34q7 14 12 34q5 -2 23 -2q-22 -37 -22 -46v-27z" />
    <glyph glyph-name="NULL" horiz-adv-x="0" 
 />
  </font>
</defs>
</svg>
