<svg id="Layer_1" data-name="Layer 1" xmlns="http://www.w3.org/2000/svg" viewBox="0 0 51.6 41.98">
  <path d="M20.64,1.7A19.14,19.14,0,0,0,7.34,7.36a18.92,18.92,0,0,0-5,8.67,19.12,19.12,0,0,0,0,10,18.92,18.92,0,0,0,5,8.67,19.18,19.18,0,0,0,6.11,4.13,18.69,18.69,0,0,0,7.19,1.52,19.61,19.61,0,0,0,7.24-1.25,19.1,19.1,0,0,0,6.24-3.87l.52-.53a.41.41,0,0,1,.65,0l.55.53a.42.42,0,0,1,0,.64l-.55.56a21,21,0,0,1-6.61,4.14A20.61,20.61,0,0,1,21,42h-.38a20.39,20.39,0,0,1-7.84-1.65,20.89,20.89,0,0,1-6.63-4.5A20.43,20.43,0,0,1,.72,26.41a20.69,20.69,0,0,1,0-10.82A20.49,20.49,0,0,1,6.17,6.15,20.86,20.86,0,0,1,12.8,1.66,20.4,20.4,0,0,1,20.64,0a21.13,21.13,0,0,1,7.87,1.38A20.45,20.45,0,0,1,35.29,5.6a1.54,1.54,0,0,0,.19.17,2,2,0,0,1,.2.21l.16.17a.43.43,0,0,1,0,.65l-.55.53a.41.41,0,0,1-.65,0l-.17-.18L34.28,7a1.1,1.1,0,0,0-.16-.15A18.55,18.55,0,0,0,27.91,3,19.7,19.7,0,0,0,20.64,1.7Z"/>
  <path d="M36.25,1.7A19.09,19.09,0,0,0,23,7.36a18.75,18.75,0,0,0-5,8.67,19.12,19.12,0,0,0,0,10,18.75,18.75,0,0,0,5,8.67,19.14,19.14,0,0,0,6.1,4.13,18.77,18.77,0,0,0,7.2,1.52,19.52,19.52,0,0,0,7.23-1.25,18.89,18.89,0,0,0,6.24-3.87l.53-.53a.41.41,0,0,1,.65,0l.55.53a.42.42,0,0,1,0,.64l-.55.56a21,21,0,0,1-6.61,4.14A20.64,20.64,0,0,1,36.63,42h-.38a20.39,20.39,0,0,1-7.84-1.65,21,21,0,0,1-6.64-4.5,20.6,20.6,0,0,1-5.45-9.42,20.9,20.9,0,0,1,0-10.82,20.67,20.67,0,0,1,5.45-9.44,21,21,0,0,1,6.64-4.49A20.4,20.4,0,0,1,36.25,0a21.08,21.08,0,0,1,7.86,1.38A20.6,20.6,0,0,1,50.9,5.6a1,1,0,0,0,.19.17l.2.21a1.42,1.42,0,0,0,.16.17.43.43,0,0,1,0,.65l-.55.53a.41.41,0,0,1-.65,0l-.18-.18L49.88,7a.57.57,0,0,0-.16-.15A18.35,18.35,0,0,0,43.51,3,19.61,19.61,0,0,0,36.25,1.7Z"/>
</svg>
